<svg>
<metadata>
Created by FontForge 20100429 at Wed May 29 18:58:44 2013 By www-data (c) 2008 Microsoft Corporation. All rights reserved.
</metadata>
<defs>
<font id="Raavi" horiz-adv-x="0">
<font-face font-family="Raavi" font-weight="400" font-stretch="normal" units-per-em="2048" panose-1="2 11 5 2 4 2 4 2 2 3" ascent="1638" descent="-410" x-height="955" cap-height="1320" bbox="-1165 -1352 2576 2168" underline-thickness="64" underline-position="-288" unicode-range="U+0020-25CC"/>
<missing-glyph/>
<glyph glyph-name="glyph1" horiz-adv-x="1024" d="M128 0v1320h768v-1320h-768zM256 128h512v1064h-512v-1064z"/>
<glyph glyph-name="glyph2"/>
<glyph glyph-name="glyph122" horiz-adv-x="640"/>
<glyph glyph-name="space" unicode=" " horiz-adv-x="640"/>
<glyph glyph-name="space" unicode=" " horiz-adv-x="640"/>
<glyph glyph-name="exclam" unicode="!" horiz-adv-x="640" d="M388 354h-140v1006h140v-1006zM405 0h-170v164h170v-164z"/>
<glyph glyph-name="quotedbl" unicode=""" horiz-adv-x="924" d="M696 1476l-46 -387h-79l-46 387h171zM408 1476l-46 -387h-79l-46 387h171z"/>
<glyph glyph-name="numbersign" unicode="#" horiz-adv-x="1602" d="M1369 969l-27 -136h-245l-86 -327h249l-28 -136h-255l-86 -370h-139l87 370h-228l-87 -370h-139l87 370h-238l27 136h244l87 327h-251l27 136h258l86 371h139l-87 -371h228l87 371h138l-86 -371h238zM961 835h-231l-89 -330h231z"/>
<glyph glyph-name="percent" unicode="%" horiz-adv-x="1602" d="M834 1121q0 -105 -68.5 -180.5t-163.5 -75.5t-163.5 75.5t-68.5 180.5t68.5 180t163.5 75t163.5 -75t68.5 -180zM1356 1304l-987 -1344l-120 77l988 1345zM1233 214q0 -105 -68.5 -179.5t-163.5 -74.5t-163 74.5t-68 179.5t68 181t163 76t163.5 -76t68.5 -181zM723 1121 q0 56 -34.5 99t-86.5 43t-86 -43t-34 -99t33 -98q35 -45 87 -45t87 45q34 42 34 98zM1122 214q0 56 -34.5 99.5t-86.5 43.5t-86 -43.5t-34 -99.5t34 -99t86 -43t86.5 43t34.5 99z"/>
<glyph glyph-name="ampersand" unicode="&" horiz-adv-x="1496" d="M1402 125l-116 -116l-207 205q-189 -235 -450 -235q-193 0 -326 120q-137 124 -137 313q0 241 268 433q-173 182 -173 304q0 143 100 233q97 88 243 88t245 -87q104 -91 104 -234q0 -170 -252 -339l356 -353q62 125 62 352h153q-1 -273 -101 -455zM780 1149 q0 78 -50.5 122.5t-129.5 44.5q-167 0 -167 -167q0 -63 53 -130q25 -32 102 -103q92 55 131 95q61 62 61 138zM961 325l-410 407q-213 -139 -213 -315q0 -129 92 -207q88 -74 220 -74q177 0 311 189z"/>
<glyph glyph-name="quotesingle" unicode="'" horiz-adv-x="460" d="M315 1476l-45 -387h-79l-46 387h170z"/>
<glyph glyph-name="parenleft" unicode="(" horiz-adv-x="854" d="M674 -158l-96 -101q-171 175 -275.5 412t-104.5 488q0 249 105 486t275 412l88 -93q-304 -340 -304 -805q0 -226 82 -431q85 -214 230 -368z"/>
<glyph glyph-name="parenright" unicode=")" horiz-adv-x="854" d="M657 664q0 -246 -95 -494q-95 -234 -255 -429l-114 81q299 400 299 843q0 402 -275 792l119 82q321 -442 321 -875z"/>
<glyph glyph-name="asterisk" unicode="*" horiz-adv-x="1076" d="M912 510h-276l214 -198l-65 -65l-198 214v-274h-101v274l-198 -214l-65 65l214 198h-274v101h274l-214 198l65 65l198 -214v276h101v-276l198 214l65 -65l-214 -198h276v-101z"/>
<glyph glyph-name="plus" unicode="+" horiz-adv-x="1282" d="M1034 499h-348v-348h-119v348h-348v123h348v348h119v-348h348v-123z"/>
<glyph glyph-name="comma" unicode="," horiz-adv-x="560" d="M385 24q0 -18 -7 -28l-167 -260l-59 42l139 222h-115v198h209v-174z"/>
<glyph glyph-name="hyphen" unicode="-" horiz-adv-x="840" d="M690 573h-540v136h540v-136z"/>
<glyph glyph-name="period" unicode="." horiz-adv-x="560" d="M385 0h-209v198h209v-198z"/>
<glyph glyph-name="slash" unicode="/" horiz-adv-x="1282" d="M1115 1226l-827 -1320l-115 73l827 1322z"/>
<glyph glyph-name="zero" unicode="0" horiz-adv-x="1312" d="M1207 662q0 -289 -133 -483q-150 -219 -417 -219t-418 219q-134 195 -134 483t134 481q151 217 418 217t417 -217q133 -193 133 -481zM1045 662q0 214 -98 375q-110 180 -290 180t-291 -180q-99 -161 -99 -375t99 -377q111 -182 291 -182t290 182q98 162 98 377z"/>
<glyph glyph-name="one" unicode="1" horiz-adv-x="854" d="M572 0h-170v1116l-141 -130l-84 86l235 224h160v-1296z"/>
<glyph glyph-name="two" unicode="2" horiz-adv-x="1148" d="M968 999q0 -176 -158 -320l-294 -229q-158 -139 -158 -304h599v-146h-759q-3 44 -3 79q0 255 159 432q37 42 295 242q158 124 158 246q0 213 -225 213q-189 0 -304 -158l-98 97q78 116 211 171q94 38 191 38q166 0 274 -95q112 -99 112 -266z"/>
<glyph glyph-name="three" unicode="3" horiz-adv-x="1174" d="M975 347q0 -78 -43 -158q-59 -110 -170 -171q-106 -58 -234 -58q-191 0 -350 104v149q179 -106 350 -106q105 0 195 70q96 75 96 177q0 272 -268 272h-95v148h90q97 0 162.5 63t65.5 159q0 103 -84 165q-76 56 -183 56q-158 0 -307 -23v143q168 24 255 24q472 0 472 -357 q0 -180 -152 -297q200 -93 200 -360z"/>
<glyph glyph-name="four" unicode="4" horiz-adv-x="1174" d="M1118 266h-231v-266h-158v266h-643l213 1054h158q-45 -279 -169 -907h441v451h158v-451h231v-147z"/>
<glyph glyph-name="five" unicode="5" horiz-adv-x="1174" d="M1065 400q0 -199 -157 -325q-142 -115 -333 -115q-236 0 -383 56v165q141 -61 361 -61q126 0 229 69q120 81 120 212t-87 200q-79 63 -212 63h-375v656h828v-146h-664v-356h218q192 0 311 -89q144 -108 144 -329z"/>
<glyph glyph-name="six" unicode="6" horiz-adv-x="1348" d="M1128 378q0 -174 -125 -301q-128 -129 -307 -129q-269 0 -389 237q-88 173 -88 446q0 286 155 485q174 224 472 224h167v-154h-129q-254 0 -385 -177q-105 -142 -113 -359q176 117 324 117q165 0 287 -103q131 -112 131 -286zM972 380q0 109 -80 174q-74 61 -185 61 q-91 0 -178.5 -51t-126.5 -119q6 -128 82 -229q86 -114 215 -114q116 0 195 84q78 81 78 194z"/>
<glyph glyph-name="seven" unicode="7" horiz-adv-x="1174" d="M1028 1160l-263 -308q-169 -200 -251 -355q-111 -211 -111 -415q0 -47 6 -82h-179q-6 46 -6 82q0 212 102 424q77 158 233 352l250 302h-635v160h854v-160z"/>
<glyph glyph-name="eight" unicode="8" horiz-adv-x="1174" d="M1026 328q0 -138 -111 -246q-127 -122 -330 -122q-205 0 -329 119q-111 106 -111 249q0 134 94 235q50 54 206 157q-252 161 -252 317q0 161 118 246q105 77 274 77t274 -77q118 -85 118 -246q0 -156 -252 -317q155 -103 207 -158q94 -101 94 -234zM827 1037 q0 92 -80 144q-68 45 -162 45t-162 -45q-80 -52 -80 -144q0 -118 242 -242q242 124 242 242zM875 328q0 157 -290 315q-290 -158 -290 -315q0 -78 74 -151q86 -86 216 -86q131 0 216 83q74 71 74 154z"/>
<glyph glyph-name="nine" unicode="9" horiz-adv-x="1348" d="M1129 677q0 -285 -151 -490q-167 -227 -442 -227q-126 0 -231 21v154q128 -22 197 -22q219 0 343 168q109 148 117 377q-176 -118 -324 -118q-185 0 -301.5 117.5t-116.5 302.5q0 184 137 296q128 104 316 104q236 0 359 -236q97 -187 97 -447zM947 863q-6 116 -83 220 q-84 116 -194 116q-116 0 -200 -61q-93 -68 -93 -180q0 -110 77 -187.5t187 -77.5q86 0 174.5 48.5t131.5 121.5z"/>
<glyph glyph-name="colon" unicode=":" horiz-adv-x="560" d="M384 588h-208v198h208v-198zM384 0h-208v198h208v-198z"/>
<glyph glyph-name="semicolon" unicode=";" horiz-adv-x="560" d="M384 588h-208v198h208v-198zM384 15q0 -11 -6 -20l-172 -257l-53 37l147 225h-124v198h208v-183z"/>
<glyph glyph-name="less" unicode="<" horiz-adv-x="1496" d="M1261 250l-32 -137l-1016 487v104l1016 484l32 -134l-847 -402z"/>
<glyph glyph-name="equal" unicode="=" horiz-adv-x="1282" d="M949 762h-617v143h617v-143zM949 372h-617v143h617v-143z"/>
<glyph glyph-name="greater" unicode=">" horiz-adv-x="1496" d="M1283 600l-1016 -487l-32 137l847 402l-847 402l32 134l1016 -484v-104z"/>
<glyph glyph-name="question" unicode="?" horiz-adv-x="1212" d="M1008 1137q0 -118 -59 -201q-40 -54 -135 -123q-107 -77 -143 -121q-61 -73 -61 -175v-117h-146v117q0 143 59 233q39 60 129 119q110 73 140 105q57 64 57 164q0 86 -74 142q-67 51 -153 51q-121 0 -196 -68.5t-78 -187.5h-144q4 177 121.5 288.5t296.5 111.5 q150 0 265 -94q121 -99 121 -244zM630 0h-185v175h185v-175z"/>
<glyph glyph-name="at" unicode="@" horiz-adv-x="2028" d="M1818 663q0 -198 -66 -361q-88 -216 -257 -216q-92 0 -160 55q-50 39 -110 132q-110 -102 -277 -102q-182 0 -278 145q-82 123 -82 315q0 187 112 314q117 133 301 133q113 0 222 -66v80h159v-720q0 -62 27 -104q32 -49 91 -49q98 0 147 180q33 123 33 258 q0 323 -158 516q-171 210 -487 210q-290 0 -488 -221q-193 -216 -193 -517q0 -319 176 -523q186 -216 500 -216q185 0 340 46v-142q-154 -36 -341 -36q-369 0 -598 255q-220 245 -220 618q0 359 230 611q238 260 593 260q372 0 584 -245q200 -232 200 -610zM1221 408v468 q-103 54 -201 54q-261 0 -261 -296q0 -308 228 -308q138 0 234 82z"/>
<glyph glyph-name="bracketleft" unicode="[" horiz-adv-x="924" d="M747 -292h-518v1863h518v-144h-373v-1574h373v-145z"/>
<glyph glyph-name="backslash" unicode="\" horiz-adv-x="1282" d="M1114 -21l-115 -73l-827 1320l115 75z"/>
<glyph glyph-name="bracketright" unicode="]" horiz-adv-x="924" d="M691 -292h-514v145h369v1574h-369v144h514v-1863z"/>
<glyph glyph-name="asciicircum" unicode="^" horiz-adv-x="1176" d="M929 1294l-70 -83l-271 226l-271 -226l-70 83l341 278z"/>
<glyph glyph-name="underscore" unicode="_" horiz-adv-x="1112" d="M1116 -308h-1120v136h1120v-136z"/>
<glyph glyph-name="braceleft" unicode="{" horiz-adv-x="1148" d="M1017 -292h-116q-262 0 -338 109q-58 84 -58 358q0 200 -86 293q-89 97 -287 98v148q198 1 287 98q86 93 86 293q0 274 58 358q76 108 338 108h116v-128h-76q-174 0 -230 -50q-60 -54 -60 -225q0 -238 -44 -328q-58 -120 -260 -200q174 -69 236.5 -160.5t62.5 -279.5 q0 -224 20 -269q42 -95 232 -95h119v-128z"/>
<glyph glyph-name="bar" unicode="|" horiz-adv-x="783" d="M459 -364h-136v1916h136v-1916z"/>
<glyph glyph-name="braceright" unicode="}" horiz-adv-x="1148" d="M1017 566q-198 0 -288 -98q-85 -93 -85 -293q0 -274 -59 -358q-76 -109 -337 -109h-116v128h119q184 0 227 99q20 46 20 268q0 184 66 278q64 91 238 159q-201 79 -260 199q-44 91 -44 328q0 172 -61 226q-55 50 -229 50h-76v128h116q261 0 337 -109q59 -83 59 -357 q0 -200 85 -293q90 -98 288 -98v-148z"/>
<glyph glyph-name="asciitilde" unicode="~" horiz-adv-x="1496" d="M1342 870q0 -225 -51 -325q-72 -141 -270 -141q-184 0 -309 184q-76 112 -90 128q-61 66 -135 66q-176 0 -188 -272q-1 -7 -3 -103h-135v45q0 225 51 325q72 141 270 141q126 0 214 -77q43 -38 142 -176q89 -125 178 -125q176 0 188 272q1 7 3 103h135v-45z"/>
<glyph glyph-name="ellipsis" unicode="…" horiz-adv-x="1812" d="M1623 0h-209v198h209v-198zM1010 0h-209v198h209v-198zM397 0h-209v198h209v-198z"/>
<glyph glyph-name="endash" unicode="–" horiz-adv-x="1112" d="M1116 732h-1120v136h1120v-136z"/>
<glyph glyph-name="emdash" unicode="—" horiz-adv-x="1816" d="M1820 717h-1824v160h1824v-160z"/>
<glyph glyph-name="quoteleft" unicode="‘" horiz-adv-x="640" d="M445 1659l-180 -275h162v-192h-245v189q0 23 21 54l176 261z"/>
<glyph glyph-name="quoteright" unicode="’" horiz-adv-x="638" d="M427 1314q0 -8 -7 -20l-172 -298l-63 38l152 264h-153v192h243v-176z"/>
<glyph glyph-name="divide" unicode="÷" horiz-adv-x="1282" d="M734 803h-185v176h185v-176zM1027 502h-772v117h772v-117zM734 142h-185v176h185v-176z"/>
<glyph glyph-name="minus" unicode="−" horiz-adv-x="1282" d="M1027 502h-772v117h772v-117z"/>
<glyph glyph-name="multiply" unicode="×" horiz-adv-x="1282" d="M971 311l-80 -80l-248 248l-248 -248l-80 80l248 248l-251 251l80 80l248 -248l248 248l80 -80l-248 -248z"/>
<glyph glyph-name="uni0A02" unicode="ਂ" d="M-153 1565q0 -42 -29.5 -71.5t-71.5 -29.5t-71.5 29.5t-29.5 71.5t29.5 71.5t71.5 29.5t71.5 -29.5t29.5 -71.5z"/>
<glyph glyph-name="uni0A05" unicode="ਅ" horiz-adv-x="1496" d="M1566 1176h-230v-1176h-160v488q-55 8 -98 8q-83 0 -139 -11q-25 -254 -146 -254q-111 0 -111 145q0 68 28 131.5t80 127.5q-10 103 -55 218q-42 109 -99 185q-109 -95 -211 -270q7 -51 7 -100q0 -209 -131 -209q-52 0 -85.5 35.5t-33.5 96.5q0 54 19.5 111.5t64.5 124.5 l-78 232q-45 114 -123 117h-65v144h106q120 -12 162.5 -104.5t105.5 -259.5l108 136q80 95 153 138q141 -58 232 -269q70 -162 83 -328q44 6 128 6q72 0 98 -3v684h390v-144z"/>
<glyph glyph-name="uni0A06" unicode="ਆ" horiz-adv-x="1972" d="M1566 1176h-230v-1176h-160v488q-55 8 -98 8q-83 0 -139 -11q-25 -254 -146 -254q-111 0 -111 145q0 68 28 131.5t80 127.5q-10 103 -55 218q-42 109 -99 185q-109 -95 -211 -270q7 -51 7 -100q0 -209 -131 -209q-52 0 -85.5 35.5t-33.5 96.5q0 54 19.5 111.5t64.5 124.5 l-78 232q-45 114 -123 117h-65v144h106q120 -12 162.5 -104.5t105.5 -259.5l108 136q80 95 153 138q141 -58 232 -269q70 -162 83 -328q44 6 128 6q72 0 98 -3v684h390v-144zM2078 1176h-296v-566h-170v566h-116v144h582v-144z"/>
<glyph glyph-name="uni0A07" unicode="ਇ" horiz-adv-x="1642" d="M1034 1487h-160q-12 83 -78 135q-61 47 -134 47q-138 0 -211 -129q-55 -98 -55 -220h186v-144h-186v-1176h-170v1176h-226v144h226q0 186 91 328q125 181 345 181q140 0 252.5 -105t119.5 -237zM1713 1176h-240v-587h-389q-100 0 -205 -65q-93 -58 -146 -135 q212 -229 412 -229q155 0 229 15.5t221 77.5q-61 -137 -172 -197q-105 -56 -278 -56q-287 0 -605 374q57 101 106 152q56 60 165 124q-41 25 -77 64q-116 124 -121 462h-158v144h1258v-144zM1312 752v424h-540q0 -184 34 -279q53 -145 193 -145h313z"/>
<glyph glyph-name="uni0A08" unicode="ਈ" horiz-adv-x="1642" d="M1258 1176h-240v-587h-389q-100 0 -205 -65q-93 -58 -146 -135q212 -229 412 -229q155 0 229 15.5t221 77.5q-61 -137 -172 -197q-105 -56 -278 -56q-287 0 -605 374q57 101 106 152q56 60 165 124q-41 25 -77 64q-116 124 -121 462h-158v144h1258v-144zM857 752v424 h-540q0 -184 34 -279q53 -145 193 -145h313zM1712 1176h-296v-1176h-170v1176h-116v144h116q-12 349 -241 349q-73 0 -134 -47q-66 -52 -78 -135h-160q7 132 119.5 237t252.5 105q218 0 327 -181q82 -136 84 -328h296v-144z"/>
<glyph glyph-name="uni0A09" unicode="ਉ" horiz-adv-x="1416" d="M1486 1176h-163v-95q0 -304 -279 -468q68 -68 94 -124q30 -63 30 -152q0 -181 -152 -267q-123 -70 -307 -70q-342 0 -497 398q-110 275 -110 681q0 57 3 97h-105v144h133q59 215 213 339q164 131 404 131q193 0 354 -136q157 -134 209 -334h173v-144zM1151 1320 q-47 137 -174 226q-121 86 -252 86q-139 0 -260 -92q-115 -87 -171 -220h857zM1161 1081v95h-894q-5 -73 -5 -164q0 -163 23 -283h562q110 0 214 122q100 118 100 230zM1018 337q0 121 -117 188q-98 57 -228 57h-368q46 -160 142 -273q117 -149 262 -149q309 0 309 177z M1167 -255q-196 -147 -459 -147q-262 0 -459 147q46 65 96 128q60 -42 159 -76q112 -39 204 -39q91 0 212 43q103 36 151 72q50 -63 96 -128z"/>
<glyph glyph-name="uni0A0A" unicode="ਊ" horiz-adv-x="1416" d="M1486 1176h-163v-95q0 -304 -279 -468q68 -68 94 -124q30 -63 30 -152q0 -181 -152 -267q-123 -70 -307 -70q-342 0 -497 398q-110 275 -110 681q0 57 3 97h-105v144h133q59 215 213 339q164 131 404 131q193 0 354 -136q157 -134 209 -334h173v-144zM1151 1320 q-47 137 -174 226q-121 86 -252 86q-139 0 -260 -92q-115 -87 -171 -220h857zM1161 1081v95h-894q-5 -73 -5 -164q0 -163 23 -283h562q110 0 214 122q100 118 100 230zM1018 337q0 121 -117 188q-98 57 -228 57h-368q46 -160 142 -273q117 -149 262 -149q309 0 309 177z M1160 -255q-196 -147 -459 -147q-262 0 -459 147q46 65 96 128q60 -42 159 -76q112 -39 204 -39q91 0 212 43q103 36 151 72q50 -63 96 -128zM1160 -565q-196 -147 -459 -147q-262 0 -459 147q46 65 96 128q60 -42 159 -76q112 -39 204 -39q91 0 212 43q103 36 151 72 q50 -63 96 -128z"/>
<glyph glyph-name="uni0A0F" unicode="ਏ" horiz-adv-x="1188" d="M1258 1176h-240v-587h-389q-100 0 -205 -65q-93 -58 -146 -135q212 -229 412 -229q155 0 229 15.5t221 77.5q-61 -137 -172 -197q-105 -56 -278 -56q-287 0 -605 374q57 101 106 152q56 60 165 124q-41 25 -77 64q-116 124 -121 462h-158v144h1258v-144zM857 752v424 h-540q0 -184 34 -279q53 -145 193 -145h313zM1026 1308h-161l-53.5 89t-72 94t-96 74t-124.5 30q-14 0 -31.5 -1.5t-34 -4t-30 -5t-20.5 -4.5v160l44 10t64 5q71 0 130.5 -19t109.5 -51t90.5 -75t73.5 -91t59 -98.5t46 -98.5z"/>
<glyph glyph-name="uni0A10" unicode="ਐ" horiz-adv-x="1496" d="M1566 1176h-230v-1176h-160v488q-55 8 -98 8q-83 0 -139 -11q-25 -254 -146 -254q-111 0 -111 145q0 68 28 131.5t80 127.5q-10 103 -55 218q-42 109 -99 185q-109 -95 -211 -270q7 -51 7 -100q0 -209 -131 -209q-52 0 -85.5 35.5t-33.5 96.5q0 54 19.5 111.5t64.5 124.5 l-78 232q-45 114 -123 117h-65v144h106q120 -12 162.5 -104.5t105.5 -259.5l108 136q80 95 153 138q141 -58 232 -269q70 -162 83 -328q44 6 128 6q72 0 98 -3v684h390v-144zM1366 1293h-160q-23 38 -54 76t-75 68t-105 49t-143 19q-14 0 -31.5 -1.5t-34 -4t-30 -5 t-20.5 -4.5v160l44 10t64 5q91 0 163.5 -17.5t132.5 -49.5q-21 41 -47.5 78t-58.5 64.5t-70.5 43.5t-84.5 16q-57 0 -90 -10t-53 -23v146q17 13 54.5 24.5t94.5 11.5q84 0 149.5 -28.5t115.5 -77t87.5 -113.5t65.5 -137.5t48.5 -149.5t37.5 -150z"/>
<glyph glyph-name="uni0A13" unicode="ਓ" horiz-adv-x="1416" d="M1486 1176h-163v-95q0 -304 -279 -468q68 -68 94 -124q30 -63 30 -152q0 -170 -152 -256q-123 -70 -307 -70q-342 0 -497 387q-110 275 -110 681q0 57 3 97h-105v144h133q59 215 213 339q164 131 404 131q184 0 331 -85q132 -77 177 -186h-206q-79 113 -327 113 q-139 0 -260 -92q-115 -87 -171 -220h1192v-144zM1161 1081v95h-894q-5 -73 -5 -164q0 -163 23 -283h562q110 0 214 122q100 118 100 230zM1018 337q0 121 -117 188q-98 57 -228 57h-368q46 -160 142 -273q117 -138 262 -138q309 0 309 166z"/>
<glyph glyph-name="uni0A14" unicode="ਔ" horiz-adv-x="1496" d="M1566 1176h-230v-1176h-160v488q-55 8 -98 8q-83 0 -139 -11q-25 -254 -146 -254q-111 0 -111 145q0 68 28 131.5t80 127.5q-10 103 -55 218q-42 109 -99 185q-109 -95 -211 -270q7 -51 7 -100q0 -209 -131 -209q-52 0 -85.5 35.5t-33.5 96.5q0 54 19.5 111.5t64.5 124.5 l-78 232q-45 114 -123 117h-65v144h106q120 -12 162.5 -104.5t105.5 -259.5l108 136q80 95 153 138q141 -58 232 -269q70 -162 83 -328q44 6 128 6q72 0 98 -3v684h390v-144zM1554 1369h-158q0 95 -40 151q-37 53 -96 53q-56 0 -102 -52q-52 -59 -52 -153h-160 q0 193 158 304q-130 33 -188 75q-84 62 -84 175h160q0 -89 146 -132q218 -66 270 -101q146 -98 146 -320z"/>
<glyph glyph-name="uni0A15" unicode="ਕ" horiz-adv-x="1360" d="M1430 1176h-230q0 -399 -115 -614q115 -209 115 -562h-160q0 291 -63 414q-180 -184 -490 -184q-166 0 -278 91q-119 97 -119 260q0 155 118 249q109 88 267 88q319 0 503 -208q62 160 62 466h-1040v144h1430v-144zM893 560q-155 199 -418 199q-87 0 -152 -45 q-74 -50 -74 -133q0 -95 74 -146q65 -45 164 -45q242 0 406 170z"/>
<glyph glyph-name="uni0A16" unicode="ਖ" horiz-adv-x="1320" d="M1390 1176h-230v-1176h-160v389q-156 -88 -365 -88q-339 0 -538 205q150 207 150 377q0 178 -56 293h-191v144h299q104 -215 108 -405h593v405h390v-144zM1000 580v191h-600q-16 -112 -95 -224q110 -86 330 -86q233 0 365 119z"/>
<glyph glyph-name="uni0A17" unicode="ਗ" horiz-adv-x="1476" d="M1546 1176h-230v-1176h-160v1176h-292v-849q0 -327 -243 -327q-174 0 -367 208q-186 200 -186 358q0 148 97 196q52 25 173 25h366v389h-704v144h1546v-144zM704 337v290h-326q-75 0 -96 -5q-55 -11 -55 -56q0 -113 142 -260t252 -147q83 0 83 178z"/>
<glyph glyph-name="uni0A18" unicode="ਘ" horiz-adv-x="1444" d="M1514 1176h-230v-1176h-160v360q-43 -10 -135 -10q-211 0 -301 143q-96 -77 -219 -77q-93 0 -196 60q-114 66 -163 167l90 122q53 90 53 219q0 91 -57 192h-196v144h254q83 -88 116 -151q43 -81 43 -185q0 -203 -118 -337q72 -72 174 -72q121 0 175 90q-22 122 -32 358 q7 210 55 258q29 39 64 39q48 0 75 -58q26 -49 26 -115q0 -244 -62 -497q45 -140 219 -140q83 0 135 13v797h390v-144z"/>
<glyph glyph-name="uni0A19" unicode="ਙ" horiz-adv-x="1260" d="M1330 1176h-1060v-196h455q199 0 315 -79q138 -93 138 -285q0 -261 -289 -406l89 -109l-124 -101l-125 153q-175 -55 -295 -55t-218 60q-114 70 -114 183q0 224 273 224q192 0 403 -227q240 107 240 278q0 205 -293 205h-615v355h-110v144h1330v-144zM608 284 q-145 141 -233 141q-123 0 -123 -94q0 -39 66 -59q46 -14 97 -14q93 0 193 26z"/>
<glyph glyph-name="uni0A1A" unicode="ਚ" horiz-adv-x="1436" d="M1506 1176h-230v-715q0 -461 -533 -461q-190 0 -319 110q-145 123 -145 337v215q-192 3 -192 108q0 69 83 133q73 56 126 56q82 0 120 -144h700v361h-1116v144h1506v-144zM1116 456v200h-675v-222q0 -149 103 -219q79 -55 199 -55q373 0 373 296z"/>
<glyph glyph-name="uni0A1B" unicode="ਛ" horiz-adv-x="1376" d="M1446 1176h-230v-371h-655q-129 0 -183 -15q-106 -30 -106 -85q0 -93 218 -93h471q133 0 220 -79q90 -82 90 -214q0 -205 -242 -277q-139 -42 -409 -42h-55q-171 0 -297 63q-160 81 -160 234q0 140 100 220q-95 62 -95 178q0 158 159 226q101 43 330 43h451v212h-1053 v144h1446v-144zM1112 320q0 63 -39 99.5t-102 36.5h-278q62 -91 62 -222q0 -36 -5 -75q154 10 219 28q143 39 143 133zM595 237q0 79 -32 132q-38 65 -111 65q-69 0 -122 -34q-62 -38 -62 -103q0 -76 125 -112q86 -25 194 -25q8 36 8 77z"/>
<glyph glyph-name="uni0A1C" unicode="ਜ" horiz-adv-x="1408" d="M1478 1176h-230v-1176h-159v546h-655v-546h-160v547q-174 16 -174 112q0 58 76 124.5t135 66.5q82 0 110 -134h668v460h-1089v144h1478v-144z"/>
<glyph glyph-name="uni0A1D" unicode="ਝ" horiz-adv-x="1408" d="M1478 1176h-163q-91 -297 -301 -434q186 -74 186 -310q0 -118 -103 -215q-86 -80 -212 -123l94 -154h-171l-79 116q-64 -9 -146 -9q-138 0 -225 52q-107 64 -107 192q0 97 66 157q63 58 161 58q101 0 194 -92q56 -54 136 -177q87 20 150 64q83 57 83 131q0 200 -313 200 h-516v159h189q-156 129 -194 385h-207v144h1478v-144zM1146 1176h-777q45 -200 147.5 -292.5t217.5 -92.5q135 0 283 141q105 121 129 244zM638 209q-92 137 -160 137q-67 0 -67 -55q0 -84 166 -84q32 0 61 2z"/>
<glyph glyph-name="uni0A1E" unicode="ਞ" horiz-adv-x="1408" d="M1478 1176h-230v-460h-858q-139 0 -139 -99q0 -54 48 -86q41 -27 98 -27h851v-171h-614q-23 -44 -23 -104q0 -69 361 -69h276v-160h-362q-190 0 -288 42q-147 62 -147 184q0 57 25 117q-385 0 -385 272q0 219 262 261q-95 132 -102 300h-251v144h1478v-144zM1088 876v300 h-677q4 -90 51 -161q43 -94 97 -139h529z"/>
<glyph glyph-name="uni0A1F" unicode="ਟ" horiz-adv-x="1376" d="M1446 1176h-230v-400h-104q-292 0 -442 -39q-226 -58 -369 -232q78 -158 204 -249q136 -98 303 -98q218 0 455 58v-12q0 -95 -182 -157q-144 -49 -273 -49q-248 0 -429 136q-176 133 -258 370q186 431 935 431v241h-1056v144h1446v-144z"/>
<glyph glyph-name="uni0A20" unicode="ਠ" horiz-adv-x="1408" d="M1478 1176h-698v-227q473 -181 473 -483q0 -199 -179 -337q-166 -129 -374 -129t-374 129q-179 138 -179 337q0 302 472 483v227h-619v144h1478v-144zM1093 466q0 116 -140 214q-106 74 -261 121q-150 -46 -253 -121q-132 -98 -132 -214q0 -130 133 -224q121 -85 259 -85 q139 0 260 85q134 94 134 224z"/>
<glyph glyph-name="uni0A21" unicode="ਡ" horiz-adv-x="1376" d="M1446 1176h-230q-7 -350 -225 -481q107 -78 147 -157q34 -67 34 -170q0 -192 -204 -294q-161 -80 -370 -80q-189 0 -321 56q-179 77 -179 237q0 103 104 154q80 40 191 40q134 0 255.5 -81t175.5 -211q69 23 123 70q66 58 66 122q0 141 -193 246q-160 -48 -346 -38 q-189 10 -183 117q6 125 251 125q174 0 297 -40q214 111 218 385h-1057v144h1446v-144zM668 159q-49 101 -125 142q-64 34 -169 34q-116 0 -116 -48q0 -133 340 -133q33 0 70 5z"/>
<glyph glyph-name="uni0A22" unicode="ਢ" horiz-adv-x="1376" d="M1446 1176h-230v-494h-839q18 -377 264 -481q102 134 174 194q103 86 210 86q102 0 165 -56q65 -59 65 -159q0 -137 -136 -204q-104 -52 -257 -52q-326 0 -478 156q-146 150 -180 499q-147 25 -147 113q0 58 64 124.5t127 66.5q76 0 119 -123h689v330h-1056v144h1446 v-144zM1095 268q0 53 -78 53q-81 0 -217 -169q41 -3 72 -3q223 0 223 119z"/>
<glyph glyph-name="uni0A23" unicode="ਣ" horiz-adv-x="1260" d="M1330 1176h-1003q38 -186 339 -249q205 -38 458 -38v-155h-40q-177 0 -272 20v-237q-143 37 -284 37q-88 0 -151 -47q-68 -52 -68 -138q0 -207 348 -207q112 0 285 52q145 43 167 43q11 0 11 -13q0 -117 -181 -187q-141 -55 -282 -55q-207 0 -342 78q-165 97 -165 289 q0 146 106 247q105 98 252 98q93 0 180 -15v87q-463 67 -524 390h-164v144h1330v-144z"/>
<glyph glyph-name="uni0A24" unicode="ਤ" horiz-adv-x="1376" d="M1446 1176h-230q-7 -350 -225 -481q181 -119 181 -337q0 -199 -189 -292q-144 -72 -365 -72q-153 0 -317 64q-207 81 -207 209q0 28 26 28q-3 0 189 -70.5t309 -70.5q395 0 395 217q0 143 -193 256q-133 -39 -285 -39q-244 0 -244 113q0 130 251 130q162 0 297 -40 q215 105 218 385h-1057v144h1446v-144z"/>
<glyph glyph-name="uni0A25" unicode="ਥ" horiz-adv-x="1376" d="M1446 1176h-230v-1176h-160v389q-137 -78 -415 -78q-137 0 -269 58q-139 60 -209 157l80 122q70 131 70 284q0 164 -66 244h-247v144h1446v-144zM1056 886v290h-622q40 -97 39 -290h583zM1056 580v162h-604q-25 -107 -91 -195q95 -76 280 -76q112 0 227 27q132 31 188 82 z"/>
<glyph glyph-name="uni0A26" unicode="ਦ" horiz-adv-x="1376" d="M1446 1176h-230v-494h-839q58 -499 425 -499q119 0 291 65t188 65q21 0 21 -26q0 -121 -191 -211q-163 -76 -311 -76q-273 0 -435 200q-145 181 -161 465q-72 11 -97 22q-50 23 -50 77q0 68 58.5 136.5t124.5 68.5q79 0 120 -123h696v330h-1056v144h1446v-144z"/>
<glyph glyph-name="uni0A27" unicode="ਧ" horiz-adv-x="1320" d="M1390 1176h-230v-1176h-160v389q-155 -88 -365 -88q-337 0 -538 215l102 143q78 133 78 263q0 135 -66 254h-211v144h1390v-144zM1000 580v596h-612q49 -139 49 -274q0 -167 -122 -355q97 -86 320 -86q101 0 203.5 32.5t161.5 86.5z"/>
<glyph glyph-name="uni0A28" unicode="ਨ" horiz-adv-x="1376" d="M1446 1176h-669v-229q209 -58 339 -159q169 -131 169 -315q0 -176 -102 -300q-97 -117 -270 -171l-47 152q259 80 259 319q0 93 -122 183q-92 68 -206 107q-69 24 -96 24t-96 -23q-115 -39 -210 -108q-125 -90 -125 -183q0 -239 259 -319l-47 -152q-173 54 -270 171 q-102 124 -102 300q0 180 170 313q132 104 337 161v229h-617v144h1446v-144z"/>
<glyph glyph-name="uni0A2A" unicode="ਪ" horiz-adv-x="1320" d="M1390 1176h-230v-1176h-160v389q-155 -88 -365 -88q-337 0 -538 215l102 143q78 133 78 263q0 135 -66 254h-211v144h329q108 -231 108 -418q0 -167 -122 -355q97 -86 320 -86q101 0 203.5 32.5t161.5 86.5v740h390v-144z"/>
<glyph glyph-name="uni0A2B" unicode="ਫ" horiz-adv-x="1260" d="M1330 1176h-230v-457h-600q-232 -13 -246 -137q0 -252 298 -391q102 134 174 194q103 86 210 86q102 0 165 -56q65 -59 65 -159q0 -137 -136 -204q-104 -52 -257 -52q-285 0 -476 164q-202 174 -202 418q0 151 107.5 224.5t297.5 73.5h440v296h-940v144h1330v-144z M1006 258q0 53 -78 53q-81 0 -217 -169q41 -3 72 -3q223 0 223 119z"/>
<glyph glyph-name="uni0A2C" unicode="ਬ" horiz-adv-x="1396" d="M1466 1176h-230v-1176h-160v236q-73 -25 -177.5 -37.5t-233.5 -12.5q-37 0 -85 4t-102 14t-110.5 25.5t-109.5 39.5t-99 56t-80 74q4 28 21.5 59.5t44.5 63.5t60.5 62.5t69 56.5t134.5 75q-55 27 -104.5 66.5t-91 95.5t-73.5 129.5t-53 168.5h-87v144h1466v-144z M1076 810v366h-825q36 -103 83.5 -169.5t106 -107.5t128 -60t149.5 -25.5t154 -5.5q105 2 204 2zM1076 422v218q-35 3 -115 3q-126 0 -233.5 -12t-190.5 -36.5t-140.5 -61t-82.5 -85.5q19 -15 52 -32.5t78 -33.5t101 -26.5t120 -10.5q130 0 228.5 20t182.5 57z"/>
<glyph glyph-name="uni0A2D" unicode="ਭ" horiz-adv-x="1260" d="M1330 1176h-218q0 -109 -30 -235q-34 -143 -90 -215q101 -128 101 -290q0 -204 -181 -317q-154 -96 -371 -96q-137 0 -271 63q-152 73 -196 188q-7 19 -7 49q0 23 7 23l106 -70q167 -94 361 -94q143 0 253 56q139 70 139 198q0 101 -57 180q-110 -79 -192 -106 q-86 -29 -218 -29q-116 0 -209 53q-110 64 -110 171q0 147 134 202q88 37 258 37q176 0 332 -106q32 52 57 164q23 102 24 174h-952v144h1330v-144zM763 714q-112 70 -235 70q-221 0 -221 -79q0 -28 67 -48q53 -16 92 -16q110 0 156 9q75 14 141 64z"/>
<glyph glyph-name="uni0A2E" unicode="ਮ" horiz-adv-x="1340" d="M1410 1176h-230v-1176h-160v606h-495q1 -24 1 -70q0 -149 -53 -263q-68 -147 -200 -147q-59 0 -100 41t-41 99q0 86 58.5 197.5t159.5 238.5q0 163 -89 474h-261v144h384q81 -239 126 -554h510v554h390v-144z"/>
<glyph glyph-name="uni0A2F" unicode="ਯ" horiz-adv-x="1444" d="M1514 1176h-230v-1176h-160v608h-282v-362q-177 -51 -278 -51q-308 0 -466 324q130 167 130 335q0 185 -90 322h-138v144h1514v-144zM1124 768v408h-810q81 -178 81 -322q0 -134 -100 -333q77 -167 269 -167q65 0 120 27v387h440z"/>
<glyph glyph-name="uni0A30" unicode="ਰ" horiz-adv-x="1320" d="M1390 1176h-230v-779q0 -403 -340 -403q-238 0 -485 195q-244 192 -244 368q0 128 72 190q56 48 144 48h693v381h-1000v144h1390v-144zM1000 418v218h-598q-85 0 -110 -34q-12 -17 -12 -65q0 -93 179 -233q192 -150 361 -150q180 0 180 264z"/>
<glyph glyph-name="uni0A32" unicode="ਲ" horiz-adv-x="1444" d="M1514 1176h-389q-39 -215 -97 -335q147 -96 209 -166q96 -107 96 -240q0 -166 -152 -296q-125 -107 -307 -158l-42 154q122 34 214 95q126 83 126 179q0 104 -63 179q-46 55 -153 118q-79 -112 -242 -189q-163 77 -242 189q-107 -63 -153 -118q-63 -75 -63 -179 q0 -96 126 -179q92 -61 214 -95l-42 -154q-182 51 -307 158q-152 130 -152 296q0 133 96 240q62 70 209 166q-58 120 -97 335h-303v144h1514v-144zM965 1176h-502q24 -298 251 -492q227 194 251 492z"/>
<glyph glyph-name="uni0A33" unicode="ਲ਼" horiz-adv-x="1444" d="M1514 1176h-389q-39 -215 -97 -335q147 -96 209 -166q96 -107 96 -240q0 -166 -152 -296q-125 -107 -307 -158l-42 154q122 34 214 95q126 83 126 179q0 104 -63 179q-46 55 -153 118q-79 -112 -242 -189q-163 77 -242 189q-107 -63 -153 -118q-63 -75 -63 -179 q0 -96 126 -179q92 -61 214 -95l-42 -154q-182 51 -307 158q-152 130 -152 296q0 133 96 240q62 70 209 166q-58 120 -97 335h-303v144h1514v-144zM965 1176h-502q24 -298 251 -492q227 194 251 492zM284 -32q0 -43 -30.5 -73.5t-73.5 -30.5t-73.5 30.5t-30.5 73.5 t30.5 73.5t73.5 30.5t73.5 -30.5t30.5 -73.5z"/>
<glyph glyph-name="uni0A35" unicode="ਵ" horiz-adv-x="1260" d="M1330 1176h-230v-351h-635q-193 0 -193 -143q0 -139 267 -139h561v-156h-484q-3 -24 -6 -70q0 -95 217 -134q125 -23 273 -23v-160q-227 0 -391 50q-261 80 -261 268q0 51 4 69q-134 11 -229 84q-111 84 -111 216q0 309 387 309h441v180h-940v144h1330v-144z"/>
<glyph glyph-name="uni0A36" unicode="ਸ਼" horiz-adv-x="1340" d="M1410 1176h-230v-1176h-160v606h-495q1 -24 1 -70q0 -149 -53 -263q-68 -147 -200 -147q-59 0 -100 41t-41 99q0 86 58.5 197.5t159.5 238.5q0 163 -89 474h-261v144h1410v-144zM1020 766v410h-595q29 -125 85 -410h510zM783 40q0 -43 -30.5 -73.5t-73.5 -30.5 t-73.5 30.5t-30.5 73.5t30.5 73.5t73.5 30.5t73.5 -30.5t30.5 -73.5z"/>
<glyph glyph-name="uni0A38" unicode="ਸ" horiz-adv-x="1340" d="M1410 1176h-230v-1176h-160v606h-495q1 -24 1 -70q0 -149 -53 -263q-68 -147 -200 -147q-59 0 -100 41t-41 99q0 86 58.5 197.5t159.5 238.5q0 163 -89 474h-261v144h1410v-144zM1020 766v410h-595q29 -125 85 -410h510z"/>
<glyph glyph-name="uni0A39" unicode="ਹ" horiz-adv-x="1320" d="M1390 1176h-230v-779q0 -403 -340 -403q-238 0 -485 195q-244 192 -244 368q0 128 72 190q56 48 144 48h418v-159h-323q-85 0 -110 -34q-12 -17 -12 -65q0 -93 179 -233q192 -150 361 -150q180 0 180 264v758h-1000v144h1390v-144z"/>
<glyph glyph-name="uni0A3C" unicode="਼" d="M-86 -232q0 -43 -30.5 -73.5t-73.5 -30.5t-73.5 30.5t-30.5 73.5t30.5 73.5t73.5 30.5t73.5 -30.5t30.5 -73.5z"/>
<glyph glyph-name="uni0A3E" unicode="ਾ" horiz-adv-x="512" d="M582 1176h-296v-566h-170v566h-116v144h582v-144z"/>
<glyph glyph-name="uni0A3F" unicode="ਿ" horiz-adv-x="512" d="M1034 1487h-160q-12 83 -78 135q-61 47 -134 47q-138 0 -211 -129q-55 -98 -55 -220h186v-144h-186v-1176h-170v1176h-226v144h226q0 186 91 328q125 181 345 181q140 0 252.5 -105t119.5 -237z"/>
<glyph glyph-name="uni0A40" unicode="ੀ" horiz-adv-x="512" d="M582 1176h-296v-1176h-170v1176h-116v144h116q-12 349 -241 349q-73 0 -134 -47q-66 -52 -78 -135h-160q7 132 119.5 237t252.5 105q218 0 327 -181q82 -136 84 -328h296v-144z"/>
<glyph glyph-name="uni0A41" unicode="ੁ" d="M-199 -255q-196 -147 -459 -147q-262 0 -459 147q46 65 96 128q60 -42 159 -76q112 -39 204 -39q91 0 212 43q103 36 151 72q50 -63 96 -128z"/>
<glyph glyph-name="uni0A42" unicode="ੂ" d="M-199 -255q-196 -147 -459 -147q-262 0 -459 147q46 65 96 128q60 -42 159 -76q112 -39 204 -39q91 0 212 43q103 36 151 72q50 -63 96 -128zM-199 -565q-196 -147 -459 -147q-262 0 -459 147q46 65 96 128q60 -42 159 -76q112 -39 204 -39q91 0 212 43q103 36 151 72 q50 -63 96 -128z"/>
<glyph glyph-name="uni0A47" unicode="ੇ" d="M-154 1308h-161l-53.5 89t-72 94t-96 74t-124.5 30q-14 0 -31.5 -1.5t-34 -4t-30 -5t-20.5 -4.5v160l44 10t64 5q71 0 130.5 -19t109.5 -51t90.5 -75t73.5 -91t59 -98.5t46 -98.5z"/>
<glyph glyph-name="uni0A48" unicode="ੈ" d="M-154 1293h-160q-23 38 -54 76t-75 68t-105 49t-143 19q-14 0 -31.5 -1.5t-34 -4t-30 -5t-20.5 -4.5v160l44 10t64 5q91 0 163.5 -17.5t132.5 -49.5q-21 41 -47.5 78t-58.5 64.5t-70.5 43.5t-84.5 16q-57 0 -90 -10t-53 -23v146q17 13 54.5 24.5t94.5 11.5 q84 0 149.5 -28.5t115.5 -77t87.5 -113.5t65.5 -137.5t48.5 -149.5t37.5 -150z"/>
<glyph glyph-name="uni0A4B" unicode="ੋ" d="M-159 1298h-160q0 22 -6 49t-21 52.5t-42 47t-69 32.5q-32 8 -67 15.5t-72.5 16.5t-76.5 21t-77 30q-40 19 -76.5 50t-64 75.5t-44 103t-16.5 131.5h160q0 -39 10 -73.5t26.5 -62t37 -47.5t42.5 -30q50 -23 85.5 -35t66.5 -19t61.5 -12.5t70.5 -17.5q63 -18 107.5 -45.5 t72 -67t40 -92.5t12.5 -122z"/>
<glyph glyph-name="uni0A4C" unicode="ੌ" d="M54 1369h-158q0 95 -40 151q-37 53 -96 53q-56 0 -102 -52q-52 -59 -52 -153h-160q0 193 158 304q-130 33 -188 75q-84 62 -84 175h160q0 -89 146 -132q218 -66 270 -101q146 -98 146 -320z"/>
<glyph glyph-name="uni0A4D" unicode="੍" d="M94 -470l-126 -97l-296 415l129 92z"/>
<glyph glyph-name="uni0A59" unicode="ਖ਼" horiz-adv-x="1320" d="M1390 1176h-230v-1176h-160v389q-156 -88 -365 -88q-339 0 -538 205q150 207 150 377q0 178 -56 293h-191v144h299q104 -215 108 -405h593v405h390v-144zM1000 580v191h-600q-16 -112 -95 -224q110 -86 330 -86q233 0 365 119zM409 152q0 -43 -30.5 -73.5t-73.5 -30.5 t-73.5 30.5t-30.5 73.5t30.5 73.5t73.5 30.5t73.5 -30.5t30.5 -73.5z"/>
<glyph glyph-name="uni0A5A" unicode="ਗ਼" horiz-adv-x="1476" d="M1546 1176h-230v-1176h-160v1176h-292v-849q0 -327 -243 -327q-174 0 -367 208q-186 200 -186 358q0 148 97 196q52 25 173 25h366v389h-704v144h1546v-144zM704 337v290h-326q-75 0 -96 -5q-55 -11 -55 -56q0 -113 142 -260t252 -147q83 0 83 178zM278 -32 q0 -43 -30.5 -73.5t-73.5 -30.5t-73.5 30.5t-30.5 73.5t30.5 73.5t73.5 30.5t73.5 -30.5t30.5 -73.5z"/>
<glyph glyph-name="uni0A5B" unicode="ਜ਼" horiz-adv-x="1408" d="M1478 1176h-230v-1176h-159v546h-655v-546h-160v547q-174 16 -174 112q0 58 76 124.5t135 66.5q82 0 110 -134h668v460h-1089v144h1478v-144zM857 40q0 -43 -30.5 -73.5t-73.5 -30.5t-73.5 30.5t-30.5 73.5t30.5 73.5t73.5 30.5t73.5 -30.5t30.5 -73.5z"/>
<glyph glyph-name="uni0A5C" unicode="ੜ" horiz-adv-x="1376" d="M1446 1176h-230q-3 -143 -54 -228t-181 -163q141 -114 141 -267q0 -169 -123 -290l124 -145l-111 -101l-143 168q-99 -46 -242 -46q-25 0 -73 3t-71 3l71 -69l-111 -101l-336 356l111 101q79 -83 183 -113q73 -20 197 -20q166 0 265.5 71t99.5 196q0 60 -52 121 q-40 47 -91 75q-133 -39 -285 -39q-244 0 -244 113q0 130 251 130q156 0 297 -40q114 52 160 109q51 63 58 176h-1057v144h1446v-144z"/>
<glyph glyph-name="uni0A5E" unicode="ਫ਼" horiz-adv-x="1260" d="M1330 1176h-230v-457h-600q-232 -13 -246 -137q0 -252 298 -391q102 134 174 194q103 86 210 86q102 0 165 -56q65 -59 65 -159q0 -137 -136 -204q-104 -52 -257 -52q-285 0 -476 164q-202 174 -202 418q0 151 107.5 224.5t297.5 73.5h440v296h-940v144h1330v-144z M1006 258q0 53 -78 53q-81 0 -217 -169q41 -3 72 -3q223 0 223 119zM286 8q0 -43 -30.5 -73.5t-73.5 -30.5t-73.5 30.5t-30.5 73.5t30.5 73.5t73.5 30.5t73.5 -30.5t30.5 -73.5z"/>
<glyph glyph-name="uni0A66" unicode="੦" horiz-adv-x="1156" d="M1006 653q0 -174 -124 -293.5t-303 -119.5t-303 119.5t-124 293.5q0 187 120 301.5t307 114.5t307 -114.5t120 -301.5zM846 653q0 101 -62 184q-76 100 -205 100q-128 0 -204 -100q-63 -83 -63 -184q0 -118 73 -199q76 -85 194 -85q115 0 191 84t76 200z"/>
<glyph glyph-name="uni0A67" unicode="੧" horiz-adv-x="1156" d="M879 -60q-283 37 -277 321q10 286 10 514q-37 -8 -74 -8q-126 0 -204 77.5t-78 202.5q0 118 82 195q81 74 201 74q151 0 203 -137q33 -83 33 -265q0 -272 -10 -653q-3 -149 114 -162v-159zM617 935v37q0 184 -78 184q-123 0 -123 -109q0 -124 120 -124q33 0 81 12z"/>
<glyph glyph-name="uni0A68" unicode="੨" horiz-adv-x="1156" d="M1062 98l-40 -154q-121 17 -212 84q-25 18 -187 170q-108 -36 -219 -36q-217 0 -217 145q0 142 233 142q121 0 228 -69q107 56 169 151q66 99 66 217q0 164 -97.5 264t-260.5 100q-188 0 -331 -119l-101 124q114 87 209 121t223 34q229 0 373.5 -147t144.5 -377 q0 -303 -266 -476q92 -90 141 -121q59 -38 144 -53z"/>
<glyph glyph-name="uni0A69" unicode="੩" horiz-adv-x="1156" d="M1049 409q0 -233 -293 -298q65 -46 190 -80l-41 -154q-128 35 -207 82q-67 40 -155 127q-31 -1 -76 -1q-140 0 -205 18q-119 34 -119 135q0 120 170 120q109 0 288 -110q288 20 288 161q0 203 -310 203h-205v161h235q106 0 178 34q94 45 94 139q0 124 -130 165 q-73 23 -233 23q-168 0 -355 -71l-56 151q214 80 411 80q523 0 523 -348q0 -70 -43.5 -147.5t-103.5 -113.5q155 -119 155 -276z"/>
<glyph glyph-name="uni0A6A" unicode="੪" horiz-adv-x="1156" d="M1008 1320q-14 -111 -44.5 -208t-73 -180.5t-94.5 -154.5t-109 -132l95 -112t53 -69q73 -110 73 -215q0 -64 -27.5 -120t-73.5 -98t-105.5 -66.5t-123.5 -24.5t-123.5 24.5t-105.5 66.5t-73.5 98t-27.5 120q0 105 73 215q16 24 53 69l95 112q-57 61 -109.5 132t-95 154.5 t-73 180.5t-43.5 208h170q19 -102 44 -181t57 -143t72 -118.5t90 -107.5q49 51 87.5 100t69 110t55 142t45.5 198h170zM748 249q0 59 -56 139q-17 24 -111 132q-110 -128 -114 -132q-59 -80 -59 -139q0 -29 14.5 -56t38 -48t54 -33.5t63.5 -12.5t64 12.5t54.5 33.5t37.5 48 t14 56z"/>
<glyph glyph-name="uni0A6B" unicode="੫" horiz-adv-x="1156" d="M1067 0h-160v339q-123 -42 -347 -42q-154 0 -279 61q-148 72 -192 207l79 105q57 102 57 248q0 80 -32.5 191t-67.5 150h170q90 -172 90 -341q0 -205 -101 -357q34 -53 125 -81q73 -23 151 -23q87 0 194.5 17t152.5 39v746h160v-1259z"/>
<glyph glyph-name="uni0A6C" unicode="੬" horiz-adv-x="1156" d="M1030 67q-185 -67 -377 -67q-201 0 -344 76q-184 99 -184 295q0 165 160 257q-156 93 -156 270q0 168 135 260q108 74 281 88q-28 50 -28 119q0 107 78 169q75 60 196 60q17 0 52.5 -2t52.5 -2v-167q-17 0 -52 1.5t-53 1.5q-68 0 -85 -7q-29 -11 -29 -54q0 -71 104 -110 l136 -35l-35 -156q-117 26 -239 26q-147 0 -223 -25q-132 -43 -132 -167q0 -83 95 -138q92 -53 223 -53h236v-175h-203q-355 0 -355 -161q0 -106 133 -164q106 -47 236 -47q163 0 328 59z"/>
<glyph glyph-name="uni0A6D" unicode="੭" horiz-adv-x="1156" d="M964 924q0 -219 -207 -511q-153 -218 -375 -419l-112 113q188 171 336 371q199 269 199 446q0 95 -74 168q-77 75 -183 75q-82 0 -140 -53.5t-58 -123.5q0 -82 64 -189l-140 -78q-83 117 -83 267q0 142 95 237q99 100 262 100q177 0 296.5 -116t119.5 -287z"/>
<glyph glyph-name="uni0A6E" unicode="੮" horiz-adv-x="1156" d="M1113 111q-155 -111 -321 -111q-276 0 -434 281q-124 221 -124 569q0 82 -7 153q-184 9 -184 146q0 63 65.5 122.5t129.5 59.5q92 0 130 -168h701v-159h-679q3 -47 3 -154q0 -279 86 -455q114 -235 313 -235q101 0 222 77z"/>
<glyph glyph-name="uni0A6F" unicode="੯" horiz-adv-x="1156" d="M1113 111q-155 -111 -321 -111q-276 0 -434 281q-124 221 -124 569q0 82 -7 153q-184 9 -184 146q0 63 65.5 122.5t129.5 59.5q92 0 130 -168h437q-17 44 -17 99q0 145 93 202q72 44 226 44v-160q-68 0 -91 -6q-69 -17 -69 -80q0 -46 38 -74q35 -25 84 -25v-159h-679 q3 -47 3 -154q0 -279 86 -455q114 -235 313 -235q101 0 222 77z"/>
<glyph glyph-name="glyph127" horiz-adv-x="224" d="M282 1644q0 -52 -31 -104q-35 -58 -94 -87l-57 109q54 39 54 82q0 88 -99 88q-98 0 -98 -88q0 -43 54 -82l-58 -109q-59 29 -93 87q-31 52 -31 104q0 104 68 163q62 53 158 53q97 0 159 -53q68 -59 68 -163zM248 1176h-248v144h248v-144z"/>
<glyph glyph-name="uni0A71" horiz-adv-x="264" d="M474 1796q0 -142 -96 -239q-92 -93 -216 -93t-216 93q-96 97 -96 239h160q2 -173 152 -173t152 173h160zM288 1176h-288v144h288v-144z"/>
<glyph glyph-name="uni0A72" unicode="ੲ" horiz-adv-x="1188" d="M1258 1176h-240v-587h-389q-100 0 -205 -65q-93 -58 -146 -135q212 -229 412 -229q155 0 229 15.5t221 77.5q-61 -137 -172 -197q-105 -56 -278 -56q-287 0 -605 374q57 101 106 152q56 60 165 124q-41 25 -77 64q-116 124 -121 462h-158v144h1258v-144zM857 752v424 h-540q0 -184 34 -279q53 -145 193 -145h313z"/>
<glyph glyph-name="uni0A73" unicode="ੳ" horiz-adv-x="1416" d="M1486 1176h-163v-95q0 -304 -279 -468q68 -68 94 -124q30 -63 30 -152q0 -181 -152 -267q-123 -70 -307 -70q-342 0 -497 398q-110 275 -110 681q0 57 3 97h-105v144h133q59 215 213 339q164 131 404 131q193 0 354 -136q157 -134 209 -334h173v-144zM1151 1320 q-47 137 -174 226q-121 86 -252 86q-139 0 -260 -92q-115 -87 -171 -220h857zM1161 1081v95h-894q-5 -73 -5 -164q0 -163 23 -283h562q110 0 214 122q100 118 100 230zM1018 337q0 121 -117 188q-98 57 -228 57h-368q46 -160 142 -273q117 -149 262 -149q309 0 309 177z"/>
<glyph glyph-name="uni0A74" unicode="ੴ" horiz-adv-x="2659" d="M2576 1478l-138 -87q-61 137 -172 137q-67 0 -120.5 -37t-74.5 -100h-156q-48 117 -184 183q-118 58 -258 58t-261 -92q-115 -86 -170 -220h1029v-239q0 -303 -279 -468q69 -71 94 -123q30 -62 30 -153q0 -171 -152 -257q-123 -69 -307 -69q-342 0 -497 387 q-110 275 -110 681q0 311 166 505q177 206 482 206q139 0 274 -49q154 -57 225 -155q116 102 269 102q227 0 310 -210zM650 -60q-116 15 -190 95t-74 196q0 107 25 287q28 209 33 287q-36 -8 -74 -8q-125 0 -199 77.5t-74 202.5q0 118 77 193.5t196 75.5q151 0 204 -137 q33 -84 33 -265q0 -120 -30.5 -356.5t-30.5 -356.5q0 -122 104 -132v-159zM1909 1081v95h-894q-18 -261 18 -447h562q110 0 214 122q100 118 100 230zM1766 337q0 121 -117 188q-98 57 -228 57h-368q46 -160 142 -273q117 -138 262 -138q309 0 309 166zM448 965v54 q0 167 -78 167q-123 0 -123 -109q0 -124 120 -124q34 0 81 12z"/>
<glyph glyph-name="glyph128" horiz-adv-x="512" d="M582 1176h-296v-566h-170v566h-116v144h582v-144zM307 1565q0 -42 -29.5 -71.5t-71.5 -29.5t-71.5 29.5t-29.5 71.5t29.5 71.5t71.5 29.5t71.5 -29.5t29.5 -71.5z"/>
<glyph glyph-name="glyph129" horiz-adv-x="512" d="M582 1176h-296v-1176h-170v1176h-116v144h116q-12 349 -241 349q-73 0 -134 -47q-66 -52 -78 -135h-160q7 132 119.5 237t252.5 105q218 0 327 -181q82 -136 84 -328h296v-144zM471 1829q0 -42 -29.5 -71.5t-71.5 -29.5t-71.5 29.5t-29.5 71.5t29.5 71.5t71.5 29.5 t71.5 -29.5t29.5 -71.5z"/>
<glyph glyph-name="glyph130" d="M-154 1308h-161l-53.5 89t-72 94t-96 74t-124.5 30q-14 0 -31.5 -1.5t-34 -4t-30 -5t-20.5 -4.5v160l44 10t64 5q70 0 130 -19t109.5 -51t90.5 -75t74 -91t59 -98.5t46 -98.5zM17 1617q0 -21 -8 -39.5t-21.5 -32t-32 -21.5t-39.5 -8t-39.5 8t-32 21.5t-21.5 32t-8 39.5 t8 39.5t21.5 32t32 21.5t39.5 8t39.5 -8t32 -21.5t21.5 -32t8 -39.5z"/>
<glyph glyph-name="glyph131" d="M-154 1293h-160q-23 38 -54 76t-75 68t-105 49t-143 19q-14 0 -31.5 -1.5t-34 -4t-30 -5t-20.5 -4.5v160l44 10t64 5q91 0 163.5 -17.5t132.5 -49.5q-21 41 -47.5 78t-58.5 64.5t-70.5 43.5t-84.5 16q-57 0 -90 -10t-53 -23v146q17 13 54.5 24.5t94.5 11.5 q84 0 149.5 -28.5t115.5 -77t87.5 -113.5t65.5 -137.5t48.5 -149.5t37.5 -150zM37 1617q0 -21 -8 -39.5t-21.5 -32t-32 -21.5t-39.5 -8t-39.5 8t-32 21.5t-21.5 32t-8 39.5t8 39.5t21.5 32t32 21.5t39.5 8t39.5 -8t32 -21.5t21.5 -32t8 -39.5z"/>
<glyph glyph-name="glyph132" d="M37 1617q0 -21 -8 -39.5t-21.5 -32t-32 -21.5t-39.5 -8t-39.5 8t-32 21.5t-21.5 32t-8 39.5t8 39.5t21.5 32t32 21.5t39.5 8t39.5 -8t32 -21.5t21.5 -32t8 -39.5zM-159 1298h-160q0 22 -6 49t-21 52.5t-42 47t-69 32.5q-32 8 -67 15.5t-72.5 16.5t-76.5 21t-77 30 q-40 19 -76.5 50t-64 75.5t-44 103t-16.5 131.5h160q0 -39 10 -73.5t26.5 -62t37 -47.5t42.5 -30q50 -23 85.5 -35t66.5 -19t61.5 -12.5t70.5 -17.5q63 -18 107.5 -45.5t72 -67t40 -92.5t12.5 -122z"/>
<glyph glyph-name="glyph133" d="M160 1829q0 -42 -29.5 -71.5t-71.5 -29.5t-71.5 29.5t-29.5 71.5t29.5 71.5t71.5 29.5t71.5 -29.5t29.5 -71.5zM54 1369h-158q0 95 -40 151q-37 53 -96 53q-56 0 -102 -52q-52 -59 -52 -153h-160q0 193 158 304q-130 33 -188 75q-84 62 -84 175h160q0 -89 146 -132 q218 -66 270 -101q146 -98 146 -320z"/>
<glyph glyph-name="glyph135" horiz-adv-x="420" d="M700 1796q0 -142 -96 -239q-92 -93 -216 -93t-216 93q-96 97 -96 239h160q2 -173 152 -173t152 173h160zM444 1176h-444v144h444v-144zM54 1369h-158q0 95 -40 151q-37 53 -96 53q-56 0 -102 -52q-52 -59 -52 -153h-160q0 193 158 304q-130 33 -188 75q-84 62 -84 175 h160q0 -89 146 -132q218 -66 270 -101q146 -98 146 -320z"/>
<glyph glyph-name="uni0A70" unicode="ੰ" d="M282 1644q0 -52 -31 -104q-35 -58 -94 -87l-57 109q54 39 54 82q0 88 -99 88q-98 0 -98 -88q0 -43 54 -82l-58 -109q-59 29 -93 87q-31 52 -31 104q0 104 68 163q62 53 158 53q97 0 159 -53q68 -59 68 -163z"/>
<glyph glyph-name="glyph136" d="M45 -594l-81 -117l-222 167q-8 -13 -20 -29.5t-30 -31.5t-41.5 -25t-54.5 -10q-32 0 -59 16t-47 41t-31.5 54.5t-11.5 55.5q0 32 9.5 63t27.5 55t44 39t60 15q12 0 19.5 -0.5t14.5 -2.5t13.5 -5l17.5 -8q7 25 12.5 42.5t8.5 36.5t4.5 45.5t1.5 71.5v121h160v-121 q0 -53 -5 -98t-11.5 -82t-14 -65.5t-12.5 -49.5l108 -78z"/>
<glyph glyph-name="glyph137" d="M-160 -636q-173 7 -263.5 53.5t-90.5 134.5v31q-119 44 -119 168q0 96 56.5 143.5t160.5 47.5h96v58h160v-179h-243q-96 0 -96 -63q0 -17 4 -27.5t14 -17.5t28 -9.5t47 -2.5h246v-122h-202v-22q0 -40 62 -55q3 -1 16 -3t31.5 -4.5t42.5 -4.5t50 -2v-124z"/>
<glyph glyph-name="glyph138" d="M-160 -408q-20 -228 -212 -228q-100 0 -216 101q-119 104 -119 200q0 148 152 148h41v-124h-30q-38 0 -38 -38q0 -19 23.5 -45t54.5 -50t62.5 -41t47.5 -17q74 0 74 100v402h160v-408z"/>
<glyph glyph-name="glyph139" horiz-adv-x="1286" d="M1356 1176h-230v-1176h-160v622h-222v-189q0 -173 -29 -235q-47 -99 -200 -99q-213 0 -579 495l119 106q139 -184 204 -255q155 -166 256 -166q67 0 67 154v333h384v410h-966v144h1356v-144z"/>
<glyph glyph-name="glyph140" horiz-adv-x="1416" d="M1486 1176h-163v-95q0 -304 -279 -468q68 -68 94 -124q30 -63 30 -152q0 -181 -152 -267q-123 -70 -307 -70q-342 0 -497 398q-110 275 -110 681q0 57 3 97h-105v144h133q59 215 213 339q164 131 404 131q193 0 354 -136q157 -134 209 -334h173v-144zM1151 1320 q-47 137 -174 226q-121 86 -252 86q-139 0 -260 -92q-115 -87 -171 -220h857zM1161 1081v95h-894q-5 -73 -5 -164q0 -163 23 -283h562q110 0 214 122q100 118 100 230zM1018 337q0 121 -117 188q-98 57 -228 57h-368q46 -160 142 -273q117 -149 262 -149q309 0 309 177z M1169 -255q-196 -147 -459 -147q-262 0 -459 147q46 65 96 128q60 -42 159 -76q112 -39 204 -39q91 0 212 43q103 36 151 72q50 -63 96 -128zM1339 1829q0 -42 -29.5 -71.5t-71.5 -29.5t-71.5 29.5t-29.5 71.5t29.5 71.5t71.5 29.5t71.5 -29.5t29.5 -71.5z"/>
<glyph glyph-name="glyph141" horiz-adv-x="1416" d="M1486 1176h-163v-95q0 -304 -279 -468q68 -68 94 -124q30 -63 30 -152q0 -181 -152 -267q-123 -70 -307 -70q-342 0 -497 398q-110 275 -110 681q0 57 3 97h-105v144h133q59 215 213 339q164 131 404 131q193 0 354 -136q157 -134 209 -334h173v-144zM1151 1320 q-47 137 -174 226q-121 86 -252 86q-139 0 -260 -92q-115 -87 -171 -220h857zM1161 1081v95h-894q-5 -73 -5 -164q0 -163 23 -283h562q110 0 214 122q100 118 100 230zM1018 337q0 121 -117 188q-98 57 -228 57h-368q46 -160 142 -273q117 -149 262 -149q309 0 309 177z M1161 -255q-196 -147 -459 -147q-262 0 -459 147q46 65 96 128q60 -42 159 -76q112 -39 204 -39q91 0 212 43q103 36 151 72q50 -63 96 -128zM1161 -565q-196 -147 -459 -147q-262 0 -459 147q46 65 96 128q60 -42 159 -76q112 -39 204 -39q91 0 212 43q103 36 151 72 q50 -63 96 -128zM1339 1829q0 -42 -29.5 -71.5t-71.5 -29.5t-71.5 29.5t-29.5 71.5t29.5 71.5t71.5 29.5t71.5 -29.5t29.5 -71.5z"/>
<glyph glyph-name="glyph142" horiz-adv-x="1416" d="M1486 1176h-163v-95q0 -304 -279 -468q68 -68 94 -124q30 -63 30 -152q0 -170 -152 -256q-123 -70 -307 -70q-342 0 -497 387q-110 275 -110 681q0 57 3 97h-105v144h133q59 215 213 339q164 131 404 131q184 0 331 -85q132 -77 177 -186h-206q-79 113 -327 113 q-139 0 -260 -92q-115 -87 -171 -220h1192v-144zM1161 1081v95h-894q-5 -73 -5 -164q0 -163 23 -283h562q110 0 214 122q100 118 100 230zM1018 337q0 121 -117 188q-98 57 -228 57h-368q46 -160 142 -273q117 -138 262 -138q309 0 309 166zM1339 1829q0 -42 -29.5 -71.5 t-71.5 -29.5t-71.5 29.5t-29.5 71.5t29.5 71.5t71.5 29.5t71.5 -29.5t29.5 -71.5z"/>
<glyph glyph-name="glyph143" horiz-adv-x="1476" d="M1859 1763q0 -136 -69 -215q-74 -84 -212 -84q-137 0 -211 84q-70 79 -70 215h144q0 -155 137 -155t137 155h144zM1546 1176h-223v-95q0 -304 -279 -468q68 -68 94 -124q30 -63 30 -152q0 -170 -152 -256q-123 -70 -307 -70q-342 0 -497 387q-110 275 -110 681q0 57 3 97 h-105v144h133q59 215 213 339q164 131 404 131q193 0 354 -136q157 -134 209 -334h233v-144zM1171 -255q-195 -147 -459 -147q-262 0 -459 147q46 65 96 128q69 -48 174.5 -81.5t188.5 -33.5q78 0 190 35t173 80q50 -63 96 -128zM1151 1320q-47 137 -174 226 q-121 86 -252 86q-139 0 -260 -92q-115 -87 -171 -220h857zM1161 1081v95h-894q-5 -73 -5 -164q0 -163 23 -283h562q110 0 214 122q100 118 100 230zM1018 337q0 121 -117 188q-98 57 -228 57h-368q46 -160 142 -273q117 -138 262 -138q309 0 309 166z"/>
<glyph glyph-name="glyph144" horiz-adv-x="1476" d="M1859 1763q0 -136 -69 -215q-74 -84 -212 -84q-137 0 -211 84q-70 79 -70 215h144q0 -155 137 -155t137 155h144zM1546 1176h-223v-95q0 -304 -279 -468q68 -68 94 -124q30 -63 30 -152q0 -170 -152 -256q-123 -70 -307 -70q-342 0 -497 387q-110 275 -110 681q0 57 3 97 h-105v144h133q59 215 213 339q164 131 404 131q193 0 354 -136q157 -134 209 -334h233v-144zM1171 -255q-196 -147 -459 -147q-262 0 -459 147q46 65 96 128q60 -42 159 -76q112 -39 204 -39q91 0 212 43q103 36 151 72q50 -63 96 -128zM1171 -565q-196 -147 -459 -147 q-262 0 -459 147q46 65 96 128q60 -42 159 -76q112 -39 204 -39q91 0 212 43q103 36 151 72q50 -63 96 -128zM1151 1320q-47 137 -174 226q-121 86 -252 86q-139 0 -260 -92q-115 -87 -171 -220h857zM1161 1081v95h-894q-5 -73 -5 -164q0 -163 23 -283h562q110 0 214 122 q100 118 100 230zM1018 337q0 121 -117 188q-98 57 -228 57h-368q46 -160 142 -273q117 -138 262 -138q309 0 309 166z"/>
<glyph glyph-name="glyph146" horiz-adv-x="1476" d="M1859 1763q0 -136 -69 -215q-74 -84 -212 -84q-137 0 -211 84q-70 79 -70 215h144q0 -155 137 -155t137 155h144zM1546 1176h-223v-95q0 -304 -279 -468q68 -68 94 -124q30 -63 30 -152q0 -170 -152 -256q-123 -70 -307 -70q-342 0 -497 387q-110 275 -110 681q0 57 3 97 h-105v144h133q59 215 213 339q164 131 404 131q180 0 331 -105q129 -90 177 -206h-206q-107 153 -327 153q-139 0 -260 -92q-115 -87 -171 -220h1252v-144zM1161 1081v95h-894q-5 -73 -5 -164q0 -163 23 -283h562q110 0 214 122q100 118 100 230zM1018 337q0 121 -117 188 q-98 57 -228 57h-368q46 -160 142 -273q117 -138 262 -138q309 0 309 166z"/>
<glyph glyph-name="uni0964" unicode="।" horiz-adv-x="596" d="M418 -60h-160v1380h160v-1380z"/>
<glyph glyph-name="glyph147" horiz-adv-x="1360" d="M1430 1176h-230q0 -399 -115 -614q115 -209 115 -562h-160q0 291 -63 414q-180 -184 -490 -184q-166 0 -278 91q-119 97 -119 260q0 155 118 249q109 88 267 88q319 0 503 -208q62 160 62 466h-1040v144h1430v-144zM893 560q-155 199 -418 199q-87 0 -152 -45 q-74 -50 -74 -133q0 -95 74 -146q65 -45 164 -45q242 0 406 170zM279 68q0 -43 -30.5 -73.5t-73.5 -30.5t-73.5 30.5t-30.5 73.5t30.5 73.5t73.5 30.5t73.5 -30.5t30.5 -73.5z"/>
<glyph glyph-name="glyph148" horiz-adv-x="1444" d="M1514 1176h-230v-1176h-160v360q-43 -10 -135 -10q-211 0 -301 143q-96 -77 -219 -77q-93 0 -196 60q-114 66 -163 167l90 122q53 90 53 219q0 91 -57 192h-196v144h254q83 -88 116 -151q43 -81 43 -185q0 -203 -118 -337q72 -72 174 -72q121 0 175 90q-22 122 -32 358 q7 210 55 258q29 39 64 39q48 0 75 -58q26 -49 26 -115q0 -244 -62 -497q45 -140 219 -140q83 0 135 13v797h390v-144zM317 188q0 -43 -30.5 -73.5t-73.5 -30.5t-73.5 30.5t-30.5 73.5t30.5 73.5t73.5 30.5t73.5 -30.5t30.5 -73.5z"/>
<glyph glyph-name="glyph149" horiz-adv-x="1260" d="M1330 1176h-1060v-196h455q199 0 315 -79q138 -93 138 -285q0 -261 -289 -406l89 -109l-124 -101l-125 153q-175 -55 -295 -55t-218 60q-114 70 -114 183q0 224 273 224q192 0 403 -227q240 107 240 278q0 205 -293 205h-615v355h-110v144h1330v-144zM608 284 q-145 141 -233 141q-123 0 -123 -94q0 -39 66 -59q46 -14 97 -14q93 0 193 26zM272 -120q0 -43 -30.5 -73.5t-73.5 -30.5t-73.5 30.5t-30.5 73.5t30.5 73.5t73.5 30.5t73.5 -30.5t30.5 -73.5z"/>
<glyph glyph-name="glyph150" horiz-adv-x="1436" d="M1506 1176h-230v-715q0 -461 -533 -461q-190 0 -319 110q-145 123 -145 337v215q-192 3 -192 108q0 69 83 133q73 56 126 56q82 0 120 -144h700v361h-1116v144h1506v-144zM1116 456v200h-675v-222q0 -149 103 -219q79 -55 199 -55q373 0 373 296zM305 18 q0 -43 -30.5 -73.5t-73.5 -30.5t-73.5 30.5t-30.5 73.5t30.5 73.5t73.5 30.5t73.5 -30.5t30.5 -73.5z"/>
<glyph glyph-name="glyph151" horiz-adv-x="1376" d="M1446 1176h-230v-371h-655q-129 0 -183 -15q-106 -30 -106 -85q0 -93 218 -93h471q133 0 220 -79q90 -82 90 -214q0 -205 -242 -277q-139 -42 -409 -42h-55q-171 0 -297 63q-160 81 -160 234q0 140 100 220q-95 62 -95 178q0 158 159 226q101 43 330 43h451v212h-1053 v144h1446v-144zM1112 320q0 63 -39 99.5t-102 36.5h-278q62 -91 62 -222q0 -36 -5 -75q154 10 219 28q143 39 143 133zM595 237q0 79 -32 132q-38 65 -111 65q-69 0 -122 -34q-62 -38 -62 -103q0 -76 125 -112q86 -25 194 -25q8 36 8 77zM264 -182q0 -43 -30.5 -73.5 t-73.5 -30.5t-73.5 30.5t-30.5 73.5t30.5 73.5t73.5 30.5t73.5 -30.5t30.5 -73.5z"/>
<glyph glyph-name="glyph152" horiz-adv-x="1408" d="M1478 1176h-163q-91 -297 -301 -434q186 -74 186 -310q0 -118 -103 -215q-86 -80 -212 -123l94 -154h-171l-79 116q-64 -9 -146 -9q-138 0 -225 52q-107 64 -107 192q0 97 66 157q63 58 161 58q101 0 194 -92q56 -54 136 -177q87 20 150 64q83 57 83 131q0 200 -313 200 h-516v159h189q-156 129 -194 385h-207v144h1478v-144zM1146 1176h-777q45 -200 147.5 -292.5t217.5 -92.5q135 0 283 141q105 121 129 244zM638 209q-92 137 -160 137q-67 0 -67 -55q0 -84 166 -84q32 0 61 2zM274 -32q0 -43 -30.5 -73.5t-73.5 -30.5t-73.5 30.5t-30.5 73.5 t30.5 73.5t73.5 30.5t73.5 -30.5t30.5 -73.5z"/>
<glyph glyph-name="glyph153" horiz-adv-x="1408" d="M1478 1176h-230v-460h-858q-139 0 -139 -99q0 -54 48 -86q41 -27 98 -27h851v-171h-614q-23 -44 -23 -104q0 -69 361 -69h276v-160h-362q-190 0 -288 42q-147 62 -147 184q0 57 25 117q-385 0 -385 272q0 219 262 261q-95 132 -102 300h-251v144h1478v-144zM1088 876v300 h-677q4 -90 51 -161q43 -94 97 -139h529zM314 18q0 -43 -30.5 -73.5t-73.5 -30.5t-73.5 30.5t-30.5 73.5t30.5 73.5t73.5 30.5t73.5 -30.5t30.5 -73.5z"/>
<glyph glyph-name="glyph154" horiz-adv-x="1376" d="M1446 1176h-230v-400h-104q-292 0 -442 -39q-226 -58 -369 -232q78 -158 204 -249q136 -98 303 -98q218 0 455 58v-12q0 -95 -182 -157q-144 -49 -273 -49q-248 0 -429 136q-176 133 -258 370q186 431 935 431v241h-1056v144h1446v-144zM286 -32q0 -43 -30.5 -73.5 t-73.5 -30.5t-73.5 30.5t-30.5 73.5t30.5 73.5t73.5 30.5t73.5 -30.5t30.5 -73.5z"/>
<glyph glyph-name="glyph155" horiz-adv-x="1408" d="M1478 1176h-698v-227q473 -181 473 -483q0 -199 -179 -337q-166 -129 -374 -129t-374 129q-179 138 -179 337q0 302 472 483v227h-619v144h1478v-144zM1093 466q0 116 -140 214q-106 74 -261 121q-150 -46 -253 -121q-132 -98 -132 -214q0 -130 133 -224q121 -85 259 -85 q139 0 260 85q134 94 134 224zM264 -32q0 -43 -30.5 -73.5t-73.5 -30.5t-73.5 30.5t-30.5 73.5t30.5 73.5t73.5 30.5t73.5 -30.5t30.5 -73.5z"/>
<glyph glyph-name="glyph156" horiz-adv-x="1376" d="M1446 1176h-230v-494h-839q18 -377 264 -481q102 134 174 194q103 86 210 86q102 0 165 -56q65 -59 65 -159q0 -137 -136 -204q-104 -52 -257 -52q-326 0 -478 156q-146 150 -180 499q-147 25 -147 113q0 58 64 124.5t127 66.5q76 0 119 -123h689v330h-1056v144h1446 v-144zM1095 268q0 53 -78 53q-81 0 -217 -169q41 -3 72 -3q223 0 223 119zM306 18q0 -43 -30.5 -73.5t-73.5 -30.5t-73.5 30.5t-30.5 73.5t30.5 73.5t73.5 30.5t73.5 -30.5t30.5 -73.5z"/>
<glyph glyph-name="glyph157" horiz-adv-x="1260" d="M1330 1176h-1003q38 -186 339 -249q205 -38 458 -38v-155h-40q-177 0 -272 20v-237q-143 37 -284 37q-88 0 -151 -47q-68 -52 -68 -138q0 -207 348 -207q112 0 285 52q145 43 167 43q11 0 11 -13q0 -117 -181 -187q-141 -55 -282 -55q-207 0 -342 78q-165 97 -165 289 q0 146 106 247q105 98 252 98q93 0 180 -15v87q-463 67 -524 390h-164v144h1330v-144zM264 -82q0 -43 -30.5 -73.5t-73.5 -30.5t-73.5 30.5t-30.5 73.5t30.5 73.5t73.5 30.5t73.5 -30.5t30.5 -73.5z"/>
<glyph glyph-name="glyph158" horiz-adv-x="1376" d="M1446 1176h-230q-7 -350 -225 -481q181 -119 181 -337q0 -199 -189 -292q-144 -72 -365 -72q-153 0 -317 64q-207 81 -207 209q0 28 26 28q-3 0 189 -70.5t309 -70.5q395 0 395 217q0 143 -193 256q-133 -39 -285 -39q-244 0 -244 113q0 130 251 130q162 0 297 -40 q215 105 218 385h-1057v144h1446v-144zM264 -132q0 -43 -30.5 -73.5t-73.5 -30.5t-73.5 30.5t-30.5 73.5t30.5 73.5t73.5 30.5t73.5 -30.5t30.5 -73.5z"/>
<glyph glyph-name="glyph159" horiz-adv-x="1376" d="M1446 1176h-230v-1176h-160v389q-137 -78 -415 -78q-137 0 -269 58q-139 60 -209 157l80 122q70 131 70 284q0 164 -66 244h-247v144h1446v-144zM1056 886v290h-622q40 -97 39 -290h583zM1056 580v162h-604q-25 -107 -91 -195q95 -76 280 -76q112 0 227 27q132 31 188 82 zM409 152q0 -43 -30.5 -73.5t-73.5 -30.5t-73.5 30.5t-30.5 73.5t30.5 73.5t73.5 30.5t73.5 -30.5t30.5 -73.5z"/>
<glyph glyph-name="glyph160" horiz-adv-x="1376" d="M1446 1176h-230v-494h-839q58 -499 425 -499q119 0 291 65t188 65q21 0 21 -26q0 -121 -191 -211q-163 -76 -311 -76q-273 0 -435 200q-145 181 -161 465q-72 11 -97 22q-50 23 -50 77q0 68 58.5 136.5t124.5 68.5q79 0 120 -123h696v330h-1056v144h1446v-144zM314 18 q0 -43 -30.5 -73.5t-73.5 -30.5t-73.5 30.5t-30.5 73.5t30.5 73.5t73.5 30.5t73.5 -30.5t30.5 -73.5z"/>
<glyph glyph-name="glyph161" horiz-adv-x="1320" d="M1390 1176h-230v-1176h-160v389q-155 -88 -365 -88q-337 0 -538 215l102 143q78 133 78 263q0 135 -66 254h-211v144h1390v-144zM1000 580v596h-612q49 -139 49 -274q0 -167 -122 -355q97 -86 320 -86q101 0 203.5 32.5t161.5 86.5zM409 152q0 -43 -30.5 -73.5 t-73.5 -30.5t-73.5 30.5t-30.5 73.5t30.5 73.5t73.5 30.5t73.5 -30.5t30.5 -73.5z"/>
<glyph glyph-name="glyph162" horiz-adv-x="1376" d="M1446 1176h-669v-229q209 -58 339 -159q169 -131 169 -315q0 -176 -102 -300q-97 -117 -270 -171l-47 152q259 80 259 319q0 93 -122 183q-92 68 -206 107q-69 24 -96 24t-96 -23q-115 -39 -210 -108q-125 -90 -125 -183q0 -239 259 -319l-47 -152q-173 54 -270 171 q-102 124 -102 300q0 180 170 313q132 104 337 161v229h-617v144h1446v-144zM269 -32q0 -43 -30.5 -73.5t-73.5 -30.5t-73.5 30.5t-30.5 73.5t30.5 73.5t73.5 30.5t73.5 -30.5t30.5 -73.5z"/>
<glyph glyph-name="glyph163" horiz-adv-x="1320" d="M1390 1176h-230v-1176h-160v389q-155 -88 -365 -88q-337 0 -538 215l102 143q78 133 78 263q0 135 -66 254h-211v144h329q108 -231 108 -418q0 -167 -122 -355q97 -86 320 -86q101 0 203.5 32.5t161.5 86.5v740h390v-144zM409 152q0 -43 -30.5 -73.5t-73.5 -30.5 t-73.5 30.5t-30.5 73.5t30.5 73.5t73.5 30.5t73.5 -30.5t30.5 -73.5z"/>
<glyph glyph-name="glyph164" horiz-adv-x="1396" d="M1466 1176h-230v-1176h-160v236q-73 -25 -177.5 -37.5t-233.5 -12.5q-37 0 -85 4t-102 14t-110.5 25.5t-109.5 39.5t-99 56t-80 74q4 28 21.5 59.5t44.5 63.5t60.5 62.5t69 56.5t134.5 75q-55 27 -104.5 66.5t-91 95.5t-73.5 129.5t-53 168.5h-87v144h1466v-144z M1076 810v366h-825q36 -103 83.5 -169.5t106 -107.5t128 -60t149.5 -25.5t154 -5.5q105 2 204 2zM1076 422v218q-35 3 -115 3q-126 0 -233.5 -12t-190.5 -36.5t-140.5 -61t-82.5 -85.5q19 -15 52 -32.5t78 -33.5t101 -26.5t120 -10.5q130 0 228.5 20t182.5 57zM314 68 q0 -43 -30.5 -73.5t-73.5 -30.5t-73.5 30.5t-30.5 73.5t30.5 73.5t73.5 30.5t73.5 -30.5t30.5 -73.5z"/>
<glyph glyph-name="glyph165" horiz-adv-x="1260" d="M1330 1176h-218q0 -109 -30 -235q-34 -143 -90 -215q101 -128 101 -290q0 -204 -181 -317q-154 -96 -371 -96q-137 0 -271 63q-152 73 -196 188q-7 19 -7 49q0 23 7 23l106 -70q167 -94 361 -94q143 0 253 56q139 70 139 198q0 101 -57 180q-110 -79 -192 -106 q-86 -29 -218 -29q-116 0 -209 53q-110 64 -110 171q0 147 134 202q88 37 258 37q176 0 332 -106q32 52 57 164q23 102 24 174h-952v144h1330v-144zM763 714q-112 70 -235 70q-221 0 -221 -79q0 -28 67 -48q53 -16 92 -16q110 0 156 9q75 14 141 64zM314 -132 q0 -43 -30.5 -73.5t-73.5 -30.5t-73.5 30.5t-30.5 73.5t30.5 73.5t73.5 30.5t73.5 -30.5t30.5 -73.5z"/>
<glyph glyph-name="glyph166" horiz-adv-x="1340" d="M1410 1176h-230v-1176h-160v606h-495q1 -24 1 -70q0 -149 -53 -263q-68 -147 -200 -147q-59 0 -100 41t-41 99q0 86 58.5 197.5t159.5 238.5q0 163 -89 474h-261v144h384q81 -239 126 -554h510v554h390v-144zM783 40q0 -43 -30.5 -73.5t-73.5 -30.5t-73.5 30.5 t-30.5 73.5t30.5 73.5t73.5 30.5t73.5 -30.5t30.5 -73.5z"/>
<glyph glyph-name="glyph167" horiz-adv-x="1444" d="M1514 1176h-230v-1176h-160v608h-282v-362q-177 -51 -278 -51q-308 0 -466 324q130 167 130 335q0 185 -90 322h-138v144h1514v-144zM1124 768v408h-810q81 -178 81 -322q0 -134 -100 -333q77 -167 269 -167q65 0 120 27v387h440zM314 18q0 -43 -30.5 -73.5t-73.5 -30.5 t-73.5 30.5t-30.5 73.5t30.5 73.5t73.5 30.5t73.5 -30.5t30.5 -73.5z"/>
<glyph glyph-name="glyph168" horiz-adv-x="1320" d="M1390 1176h-230v-779q0 -403 -340 -403q-238 0 -485 195q-244 192 -244 368q0 128 72 190q56 48 144 48h693v381h-1000v144h1390v-144zM1000 418v218h-598q-85 0 -110 -34q-12 -17 -12 -65q0 -93 179 -233q192 -150 361 -150q180 0 180 264zM278 18q0 -43 -30.5 -73.5 t-73.5 -30.5t-73.5 30.5t-30.5 73.5t30.5 73.5t73.5 30.5t73.5 -30.5t30.5 -73.5z"/>
<glyph glyph-name="glyph169" horiz-adv-x="1260" d="M1330 1176h-230v-351h-635q-193 0 -193 -143q0 -139 267 -139h561v-156h-484q-3 -24 -6 -70q0 -95 217 -134q125 -23 273 -23v-160q-227 0 -391 50q-261 80 -261 268q0 51 4 69q-134 11 -229 84q-111 84 -111 216q0 309 387 309h441v180h-940v144h1330v-144zM314 68 q0 -43 -30.5 -73.5t-73.5 -30.5t-73.5 30.5t-30.5 73.5t30.5 73.5t73.5 30.5t73.5 -30.5t30.5 -73.5z"/>
<glyph glyph-name="glyph170" horiz-adv-x="1340" d="M1410 1176h-230v-1176h-160v606h-495q1 -24 1 -70q0 -149 -53 -263q-68 -147 -200 -147q-59 0 -100 41t-41 99q0 86 58.5 197.5t159.5 238.5q0 163 -89 474h-261v144h1410v-144zM1020 766v410h-595q29 -125 85 -410h510zM783 40q0 -43 -30.5 -73.5t-73.5 -30.5 t-73.5 30.5t-30.5 73.5t30.5 73.5t73.5 30.5t73.5 -30.5t30.5 -73.5z"/>
<glyph glyph-name="glyph171" horiz-adv-x="1320" d="M1390 1176h-230v-779q0 -403 -340 -403q-238 0 -485 195q-244 192 -244 368q0 128 72 190q56 48 144 48h418v-159h-323q-85 0 -110 -34q-12 -17 -12 -65q0 -93 179 -233q192 -150 361 -150q180 0 180 264v758h-1000v144h1390v-144zM278 18q0 -43 -30.5 -73.5t-73.5 -30.5 t-73.5 30.5t-30.5 73.5t30.5 73.5t73.5 30.5t73.5 -30.5t30.5 -73.5z"/>
<glyph glyph-name="glyph172" horiz-adv-x="1360" d="M1430 1176h-230q0 -399 -115 -614q115 -209 115 -562h-160q0 291 -63 414q-180 -184 -490 -184q-166 0 -278 91q-119 97 -119 260q0 155 118 249q109 88 267 88q319 0 503 -208q62 160 62 466h-1040v144h1430v-144zM893 560q-155 199 -418 199q-87 0 -152 -45 q-74 -50 -74 -133q0 -95 74 -146q65 -45 164 -45q242 0 406 170zM1474 -554l-126 -97l-296 415l129 92z"/>
<glyph glyph-name="glyph173" horiz-adv-x="1320" d="M1390 1176h-230v-1176h-160v389q-156 -88 -365 -88q-339 0 -538 205q150 207 150 377q0 178 -56 293h-191v144h299q104 -215 108 -405h593v405h390v-144zM1000 580v191h-600q-16 -112 -95 -224q110 -86 330 -86q233 0 365 119zM1434 -554l-126 -97l-296 415l129 92z"/>
<glyph glyph-name="glyph174" horiz-adv-x="1476" d="M1546 1176h-230v-1176h-160v1176h-292v-849q0 -327 -243 -327q-174 0 -367 208q-186 200 -186 358q0 148 97 196q52 25 173 25h366v389h-704v144h1546v-144zM704 337v290h-326q-75 0 -96 -5q-55 -11 -55 -56q0 -113 142 -260t252 -147q83 0 83 178zM1574 -554l-126 -97 l-296 415l129 92z"/>
<glyph glyph-name="glyph175" horiz-adv-x="1444" d="M1514 1176h-230v-1176h-160v360q-43 -10 -135 -10q-211 0 -301 143q-96 -77 -219 -77q-93 0 -196 60q-114 66 -163 167l90 122q53 90 53 219q0 91 -57 192h-196v144h254q83 -88 116 -151q43 -81 43 -185q0 -203 -118 -337q72 -72 174 -72q121 0 175 90q-22 122 -32 358 q7 210 55 258q29 39 64 39q48 0 75 -58q26 -49 26 -115q0 -244 -62 -497q45 -140 219 -140q83 0 135 13v797h390v-144zM1564 -554l-126 -97l-296 415l129 92z"/>
<glyph glyph-name="glyph176" horiz-adv-x="1260" d="M1330 1176h-1060v-196h455q199 0 315 -79q138 -93 138 -285q0 -261 -289 -406l89 -109l-124 -101l-125 153q-175 -55 -295 -55t-218 60q-114 70 -114 183q0 224 273 224q192 0 403 -227q240 107 240 278q0 205 -293 205h-615v355h-110v144h1330v-144zM608 284 q-145 141 -233 141q-123 0 -123 -94q0 -39 66 -59q46 -14 97 -14q93 0 193 26zM1364 -554l-126 -97l-296 415l129 92z"/>
<glyph glyph-name="glyph177" horiz-adv-x="1436" d="M1506 1176h-230v-715q0 -461 -533 -461q-190 0 -319 110q-145 123 -145 337v215q-192 3 -192 108q0 69 83 133q73 56 126 56q82 0 120 -144h700v361h-1116v144h1506v-144zM1116 456v200h-675v-222q0 -149 103 -219q79 -55 199 -55q373 0 373 296zM1094 -554l-126 -97 l-296 415l129 92z"/>
<glyph glyph-name="glyph178" horiz-adv-x="1376" d="M1446 1176h-230v-371h-655q-129 0 -183 -15q-106 -30 -106 -85q0 -93 218 -93h471q133 0 220 -79q90 -82 90 -214q0 -205 -242 -277q-139 -42 -409 -42h-55q-171 0 -297 63q-160 81 -160 234q0 140 100 220q-95 62 -95 178q0 158 159 226q101 43 330 43h451v212h-1053 v144h1446v-144zM1112 320q0 63 -39 99.5t-102 36.5h-278q62 -91 62 -222q0 -36 -5 -75q154 10 219 28q143 39 143 133zM595 237q0 79 -32 132q-38 65 -111 65q-69 0 -122 -34q-62 -38 -62 -103q0 -76 125 -112q86 -25 194 -25q8 36 8 77zM1094 -560l-126 -97l-296 415 l129 92z"/>
<glyph glyph-name="glyph179" horiz-adv-x="1408" d="M1478 1176h-230v-1176h-159v546h-655v-546h-160v547q-174 16 -174 112q0 58 76 124.5t135 66.5q82 0 110 -134h668v460h-1089v144h1478v-144zM1524 -554l-126 -97l-296 415l129 92z"/>
<glyph glyph-name="glyph180" horiz-adv-x="1408" d="M1478 1176h-163q-91 -297 -301 -434q186 -74 186 -310q0 -118 -103 -215q-86 -80 -212 -123l94 -154h-171l-79 116q-64 -9 -146 -9q-138 0 -225 52q-107 64 -107 192q0 97 66 157q63 58 161 58q101 0 194 -92q56 -54 136 -177q87 20 150 64q83 57 83 131q0 200 -313 200 h-516v159h189q-156 129 -194 385h-207v144h1478v-144zM1146 1176h-777q45 -200 147.5 -292.5t217.5 -92.5q135 0 283 141q105 121 129 244zM638 209q-92 137 -160 137q-67 0 -67 -55q0 -84 166 -84q32 0 61 2zM1324 -570l-126 -97l-296 415l129 92z"/>
<glyph glyph-name="glyph181" horiz-adv-x="1408" d="M1478 1176h-230v-460h-858q-139 0 -139 -99q0 -54 48 -86q41 -27 98 -27h851v-171h-614q-23 -44 -23 -104q0 -69 361 -69h276v-160h-362q-190 0 -288 42q-147 62 -147 184q0 57 25 117q-385 0 -385 272q0 219 262 261q-95 132 -102 300h-251v144h1478v-144zM1088 876v300 h-677q4 -90 51 -161q43 -94 97 -139h529zM1124 -622l-126 -97l-296 415l129 92z"/>
<glyph glyph-name="glyph182" horiz-adv-x="1376" d="M1446 1176h-230v-400h-104q-292 0 -442 -39q-226 -58 -369 -232q78 -158 204 -249q136 -98 303 -98q218 0 455 58v-12q0 -95 -182 -157q-144 -49 -273 -49q-248 0 -429 136q-176 133 -258 370q186 431 935 431v241h-1056v144h1446v-144zM1194 -554l-126 -97l-296 415 l129 92z"/>
<glyph glyph-name="glyph183" horiz-adv-x="1408" d="M1478 1176h-698v-227q473 -181 473 -483q0 -199 -179 -337q-166 -129 -374 -129t-374 129q-179 138 -179 337q0 302 472 483v227h-619v144h1478v-144zM1093 466q0 116 -140 214q-106 74 -261 121q-150 -46 -253 -121q-132 -98 -132 -214q0 -130 133 -224q121 -85 259 -85 q139 0 260 85q134 94 134 224zM1094 -554l-126 -97l-296 415l129 92z"/>
<glyph glyph-name="glyph184" horiz-adv-x="1376" d="M1446 1176h-230q-7 -350 -225 -481q107 -78 147 -157q34 -67 34 -170q0 -192 -204 -294q-161 -80 -370 -80q-189 0 -321 56q-179 77 -179 237q0 103 104 154q80 40 191 40q134 0 255.5 -81t175.5 -211q69 23 123 70q66 58 66 122q0 141 -193 246q-160 -48 -346 -38 q-189 10 -183 117q6 125 251 125q174 0 297 -40q214 111 218 385h-1057v144h1446v-144zM668 159q-49 101 -125 142q-64 34 -169 34q-116 0 -116 -48q0 -133 340 -133q33 0 70 5zM1244 -554l-126 -97l-296 415l129 92z"/>
<glyph glyph-name="glyph185" horiz-adv-x="1376" d="M1446 1176h-230v-494h-839q18 -377 264 -481q102 134 174 194q103 86 210 86q102 0 165 -56q65 -59 65 -159q0 -137 -136 -204q-104 -52 -257 -52q-326 0 -478 156q-146 150 -180 499q-147 25 -147 113q0 58 64 124.5t127 66.5q76 0 119 -123h689v330h-1056v144h1446 v-144zM1095 268q0 53 -78 53q-81 0 -217 -169q41 -3 72 -3q223 0 223 119zM1144 -554l-126 -97l-296 415l129 92z"/>
<glyph glyph-name="glyph186" horiz-adv-x="1260" d="M1330 1176h-1003q38 -186 339 -249q205 -38 458 -38v-155h-40q-177 0 -272 20v-237q-143 37 -284 37q-88 0 -151 -47q-68 -52 -68 -138q0 -207 348 -207q112 0 285 52q145 43 167 43q11 0 11 -13q0 -117 -181 -187q-141 -55 -282 -55q-207 0 -342 78q-165 97 -165 289 q0 146 106 247q105 98 252 98q93 0 180 -15v87q-463 67 -524 390h-164v144h1330v-144zM1044 -554l-126 -97l-296 415l129 92z"/>
<glyph glyph-name="glyph187" horiz-adv-x="1376" d="M1446 1176h-230q-7 -350 -225 -481q181 -119 181 -337q0 -199 -189 -292q-144 -72 -365 -72q-153 0 -317 64q-207 81 -207 209q0 28 26 28q-3 0 189 -70.5t309 -70.5q395 0 395 217q0 143 -193 256q-133 -39 -285 -39q-244 0 -244 113q0 130 251 130q162 0 297 -40 q215 105 218 385h-1057v144h1446v-144zM1044 -554l-126 -97l-296 415l129 92z"/>
<glyph glyph-name="glyph188" horiz-adv-x="1376" d="M1446 1176h-230v-1176h-160v389q-137 -78 -415 -78q-137 0 -269 58q-139 60 -209 157l80 122q70 131 70 284q0 164 -66 244h-247v144h1446v-144zM1056 886v290h-622q40 -97 39 -290h583zM1056 580v162h-604q-25 -107 -91 -195q95 -76 280 -76q112 0 227 27q132 31 188 82 zM1494 -554l-126 -97l-296 415l129 92z"/>
<glyph glyph-name="glyph189" horiz-adv-x="1376" d="M1446 1176h-230v-494h-839q58 -499 425 -499q119 0 291 65t188 65q21 0 21 -26q0 -121 -191 -211q-163 -76 -311 -76q-273 0 -435 200q-145 181 -161 465q-72 11 -97 22q-50 23 -50 77q0 68 58.5 136.5t124.5 68.5q79 0 120 -123h696v330h-1056v144h1446v-144zM1194 -554 l-126 -97l-296 415l129 92z"/>
<glyph glyph-name="glyph190" horiz-adv-x="1320" d="M1390 1176h-230v-1176h-160v389q-155 -88 -365 -88q-337 0 -538 215l102 143q78 133 78 263q0 135 -66 254h-211v144h1390v-144zM1000 580v596h-612q49 -139 49 -274q0 -167 -122 -355q97 -86 320 -86q101 0 203.5 32.5t161.5 86.5zM1444 -554l-126 -97l-296 415l129 92z "/>
<glyph glyph-name="glyph191" horiz-adv-x="1376" d="M1446 1176h-669v-229q209 -58 339 -159q169 -131 169 -315q0 -176 -102 -300q-97 -117 -270 -171l-47 152q259 80 259 319q0 93 -122 183q-92 68 -206 107q-69 24 -96 24t-96 -23q-115 -39 -210 -108q-125 -90 -125 -183q0 -239 259 -319l-47 -152q-173 54 -270 171 q-102 124 -102 300q0 180 170 313q132 104 337 161v229h-617v144h1446v-144zM1294 -554l-126 -97l-296 415l129 92z"/>
<glyph glyph-name="glyph192" horiz-adv-x="1320" d="M1390 1176h-230v-1176h-160v389q-155 -88 -365 -88q-337 0 -538 215l102 143q78 133 78 263q0 135 -66 254h-211v144h329q108 -231 108 -418q0 -167 -122 -355q97 -86 320 -86q101 0 203.5 32.5t161.5 86.5v740h390v-144zM1444 -554l-126 -97l-296 415l129 92z"/>
<glyph glyph-name="glyph193" horiz-adv-x="1260" d="M1330 1176h-230v-457h-600q-232 -13 -246 -137q0 -252 298 -391q102 134 174 194q103 86 210 86q102 0 165 -56q65 -59 65 -159q0 -137 -136 -204q-104 -52 -257 -52q-285 0 -476 164q-202 174 -202 418q0 151 107.5 224.5t297.5 73.5h440v296h-940v144h1330v-144z M1006 258q0 53 -78 53q-81 0 -217 -169q41 -3 72 -3q223 0 223 119zM1094 -554l-126 -97l-296 415l129 92z"/>
<glyph glyph-name="glyph194" horiz-adv-x="1396" d="M1466 1176h-230v-1176h-160v236q-73 -25 -177.5 -37.5t-233.5 -12.5q-37 0 -85 4t-102 14t-110.5 25.5t-109.5 39.5t-99 56t-80 74q4 28 21.5 59.5t44.5 63.5t60.5 62.5t69 56.5t134.5 75q-55 27 -104.5 66.5t-91 95.5t-73.5 129.5t-53 168.5h-87v144h1466v-144z M1076 810v366h-825q36 -103 83.5 -169.5t106 -107.5t128 -60t149.5 -25.5t154 -5.5q105 2 204 2zM1076 422v218q-35 3 -115 3q-126 0 -233.5 -12t-190.5 -36.5t-140.5 -61t-82.5 -85.5q19 -15 52 -32.5t78 -33.5t101 -26.5t120 -10.5q130 0 228.5 20t182.5 57zM1524 -554 l-126 -97l-296 415l129 92z"/>
<glyph glyph-name="glyph195" horiz-adv-x="1260" d="M1330 1176h-218q0 -109 -30 -235q-34 -143 -90 -215q101 -128 101 -290q0 -204 -181 -317q-154 -96 -371 -96q-137 0 -271 63q-152 73 -196 188q-7 19 -7 49q0 23 7 23l106 -70q167 -94 361 -94q143 0 253 56q139 70 139 198q0 101 -57 180q-110 -79 -192 -106 q-86 -29 -218 -29q-116 0 -209 53q-110 64 -110 171q0 147 134 202q88 37 258 37q176 0 332 -106q32 52 57 164q23 102 24 174h-952v144h1330v-144zM763 714q-112 70 -235 70q-221 0 -221 -79q0 -28 67 -48q53 -16 92 -16q110 0 156 9q75 14 141 64zM994 -554l-126 -97 l-296 415l129 92z"/>
<glyph glyph-name="glyph196" horiz-adv-x="1340" d="M1410 1176h-230v-1176h-160v606h-495q1 -24 1 -70q0 -149 -53 -263q-68 -147 -200 -147q-59 0 -100 41t-41 99q0 86 58.5 197.5t159.5 238.5q0 163 -89 474h-261v144h384q81 -239 126 -554h510v554h390v-144zM1464 -554l-126 -97l-296 415l129 92z"/>
<glyph glyph-name="glyph197" horiz-adv-x="1444" d="M1514 1176h-230v-1176h-160v608h-282v-362q-177 -51 -278 -51q-308 0 -466 324q130 167 130 335q0 185 -90 322h-138v144h1514v-144zM1124 768v408h-810q81 -178 81 -322q0 -134 -100 -333q77 -167 269 -167q65 0 120 27v387h440zM1564 -554l-126 -97l-296 415l129 92z "/>
<glyph glyph-name="glyph198" horiz-adv-x="1320" d="M1390 1176h-230v-779q0 -403 -340 -403q-238 0 -485 195q-244 192 -244 368q0 128 72 190q56 48 144 48h693v381h-1000v144h1390v-144zM1000 418v218h-598q-85 0 -110 -34q-12 -17 -12 -65q0 -93 179 -233q192 -150 361 -150q180 0 180 264zM1344 -554l-126 -97l-296 415 l129 92z"/>
<glyph glyph-name="glyph199" horiz-adv-x="1444" d="M1514 1176h-389q-39 -215 -97 -335q147 -96 209 -166q96 -107 96 -240q0 -166 -152 -296q-125 -107 -307 -158l-42 154q122 34 214 95q126 83 126 179q0 104 -63 179q-46 55 -153 118q-79 -112 -242 -189q-163 77 -242 189q-107 -63 -153 -118q-63 -75 -63 -179 q0 -96 126 -179q92 -61 214 -95l-42 -154q-182 51 -307 158q-152 130 -152 296q0 133 96 240q62 70 209 166q-58 120 -97 335h-303v144h1514v-144zM965 1176h-502q24 -298 251 -492q227 194 251 492zM1294 -554l-126 -97l-296 415l129 92z"/>
<glyph glyph-name="glyph200" horiz-adv-x="1444" d="M1514 1176h-389q-39 -215 -97 -335q147 -96 209 -166q96 -107 96 -240q0 -166 -152 -296q-125 -107 -307 -158l-42 154q122 34 214 95q126 83 126 179q0 104 -63 179q-46 55 -153 118q-79 -112 -242 -189q-163 77 -242 189q-107 -63 -153 -118q-63 -75 -63 -179 q0 -96 126 -179q92 -61 214 -95l-42 -154q-182 51 -307 158q-152 130 -152 296q0 133 96 240q62 70 209 166q-58 120 -97 335h-303v144h1514v-144zM965 1176h-502q24 -298 251 -492q227 194 251 492zM284 -32q0 -43 -30.5 -73.5t-73.5 -30.5t-73.5 30.5t-30.5 73.5 t30.5 73.5t73.5 30.5t73.5 -30.5t30.5 -73.5zM1294 -554l-126 -97l-296 415l129 92z"/>
<glyph glyph-name="glyph201" horiz-adv-x="1260" d="M1330 1176h-230v-351h-635q-193 0 -193 -143q0 -139 267 -139h561v-156h-484q-3 -24 -6 -70q0 -95 217 -134q125 -23 273 -23v-160q-227 0 -391 50q-261 80 -261 268q0 51 4 69q-134 11 -229 84q-111 84 -111 216q0 309 387 309h441v180h-940v144h1330v-144zM1258 -554 l-126 -97l-296 415l129 92z"/>
<glyph glyph-name="glyph202" horiz-adv-x="1340" d="M1410 1176h-230v-1176h-160v606h-495q1 -24 1 -70q0 -149 -53 -263q-68 -147 -200 -147q-59 0 -100 41t-41 99q0 86 58.5 197.5t159.5 238.5q0 163 -89 474h-261v144h1410v-144zM1020 766v410h-595q29 -125 85 -410h510zM783 40q0 -43 -30.5 -73.5t-73.5 -30.5 t-73.5 30.5t-30.5 73.5t30.5 73.5t73.5 30.5t73.5 -30.5t30.5 -73.5zM1464 -554l-126 -97l-296 415l129 92z"/>
<glyph glyph-name="glyph203" horiz-adv-x="1340" d="M1410 1176h-230v-1176h-160v606h-495q1 -24 1 -70q0 -149 -53 -263q-68 -147 -200 -147q-59 0 -100 41t-41 99q0 86 58.5 197.5t159.5 238.5q0 163 -89 474h-261v144h1410v-144zM1020 766v410h-595q29 -125 85 -410h510zM1464 -554l-126 -97l-296 415l129 92z"/>
<glyph glyph-name="glyph204" horiz-adv-x="1320" d="M1390 1176h-230v-779q0 -403 -340 -403q-238 0 -485 195q-244 192 -244 368q0 128 72 190q56 48 144 48h418v-159h-323q-85 0 -110 -34q-12 -17 -12 -65q0 -93 179 -233q192 -150 361 -150q180 0 180 264v758h-1000v144h1390v-144zM1344 -554l-126 -97l-296 415l129 92z "/>
<glyph glyph-name="glyph205" horiz-adv-x="1360" d="M1430 1176h-230q0 -399 -115 -614q115 -209 115 -562h-160q0 291 -63 414q-180 -184 -490 -184q-166 0 -278 91q-119 97 -119 260q0 155 118 249q109 88 267 88q319 0 503 -208q62 160 62 466h-1040v144h1430v-144zM893 560q-155 199 -418 199q-87 0 -152 -45 q-74 -50 -74 -133q0 -95 74 -146q65 -45 164 -45q242 0 406 170zM279 68q0 -43 -30.5 -73.5t-73.5 -30.5t-73.5 30.5t-30.5 73.5t30.5 73.5t73.5 30.5t73.5 -30.5t30.5 -73.5zM1474 -554l-126 -97l-296 415l129 92z"/>
<glyph glyph-name="glyph206" horiz-adv-x="1320" d="M1390 1176h-230v-1176h-160v389q-156 -88 -365 -88q-339 0 -538 205q150 207 150 377q0 178 -56 293h-191v144h299q104 -215 108 -405h593v405h390v-144zM1000 580v191h-600q-16 -112 -95 -224q110 -86 330 -86q233 0 365 119zM409 152q0 -43 -30.5 -73.5t-73.5 -30.5 t-73.5 30.5t-30.5 73.5t30.5 73.5t73.5 30.5t73.5 -30.5t30.5 -73.5zM1434 -554l-126 -97l-296 415l129 92z"/>
<glyph glyph-name="glyph207" horiz-adv-x="1476" d="M1546 1176h-230v-1176h-160v1176h-292v-849q0 -327 -243 -327q-174 0 -367 208q-186 200 -186 358q0 148 97 196q52 25 173 25h366v389h-704v144h1546v-144zM704 337v290h-326q-75 0 -96 -5q-55 -11 -55 -56q0 -113 142 -260t252 -147q83 0 83 178zM278 -32 q0 -43 -30.5 -73.5t-73.5 -30.5t-73.5 30.5t-30.5 73.5t30.5 73.5t73.5 30.5t73.5 -30.5t30.5 -73.5zM1594 -554l-126 -97l-296 415l129 92z"/>
<glyph glyph-name="glyph208" horiz-adv-x="1444" d="M1514 1176h-230v-1176h-160v360q-43 -10 -135 -10q-211 0 -301 143q-96 -77 -219 -77q-93 0 -196 60q-114 66 -163 167l90 122q53 90 53 219q0 91 -57 192h-196v144h254q83 -88 116 -151q43 -81 43 -185q0 -203 -118 -337q72 -72 174 -72q121 0 175 90q-22 122 -32 358 q7 210 55 258q29 39 64 39q48 0 75 -58q26 -49 26 -115q0 -244 -62 -497q45 -140 219 -140q83 0 135 13v797h390v-144zM317 188q0 -43 -30.5 -73.5t-73.5 -30.5t-73.5 30.5t-30.5 73.5t30.5 73.5t73.5 30.5t73.5 -30.5t30.5 -73.5zM1564 -554l-126 -97l-296 415l129 92z"/>
<glyph glyph-name="glyph209" horiz-adv-x="1260" d="M1330 1176h-1060v-196h455q199 0 315 -79q138 -93 138 -285q0 -261 -289 -406l89 -109l-124 -101l-125 153q-175 -55 -295 -55t-218 60q-114 70 -114 183q0 224 273 224q192 0 403 -227q240 107 240 278q0 205 -293 205h-615v355h-110v144h1330v-144zM608 284 q-145 141 -233 141q-123 0 -123 -94q0 -39 66 -59q46 -14 97 -14q93 0 193 26zM272 -120q0 -43 -30.5 -73.5t-73.5 -30.5t-73.5 30.5t-30.5 73.5t30.5 73.5t73.5 30.5t73.5 -30.5t30.5 -73.5zM1364 -554l-126 -97l-296 415l129 92z"/>
<glyph glyph-name="glyph210" horiz-adv-x="1436" d="M1506 1176h-230v-715q0 -461 -533 -461q-190 0 -319 110q-145 123 -145 337v215q-192 3 -192 108q0 69 83 133q73 56 126 56q82 0 120 -144h700v361h-1116v144h1506v-144zM1116 456v200h-675v-222q0 -149 103 -219q79 -55 199 -55q373 0 373 296zM305 18 q0 -43 -30.5 -73.5t-73.5 -30.5t-73.5 30.5t-30.5 73.5t30.5 73.5t73.5 30.5t73.5 -30.5t30.5 -73.5zM1094 -554l-126 -97l-296 415l129 92z"/>
<glyph glyph-name="glyph211" horiz-adv-x="1376" d="M1446 1176h-230v-371h-655q-129 0 -183 -15q-106 -30 -106 -85q0 -93 218 -93h471q133 0 220 -79q90 -82 90 -214q0 -205 -242 -277q-139 -42 -409 -42h-55q-171 0 -297 63q-160 81 -160 234q0 140 100 220q-95 62 -95 178q0 158 159 226q101 43 330 43h451v212h-1053 v144h1446v-144zM1112 320q0 63 -39 99.5t-102 36.5h-278q62 -91 62 -222q0 -36 -5 -75q154 10 219 28q143 39 143 133zM595 237q0 79 -32 132q-38 65 -111 65q-69 0 -122 -34q-62 -38 -62 -103q0 -76 125 -112q86 -25 194 -25q8 36 8 77zM264 -182q0 -43 -30.5 -73.5 t-73.5 -30.5t-73.5 30.5t-30.5 73.5t30.5 73.5t73.5 30.5t73.5 -30.5t30.5 -73.5zM1094 -560l-126 -97l-296 415l129 92z"/>
<glyph glyph-name="glyph212" horiz-adv-x="1408" d="M1478 1176h-230v-1176h-159v546h-655v-546h-160v547q-174 16 -174 112q0 58 76 124.5t135 66.5q82 0 110 -134h668v460h-1089v144h1478v-144zM857 40q0 -43 -30.5 -73.5t-73.5 -30.5t-73.5 30.5t-30.5 73.5t30.5 73.5t73.5 30.5t73.5 -30.5t30.5 -73.5zM1524 -554 l-126 -97l-296 415l129 92z"/>
<glyph glyph-name="glyph213" horiz-adv-x="1408" d="M1478 1176h-163q-91 -297 -301 -434q186 -74 186 -310q0 -118 -103 -215q-86 -80 -212 -123l94 -154h-171l-79 116q-64 -9 -146 -9q-138 0 -225 52q-107 64 -107 192q0 97 66 157q63 58 161 58q101 0 194 -92q56 -54 136 -177q87 20 150 64q83 57 83 131q0 200 -313 200 h-516v159h189q-156 129 -194 385h-207v144h1478v-144zM1146 1176h-777q45 -200 147.5 -292.5t217.5 -92.5q135 0 283 141q105 121 129 244zM638 209q-92 137 -160 137q-67 0 -67 -55q0 -84 166 -84q32 0 61 2zM274 -32q0 -43 -30.5 -73.5t-73.5 -30.5t-73.5 30.5t-30.5 73.5 t30.5 73.5t73.5 30.5t73.5 -30.5t30.5 -73.5zM1324 -570l-126 -97l-296 415l129 92z"/>
<glyph glyph-name="glyph214" horiz-adv-x="1408" d="M1478 1176h-230v-460h-858q-139 0 -139 -99q0 -54 48 -86q41 -27 98 -27h851v-171h-614q-23 -44 -23 -104q0 -69 361 -69h276v-160h-362q-190 0 -288 42q-147 62 -147 184q0 57 25 117q-385 0 -385 272q0 219 262 261q-95 132 -102 300h-251v144h1478v-144zM1088 876v300 h-677q4 -90 51 -161q43 -94 97 -139h529zM314 18q0 -43 -30.5 -73.5t-73.5 -30.5t-73.5 30.5t-30.5 73.5t30.5 73.5t73.5 30.5t73.5 -30.5t30.5 -73.5zM1124 -622l-126 -97l-296 415l129 92z"/>
<glyph glyph-name="glyph215" horiz-adv-x="1376" d="M1446 1176h-230v-400h-104q-292 0 -442 -39q-226 -58 -369 -232q78 -158 204 -249q136 -98 303 -98q218 0 455 58v-12q0 -95 -182 -157q-144 -49 -273 -49q-248 0 -429 136q-176 133 -258 370q186 431 935 431v241h-1056v144h1446v-144zM286 -32q0 -43 -30.5 -73.5 t-73.5 -30.5t-73.5 30.5t-30.5 73.5t30.5 73.5t73.5 30.5t73.5 -30.5t30.5 -73.5zM1194 -554l-126 -97l-296 415l129 92z"/>
<glyph glyph-name="glyph216" horiz-adv-x="1408" d="M1478 1176h-698v-227q473 -181 473 -483q0 -199 -179 -337q-166 -129 -374 -129t-374 129q-179 138 -179 337q0 302 472 483v227h-619v144h1478v-144zM1093 466q0 116 -140 214q-106 74 -261 121q-150 -46 -253 -121q-132 -98 -132 -214q0 -130 133 -224q121 -85 259 -85 q139 0 260 85q134 94 134 224zM264 -32q0 -43 -30.5 -73.5t-73.5 -30.5t-73.5 30.5t-30.5 73.5t30.5 73.5t73.5 30.5t73.5 -30.5t30.5 -73.5zM1094 -554l-126 -97l-296 415l129 92z"/>
<glyph glyph-name="glyph217" horiz-adv-x="1376" d="M1446 1176h-230q-3 -143 -54 -228t-181 -163q141 -114 141 -267q0 -169 -123 -290l124 -145l-111 -101l-143 168q-99 -46 -242 -46q-25 0 -73 3t-71 3l71 -69l-111 -101l-336 356l111 101q79 -83 183 -113q73 -20 197 -20q166 0 265.5 71t99.5 196q0 60 -52 121 q-40 47 -91 75q-133 -39 -285 -39q-244 0 -244 113q0 130 251 130q156 0 297 -40q114 52 160 109q51 63 58 176h-1057v144h1446v-144zM994 -554l-126 -97l-296 415l129 92z"/>
<glyph glyph-name="glyph218" horiz-adv-x="1376" d="M1446 1176h-230v-494h-839q18 -377 264 -481q102 134 174 194q103 86 210 86q102 0 165 -56q65 -59 65 -159q0 -137 -136 -204q-104 -52 -257 -52q-326 0 -478 156q-146 150 -180 499q-147 25 -147 113q0 58 64 124.5t127 66.5q76 0 119 -123h689v330h-1056v144h1446 v-144zM1095 268q0 53 -78 53q-81 0 -217 -169q41 -3 72 -3q223 0 223 119zM306 18q0 -43 -30.5 -73.5t-73.5 -30.5t-73.5 30.5t-30.5 73.5t30.5 73.5t73.5 30.5t73.5 -30.5t30.5 -73.5zM1144 -554l-126 -97l-296 415l129 92z"/>
<glyph glyph-name="glyph219" horiz-adv-x="1260" d="M1330 1176h-1003q38 -186 339 -249q205 -38 458 -38v-155h-40q-177 0 -272 20v-237q-143 37 -284 37q-88 0 -151 -47q-68 -52 -68 -138q0 -207 348 -207q112 0 285 52q145 43 167 43q11 0 11 -13q0 -117 -181 -187q-141 -55 -282 -55q-207 0 -342 78q-165 97 -165 289 q0 146 106 247q105 98 252 98q93 0 180 -15v87q-463 67 -524 390h-164v144h1330v-144zM264 -82q0 -43 -30.5 -73.5t-73.5 -30.5t-73.5 30.5t-30.5 73.5t30.5 73.5t73.5 30.5t73.5 -30.5t30.5 -73.5zM1044 -554l-126 -97l-296 415l129 92z"/>
<glyph glyph-name="glyph220" horiz-adv-x="1376" d="M1446 1176h-230q-7 -350 -225 -481q181 -119 181 -337q0 -199 -189 -292q-144 -72 -365 -72q-153 0 -317 64q-207 81 -207 209q0 28 26 28q-3 0 189 -70.5t309 -70.5q395 0 395 217q0 143 -193 256q-133 -39 -285 -39q-244 0 -244 113q0 130 251 130q162 0 297 -40 q215 105 218 385h-1057v144h1446v-144zM264 -132q0 -43 -30.5 -73.5t-73.5 -30.5t-73.5 30.5t-30.5 73.5t30.5 73.5t73.5 30.5t73.5 -30.5t30.5 -73.5zM1044 -554l-126 -97l-296 415l129 92z"/>
<glyph glyph-name="glyph221" horiz-adv-x="1376" d="M1446 1176h-230v-1176h-160v389q-137 -78 -415 -78q-137 0 -269 58q-139 60 -209 157l80 122q70 131 70 284q0 164 -66 244h-247v144h1446v-144zM1056 886v290h-622q40 -97 39 -290h583zM1056 580v162h-604q-25 -107 -91 -195q95 -76 280 -76q112 0 227 27q132 31 188 82 zM409 152q0 -43 -30.5 -73.5t-73.5 -30.5t-73.5 30.5t-30.5 73.5t30.5 73.5t73.5 30.5t73.5 -30.5t30.5 -73.5zM1494 -554l-126 -97l-296 415l129 92z"/>
<glyph glyph-name="glyph222" horiz-adv-x="1376" d="M1446 1176h-230v-494h-839q58 -499 425 -499q119 0 291 65t188 65q21 0 21 -26q0 -121 -191 -211q-163 -76 -311 -76q-273 0 -435 200q-145 181 -161 465q-72 11 -97 22q-50 23 -50 77q0 68 58.5 136.5t124.5 68.5q79 0 120 -123h696v330h-1056v144h1446v-144zM314 18 q0 -43 -30.5 -73.5t-73.5 -30.5t-73.5 30.5t-30.5 73.5t30.5 73.5t73.5 30.5t73.5 -30.5t30.5 -73.5zM1194 -554l-126 -97l-296 415l129 92z"/>
<glyph glyph-name="glyph223" horiz-adv-x="1320" d="M1390 1176h-230v-1176h-160v389q-155 -88 -365 -88q-337 0 -538 215l102 143q78 133 78 263q0 135 -66 254h-211v144h1390v-144zM1000 580v596h-612q49 -139 49 -274q0 -167 -122 -355q97 -86 320 -86q101 0 203.5 32.5t161.5 86.5zM409 152q0 -43 -30.5 -73.5 t-73.5 -30.5t-73.5 30.5t-30.5 73.5t30.5 73.5t73.5 30.5t73.5 -30.5t30.5 -73.5zM1444 -554l-126 -97l-296 415l129 92z"/>
<glyph glyph-name="glyph224" horiz-adv-x="1376" d="M1446 1176h-669v-229q209 -58 339 -159q169 -131 169 -315q0 -176 -102 -300q-97 -117 -270 -171l-47 152q259 80 259 319q0 93 -122 183q-92 68 -206 107q-69 24 -96 24t-96 -23q-115 -39 -210 -108q-125 -90 -125 -183q0 -239 259 -319l-47 -152q-173 54 -270 171 q-102 124 -102 300q0 180 170 313q132 104 337 161v229h-617v144h1446v-144zM269 -32q0 -43 -30.5 -73.5t-73.5 -30.5t-73.5 30.5t-30.5 73.5t30.5 73.5t73.5 30.5t73.5 -30.5t30.5 -73.5zM1294 -554l-126 -97l-296 415l129 92z"/>
<glyph glyph-name="glyph225" horiz-adv-x="1320" d="M1390 1176h-230v-1176h-160v389q-155 -88 -365 -88q-337 0 -538 215l102 143q78 133 78 263q0 135 -66 254h-211v144h329q108 -231 108 -418q0 -167 -122 -355q97 -86 320 -86q101 0 203.5 32.5t161.5 86.5v740h390v-144zM409 152q0 -43 -30.5 -73.5t-73.5 -30.5 t-73.5 30.5t-30.5 73.5t30.5 73.5t73.5 30.5t73.5 -30.5t30.5 -73.5zM1444 -554l-126 -97l-296 415l129 92z"/>
<glyph glyph-name="glyph226" horiz-adv-x="1260" d="M1330 1176h-230v-457h-600q-232 -13 -246 -137q0 -252 298 -391q102 134 174 194q103 86 210 86q102 0 165 -56q65 -59 65 -159q0 -137 -136 -204q-104 -52 -257 -52q-285 0 -476 164q-202 174 -202 418q0 151 107.5 224.5t297.5 73.5h440v296h-940v144h1330v-144z M1006 258q0 53 -78 53q-81 0 -217 -169q41 -3 72 -3q223 0 223 119zM286 8q0 -43 -30.5 -73.5t-73.5 -30.5t-73.5 30.5t-30.5 73.5t30.5 73.5t73.5 30.5t73.5 -30.5t30.5 -73.5zM1094 -554l-126 -97l-296 415l129 92z"/>
<glyph glyph-name="glyph227" horiz-adv-x="1396" d="M1466 1176h-230v-1176h-160v236q-73 -25 -177.5 -37.5t-233.5 -12.5q-37 0 -85 4t-102 14t-110.5 25.5t-109.5 39.5t-99 56t-80 74q4 28 21.5 59.5t44.5 63.5t60.5 62.5t69 56.5t134.5 75q-55 27 -104.5 66.5t-91 95.5t-73.5 129.5t-53 168.5h-87v144h1466v-144z M1076 810v366h-825q36 -103 83.5 -169.5t106 -107.5t128 -60t149.5 -25.5t154 -5.5q105 2 204 2zM1076 422v218q-35 3 -115 3q-126 0 -233.5 -12t-190.5 -36.5t-140.5 -61t-82.5 -85.5q19 -15 52 -32.5t78 -33.5t101 -26.5t120 -10.5q130 0 228.5 20t182.5 57zM314 68 q0 -43 -30.5 -73.5t-73.5 -30.5t-73.5 30.5t-30.5 73.5t30.5 73.5t73.5 30.5t73.5 -30.5t30.5 -73.5zM1524 -554l-126 -97l-296 415l129 92z"/>
<glyph glyph-name="glyph228" horiz-adv-x="1260" d="M1330 1176h-218q0 -109 -30 -235q-34 -143 -90 -215q101 -128 101 -290q0 -204 -181 -317q-154 -96 -371 -96q-137 0 -271 63q-152 73 -196 188q-7 19 -7 49q0 23 7 23l106 -70q167 -94 361 -94q143 0 253 56q139 70 139 198q0 101 -57 180q-110 -79 -192 -106 q-86 -29 -218 -29q-116 0 -209 53q-110 64 -110 171q0 147 134 202q88 37 258 37q176 0 332 -106q32 52 57 164q23 102 24 174h-952v144h1330v-144zM763 714q-112 70 -235 70q-221 0 -221 -79q0 -28 67 -48q53 -16 92 -16q110 0 156 9q75 14 141 64zM314 -132 q0 -43 -30.5 -73.5t-73.5 -30.5t-73.5 30.5t-30.5 73.5t30.5 73.5t73.5 30.5t73.5 -30.5t30.5 -73.5zM994 -554l-126 -97l-296 415l129 92z"/>
<glyph glyph-name="glyph229" horiz-adv-x="1340" d="M1410 1176h-230v-1176h-160v606h-495q1 -24 1 -70q0 -149 -53 -263q-68 -147 -200 -147q-59 0 -100 41t-41 99q0 86 58.5 197.5t159.5 238.5q0 163 -89 474h-261v144h384q81 -239 126 -554h510v554h390v-144zM783 40q0 -43 -30.5 -73.5t-73.5 -30.5t-73.5 30.5 t-30.5 73.5t30.5 73.5t73.5 30.5t73.5 -30.5t30.5 -73.5zM1464 -554l-126 -97l-296 415l129 92z"/>
<glyph glyph-name="glyph230" horiz-adv-x="1444" d="M1514 1176h-230v-1176h-160v608h-282v-362q-177 -51 -278 -51q-308 0 -466 324q130 167 130 335q0 185 -90 322h-138v144h1514v-144zM1124 768v408h-810q81 -178 81 -322q0 -134 -100 -333q77 -167 269 -167q65 0 120 27v387h440zM314 18q0 -43 -30.5 -73.5t-73.5 -30.5 t-73.5 30.5t-30.5 73.5t30.5 73.5t73.5 30.5t73.5 -30.5t30.5 -73.5zM1564 -554l-126 -97l-296 415l129 92z"/>
<glyph glyph-name="glyph231" horiz-adv-x="1320" d="M1390 1176h-230v-779q0 -403 -340 -403q-238 0 -485 195q-244 192 -244 368q0 128 72 190q56 48 144 48h693v381h-1000v144h1390v-144zM1000 418v218h-598q-85 0 -110 -34q-12 -17 -12 -65q0 -93 179 -233q192 -150 361 -150q180 0 180 264zM278 18q0 -43 -30.5 -73.5 t-73.5 -30.5t-73.5 30.5t-30.5 73.5t30.5 73.5t73.5 30.5t73.5 -30.5t30.5 -73.5zM1344 -554l-126 -97l-296 415l129 92z"/>
<glyph glyph-name="glyph232" horiz-adv-x="1444" d="M1514 1176h-389q-39 -215 -97 -335q147 -96 209 -166q96 -107 96 -240q0 -166 -152 -296q-125 -107 -307 -158l-42 154q122 34 214 95q126 83 126 179q0 104 -63 179q-46 55 -153 118q-79 -112 -242 -189q-163 77 -242 189q-107 -63 -153 -118q-63 -75 -63 -179 q0 -96 126 -179q92 -61 214 -95l-42 -154q-182 51 -307 158q-152 130 -152 296q0 133 96 240q62 70 209 166q-58 120 -97 335h-303v144h1514v-144zM965 1176h-502q24 -298 251 -492q227 194 251 492zM284 -32q0 -43 -30.5 -73.5t-73.5 -30.5t-73.5 30.5t-30.5 73.5 t30.5 73.5t73.5 30.5t73.5 -30.5t30.5 -73.5zM1294 -554l-126 -97l-296 415l129 92z"/>
<glyph glyph-name="glyph233" horiz-adv-x="1260" d="M1330 1176h-230v-351h-635q-193 0 -193 -143q0 -139 267 -139h561v-156h-484q-3 -24 -6 -70q0 -95 217 -134q125 -23 273 -23v-160q-227 0 -391 50q-261 80 -261 268q0 51 4 69q-134 11 -229 84q-111 84 -111 216q0 309 387 309h441v180h-940v144h1330v-144zM314 68 q0 -43 -30.5 -73.5t-73.5 -30.5t-73.5 30.5t-30.5 73.5t30.5 73.5t73.5 30.5t73.5 -30.5t30.5 -73.5zM1258 -554l-126 -97l-296 415l129 92z"/>
<glyph glyph-name="glyph234" horiz-adv-x="1340" d="M1410 1176h-230v-1176h-160v606h-495q1 -24 1 -70q0 -149 -53 -263q-68 -147 -200 -147q-59 0 -100 41t-41 99q0 86 58.5 197.5t159.5 238.5q0 163 -89 474h-261v144h1410v-144zM1020 766v410h-595q29 -125 85 -410h510zM783 40q0 -43 -30.5 -73.5t-73.5 -30.5 t-73.5 30.5t-30.5 73.5t30.5 73.5t73.5 30.5t73.5 -30.5t30.5 -73.5zM1464 -554l-126 -97l-296 415l129 92z"/>
<glyph glyph-name="glyph238" horiz-adv-x="1320" d="M1390 1176h-230v-779q0 -403 -340 -403q-238 0 -485 195q-244 192 -244 368q0 128 72 190q56 48 144 48h418v-159h-323q-85 0 -110 -34q-12 -17 -12 -65q0 -93 179 -233q192 -150 361 -150q180 0 180 264v758h-1000v144h1390v-144zM278 18q0 -43 -30.5 -73.5t-73.5 -30.5 t-73.5 30.5t-30.5 73.5t30.5 73.5t73.5 30.5t73.5 -30.5t30.5 -73.5zM1344 -554l-126 -97l-296 415l129 92z"/>
<glyph glyph-name="uni200C" unicode="‌" d="M36 -275h-72v1859h72v-1859z"/>
<glyph glyph-name="uni200D" unicode="‍" d="M219 1369l-49 -49l-134 136v-1731h-72v1731l-134 -136l-49 49l171 169l-171 168l49 49l170 -171l170 171l49 -49l-171 -168z"/>
<glyph glyph-name="uni25CC" unicode="◌" horiz-adv-x="1287" d="M1113 959l-108 -76q-52 86 -137 138l75 106q105 -66 170 -168zM762 1207l-22 -128q-47 11 -96 11q-51 0 -98 -11l-22 128q61 14 119 14q59 0 119 -14zM1187 677q0 -58 -14 -119l-128 22q11 47 11 96q0 51 -11 98l128 22q14 -61 14 -119zM1113 395q-66 -103 -170 -169 l-75 107q85 52 137 138zM419 1021q-85 -52 -137 -138l-108 76q65 102 170 168zM242 580l-129 -22q-13 57 -13 119t13 119l129 -22q-11 -47 -11 -98q0 -49 11 -96zM762 147q-60 -14 -119 -14q-58 0 -119 14l22 128q47 -11 98 -11q49 0 96 11zM419 333l-75 -107 q-104 66 -170 169l108 76q52 -86 137 -138z"/>
<glyph glyph-name="glyph239" horiz-adv-x="1496" d="M1566 1176h-230v-1176h-160v488q-55 8 -98 8q-83 0 -139 -11q-25 -254 -146 -254q-111 0 -111 145q0 68 28 131.5t80 127.5q-10 103 -55 218q-42 109 -99 185q-109 -95 -211 -270q7 -51 7 -100q0 -209 -131 -209q-52 0 -85.5 35.5t-33.5 96.5q0 54 19.5 111.5t64.5 124.5 l-78 232q-45 114 -123 117h-65v144h106q120 -12 162.5 -104.5t105.5 -259.5l108 136q80 95 153 138q141 -58 232 -269q70 -162 83 -328q44 6 128 6q72 0 98 -3v684h390v-144zM409 52q0 -43 -30.5 -73.5t-73.5 -30.5t-73.5 30.5t-30.5 73.5t30.5 73.5t73.5 30.5t73.5 -30.5 t30.5 -73.5z"/>
<glyph glyph-name="glyph240" horiz-adv-x="1972" d="M1566 1176h-230v-1176h-160v488q-55 8 -98 8q-83 0 -139 -11q-25 -254 -146 -254q-111 0 -111 145q0 68 28 131.5t80 127.5q-10 103 -55 218q-42 109 -99 185q-109 -95 -211 -270q7 -51 7 -100q0 -209 -131 -209q-52 0 -85.5 35.5t-33.5 96.5q0 54 19.5 111.5t64.5 124.5 l-78 232q-45 114 -123 117h-65v144h106q120 -12 162.5 -104.5t105.5 -259.5l108 136q80 95 153 138q141 -58 232 -269q70 -162 83 -328q44 6 128 6q72 0 98 -3v684h390v-144zM2078 1176h-296v-566h-170v566h-116v144h582v-144zM409 72q0 -43 -30.5 -73.5t-73.5 -30.5 t-73.5 30.5t-30.5 73.5t30.5 73.5t73.5 30.5t73.5 -30.5t30.5 -73.5z"/>
<glyph glyph-name="glyph241" horiz-adv-x="1642" d="M1034 1487h-160q-12 83 -78 135q-61 47 -134 47q-138 0 -211 -129q-55 -98 -55 -220h186v-144h-186v-1176h-170v1176h-226v144h226q0 186 91 328q125 181 345 181q140 0 252.5 -105t119.5 -237zM1713 1176h-240v-587h-389q-100 0 -205 -65q-93 -58 -146 -135 q212 -229 412 -229q155 0 229 15.5t221 77.5q-61 -137 -172 -197q-105 -56 -278 -56q-287 0 -605 374q57 101 106 152q56 60 165 124q-41 25 -77 64q-116 124 -121 462h-158v144h1258v-144zM1312 752v424h-540q0 -184 34 -279q53 -145 193 -145h313zM654 -168 q0 -43 -30.5 -73.5t-73.5 -30.5t-73.5 30.5t-30.5 73.5t30.5 73.5t73.5 30.5t73.5 -30.5t30.5 -73.5z"/>
<glyph glyph-name="glyph242" horiz-adv-x="1642" d="M1258 1176h-240v-587h-389q-100 0 -205 -65q-93 -58 -146 -135q212 -229 412 -229q155 0 229 15.5t221 77.5q-61 -137 -172 -197q-105 -56 -278 -56q-287 0 -605 374q57 101 106 152q56 60 165 124q-41 25 -77 64q-116 124 -121 462h-158v144h1258v-144zM857 752v424 h-540q0 -184 34 -279q53 -145 193 -145h313zM1712 1176h-296v-1176h-170v1176h-116v144h116q-12 349 -241 349q-73 0 -134 -47q-66 -52 -78 -135h-160q7 132 119.5 237t252.5 105q218 0 327 -181q82 -136 84 -328h296v-144zM354 -168q0 -43 -30.5 -73.5t-73.5 -30.5 t-73.5 30.5t-30.5 73.5t30.5 73.5t73.5 30.5t73.5 -30.5t30.5 -73.5z"/>
<glyph glyph-name="glyph243" horiz-adv-x="1416" d="M1486 1176h-163v-95q0 -304 -279 -468q68 -68 94 -124q30 -63 30 -152q0 -181 -152 -267q-123 -70 -307 -70q-342 0 -497 398q-110 275 -110 681q0 57 3 97h-105v144h133q59 215 213 339q164 131 404 131q193 0 354 -136q157 -134 209 -334h173v-144zM1151 1320 q-47 137 -174 226q-121 86 -252 86q-139 0 -260 -92q-115 -87 -171 -220h857zM1161 1081v95h-894q-5 -73 -5 -164q0 -163 23 -283h562q110 0 214 122q100 118 100 230zM1018 337q0 121 -117 188q-98 57 -228 57h-368q46 -160 142 -273q117 -149 262 -149q309 0 309 177z M1167 -255q-196 -147 -459 -147q-262 0 -459 147q46 65 96 128q60 -42 159 -76q112 -39 204 -39q91 0 212 43q103 36 151 72q50 -63 96 -128zM246 8q0 -43 -30.5 -73.5t-73.5 -30.5t-73.5 30.5t-30.5 73.5t30.5 73.5t73.5 30.5t73.5 -30.5t30.5 -73.5z"/>
<glyph glyph-name="glyph244" horiz-adv-x="1416" d="M1486 1176h-163v-95q0 -304 -279 -468q68 -68 94 -124q30 -63 30 -152q0 -181 -152 -267q-123 -70 -307 -70q-342 0 -497 398q-110 275 -110 681q0 57 3 97h-105v144h133q59 215 213 339q164 131 404 131q193 0 354 -136q157 -134 209 -334h173v-144zM1151 1320 q-47 137 -174 226q-121 86 -252 86q-139 0 -260 -92q-115 -87 -171 -220h857zM1161 1081v95h-894q-5 -73 -5 -164q0 -163 23 -283h562q110 0 214 122q100 118 100 230zM1018 337q0 121 -117 188q-98 57 -228 57h-368q46 -160 142 -273q117 -149 262 -149q309 0 309 177z M1160 -255q-196 -147 -459 -147q-262 0 -459 147q46 65 96 128q60 -42 159 -76q112 -39 204 -39q91 0 212 43q103 36 151 72q50 -63 96 -128zM1160 -565q-196 -147 -459 -147q-262 0 -459 147q46 65 96 128q60 -42 159 -76q112 -39 204 -39q91 0 212 43q103 36 151 72 q50 -63 96 -128zM246 8q0 -43 -30.5 -73.5t-73.5 -30.5t-73.5 30.5t-30.5 73.5t30.5 73.5t73.5 30.5t73.5 -30.5t30.5 -73.5z"/>
<glyph glyph-name="glyph245" horiz-adv-x="1188" d="M1258 1176h-240v-587h-389q-100 0 -205 -65q-93 -58 -146 -135q212 -229 412 -229q155 0 229 15.5t221 77.5q-61 -137 -172 -197q-105 -56 -278 -56q-287 0 -605 374q57 101 106 152q56 60 165 124q-41 25 -77 64q-116 124 -121 462h-158v144h1258v-144zM857 752v424 h-540q0 -184 34 -279q53 -145 193 -145h313zM1140 1308h-161l-53.5 89t-72 94t-96 74t-124.5 30q-14 0 -31.5 -1.5t-34 -4t-30 -5t-20.5 -4.5v160l44 10t64 5q71 0 130.5 -19t109.5 -51t90.5 -75t73.5 -91t59 -98.5t46 -98.5zM246 8q0 -43 -30.5 -73.5t-73.5 -30.5 t-73.5 30.5t-30.5 73.5t30.5 73.5t73.5 30.5t73.5 -30.5t30.5 -73.5z"/>
<glyph glyph-name="glyph246" horiz-adv-x="1496" d="M1566 1176h-230v-1176h-160v488q-55 8 -98 8q-83 0 -139 -11q-25 -254 -146 -254q-111 0 -111 145q0 68 28 131.5t80 127.5q-10 103 -55 218q-42 109 -99 185q-109 -95 -211 -270q7 -51 7 -100q0 -209 -131 -209q-52 0 -85.5 35.5t-33.5 96.5q0 54 19.5 111.5t64.5 124.5 l-78 232q-45 114 -123 117h-65v144h106q120 -12 162.5 -104.5t105.5 -259.5l108 136q80 95 153 138q141 -58 232 -269q70 -162 83 -328q44 6 128 6q72 0 98 -3v684h390v-144zM1422 1293h-160q-23 38 -54 76t-75 68t-105 49t-143 19q-14 0 -31.5 -1.5t-34 -4t-30 -5 t-20.5 -4.5v160l44 10t64 5q91 0 163.5 -17.5t132.5 -49.5q-21 41 -47.5 78t-58.5 64.5t-70.5 43.5t-84.5 16q-57 0 -90 -10t-53 -23v146q17 13 54.5 24.5t94.5 11.5q84 0 149.5 -28.5t115.5 -77t87.5 -113.5t65.5 -137.5t48.5 -149.5t37.5 -150zM409 52q0 -43 -30.5 -73.5 t-73.5 -30.5t-73.5 30.5t-30.5 73.5t30.5 73.5t73.5 30.5t73.5 -30.5t30.5 -73.5z"/>
<glyph glyph-name="glyph247" horiz-adv-x="1416" d="M1486 1176h-163v-95q0 -304 -279 -468q68 -68 94 -124q30 -63 30 -152q0 -170 -152 -256q-123 -70 -307 -70q-342 0 -497 387q-110 275 -110 681q0 57 3 97h-105v144h133q59 215 213 339q164 131 404 131q184 0 331 -85q132 -77 177 -186h-206q-79 113 -327 113 q-139 0 -260 -92q-115 -87 -171 -220h1192v-144zM1161 1081v95h-894q-5 -73 -5 -164q0 -163 23 -283h562q110 0 214 122q100 118 100 230zM1018 337q0 121 -117 188q-98 57 -228 57h-368q46 -160 142 -273q117 -138 262 -138q309 0 309 166zM246 8q0 -43 -30.5 -73.5 t-73.5 -30.5t-73.5 30.5t-30.5 73.5t30.5 73.5t73.5 30.5t73.5 -30.5t30.5 -73.5z"/>
<glyph glyph-name="glyph249" horiz-adv-x="1496" d="M1566 1176h-230v-1176h-160v488q-55 8 -98 8q-83 0 -139 -11q-25 -254 -146 -254q-111 0 -111 145q0 68 28 131.5t80 127.5q-10 103 -55 218q-42 109 -99 185q-109 -95 -211 -270q7 -51 7 -100q0 -209 -131 -209q-52 0 -85.5 35.5t-33.5 96.5q0 54 19.5 111.5t64.5 124.5 l-78 232q-45 114 -123 117h-65v144h106q120 -12 162.5 -104.5t105.5 -259.5l108 136q80 95 153 138q141 -58 232 -269q70 -162 83 -328q44 6 128 6q72 0 98 -3v684h390v-144zM1554 1369h-158q0 95 -40 151q-37 53 -96 53q-56 0 -102 -52q-52 -59 -52 -153h-160 q0 193 158 304q-130 33 -188 75q-84 62 -84 175h160q0 -89 146 -132q218 -66 270 -101q146 -98 146 -320zM409 52q0 -43 -30.5 -73.5t-73.5 -30.5t-73.5 30.5t-30.5 73.5t30.5 73.5t73.5 30.5t73.5 -30.5t30.5 -73.5z"/>
<glyph glyph-name="uni0965" unicode="॥" horiz-adv-x="982" d="M418 -60h-160v1380h160v-1380zM804 -60h-160v1380h160v-1380z"/>
<glyph glyph-name="glyph250" d="M45 -594l-81 -117l-222 167q-8 -13 -20 -29.5t-30 -31.5t-41.5 -25t-54.5 -10q-32 0 -59 16t-47 41t-31.5 54.5t-11.5 55.5q0 32 9.5 63t27.5 55t44 39t60 15q12 0 19.5 -0.5t14.5 -2.5t13.5 -5l17.5 -8q7 25 12.5 42.5t8.5 36.5t4.5 45.5t1.5 71.5v121h160v-121 q0 -53 -5 -98t-11.5 -82t-14 -65.5t-12.5 -49.5l108 -78zM46 -1190l-126 -97l-296 415l129 92z"/>
<glyph glyph-name="glyph251" d="M-160 -636q-173 7 -263.5 53.5t-90.5 134.5v31q-119 44 -119 168q0 96 56.5 143.5t160.5 47.5h96v58h160v-179h-243q-96 0 -96 -63q0 -17 4 -27.5t14 -17.5t28 -9.5t47 -2.5h246v-122h-202v-22q0 -40 62 -55q3 -1 16 -3t31.5 -4.5t42.5 -4.5t50 -2v-124zM-2 -1190 l-126 -97l-296 415l129 92z"/>
<glyph glyph-name="glyph252" d="M-160 -408q-20 -228 -212 -228q-100 0 -216 101q-119 104 -119 200q0 148 152 148h41v-124h-30q-38 0 -38 -38q0 -19 23.5 -45t54.5 -50t62.5 -41t47.5 -17q74 0 74 100v402h160v-408zM-30 -1190l-126 -97l-296 415l129 92z"/>
<glyph glyph-name="glyph253" d="M45 -594l-81 -117l-222 167q-8 -13 -20 -29.5t-30 -31.5t-41.5 -25t-54.5 -10q-32 0 -59 16t-47 41t-31.5 54.5t-11.5 55.5q0 32 9.5 63t27.5 55t44 39t60 15q12 0 19.5 -0.5t14.5 -2.5t13.5 -5l17.5 -8q7 25 12.5 42.5t8.5 36.5t4.5 45.5t1.5 71.5v121h160v-121 q0 -53 -5 -98t-11.5 -82t-14 -65.5t-12.5 -49.5l108 -78zM-247 -895q-196 -147 -459 -147q-262 0 -459 147q46 65 96 128q60 -42 159 -76q112 -39 204 -39q91 0 212 43q103 36 151 72q50 -63 96 -128z"/>
<glyph glyph-name="glyph254" d="M-160 -636q-173 7 -263.5 53.5t-90.5 134.5v31q-119 44 -119 168q0 96 56.5 143.5t160.5 47.5h96v58h160v-179h-243q-96 0 -96 -63q0 -17 4 -27.5t14 -17.5t28 -9.5t47 -2.5h246v-122h-202v-22q0 -40 62 -55q3 -1 16 -3t31.5 -4.5t42.5 -4.5t50 -2v-124zM-247 -895 q-196 -147 -459 -147q-262 0 -459 147q46 65 96 128q60 -42 159 -76q112 -39 204 -39q91 0 212 43q103 36 151 72q50 -63 96 -128z"/>
<glyph glyph-name="glyph255" d="M-160 -408q-20 -228 -212 -228q-100 0 -216 101q-119 104 -119 200q0 148 152 148h41v-124h-30q-38 0 -38 -38q0 -19 23.5 -45t54.5 -50t62.5 -41t47.5 -17q74 0 74 100v402h160v-408zM-247 -895q-196 -147 -459 -147q-262 0 -459 147q46 65 96 128q60 -42 159 -76 q112 -39 204 -39q91 0 212 43q103 36 151 72q50 -63 96 -128z"/>
<glyph glyph-name="glyph256" d="M45 -594l-81 -117l-222 167q-8 -13 -20 -29.5t-30 -31.5t-41.5 -25t-54.5 -10q-32 0 -59 16t-47 41t-31.5 54.5t-11.5 55.5q0 32 9.5 63t27.5 55t44 39t60 15q12 0 19.5 -0.5t14.5 -2.5t13.5 -5l17.5 -8q7 25 12.5 42.5t8.5 36.5t4.5 45.5t1.5 71.5v121h160v-121 q0 -53 -5 -98t-11.5 -82t-14 -65.5t-12.5 -49.5l108 -78zM-247 -895q-196 -147 -459 -147q-262 0 -459 147q46 65 96 128q60 -42 159 -76q112 -39 204 -39q91 0 212 43q103 36 151 72q50 -63 96 -128zM-247 -1205q-196 -147 -459 -147q-262 0 -459 147q46 65 96 128 q60 -42 159 -76q112 -39 204 -39q91 0 212 43q103 36 151 72q50 -63 96 -128z"/>
<glyph glyph-name="glyph257" d="M-160 -636q-173 7 -263.5 53.5t-90.5 134.5v31q-119 44 -119 168q0 96 56.5 143.5t160.5 47.5h96v58h160v-179h-243q-96 0 -96 -63q0 -17 4 -27.5t14 -17.5t28 -9.5t47 -2.5h246v-122h-202v-22q0 -40 62 -55q3 -1 16 -3t31.5 -4.5t42.5 -4.5t50 -2v-124zM-247 -895 q-196 -147 -459 -147q-262 0 -459 147q46 65 96 128q60 -42 159 -76q112 -39 204 -39q91 0 212 43q103 36 151 72q50 -63 96 -128zM-247 -1205q-196 -147 -459 -147q-262 0 -459 147q46 65 96 128q60 -42 159 -76q112 -39 204 -39q91 0 212 43q103 36 151 72q50 -63 96 -128 z"/>
<glyph glyph-name="glyph258" d="M-160 -408q-20 -228 -212 -228q-100 0 -216 101q-119 104 -119 200q0 148 152 148h41v-124h-30q-38 0 -38 -38q0 -19 23.5 -45t54.5 -50t62.5 -41t47.5 -17q74 0 74 100v402h160v-408zM-247 -895q-196 -147 -459 -147q-262 0 -459 147q46 65 96 128q60 -42 159 -76 q112 -39 204 -39q91 0 212 43q103 36 151 72q50 -63 96 -128zM-247 -1205q-196 -147 -459 -147q-262 0 -459 147q46 65 96 128q60 -42 159 -76q112 -39 204 -39q91 0 212 43q103 36 151 72q50 -63 96 -128z"/>
<glyph glyph-name="glyph259" d="M-155 1308h-160q-135 322 -262 322h-38v160h68q90 0 188 -107q78 -85 125 -188q10 -22 79 -187zM-235 1248z"/>
<glyph glyph-name="glyph260" d="M-234 1248zM-154 1293h-160l-33 94q-24 66 -43 84q-54 54 -167 54h-138v160h148q59 0 117 -24q-83 155 -162 155h-103v150h148q138 0 251 -276z"/>
<glyph glyph-name="glyph261" d="M-239 1248zM-159 1298h-160q1 60 -28 92q-21 25 -86 55q-96 44 -125 59q-71 36 -119 72q-134 99 -134 346h160q0 -183 132 -251q83 -38 246 -123q75 -44 98 -106q16 -43 16 -144z"/>
<glyph glyph-name="glyph262" d="M-155 1308h-160q-135 322 -262 322h-38v160h68q90 0 188 -107q78 -85 125 -188q10 -22 79 -187zM-235 1248zM51 1617q0 -42 -29.5 -71.5t-71.5 -29.5t-71.5 29.5t-29.5 71.5t29.5 71.5t71.5 29.5t71.5 -29.5t29.5 -71.5z"/>
<glyph glyph-name="glyph263" d="M-234 1248zM-154 1293h-160l-33 94q-24 66 -43 84q-54 54 -167 54h-138v160h148q59 0 117 -24q-83 155 -162 155h-103v150h148q138 0 251 -276zM51 1617q0 -42 -29.5 -71.5t-71.5 -29.5t-71.5 29.5t-29.5 71.5t29.5 71.5t71.5 29.5t71.5 -29.5t29.5 -71.5z"/>
<glyph glyph-name="glyph264" d="M-239 1248zM-159 1298h-160q1 60 -28 92q-21 25 -86 55q-96 44 -125 59q-71 36 -119 72q-134 99 -134 346h160q0 -183 132 -251q83 -38 246 -123q75 -44 98 -106q16 -43 16 -144zM51 1617q0 -42 -29.5 -71.5t-71.5 -29.5t-71.5 29.5t-29.5 71.5t29.5 71.5t71.5 29.5 t71.5 -29.5t29.5 -71.5z"/>
<glyph glyph-name="glyph267" horiz-adv-x="264" d="M-386 1369h-158q0 95 -40 151q-37 53 -96 53q-56 0 -102 -52q-52 -59 -52 -153h-160q0 193 158 304q-130 33 -188 75q-84 62 -84 175h160q0 -89 146 -132q218 -66 270 -101q146 -98 146 -320zM474 1796q0 -142 -96 -239q-92 -93 -216 -93t-216 93q-96 97 -96 239h160 q2 -173 152 -173t152 173h160zM288 1176h-288v144h288v-144z"/>
<glyph glyph-name="uni0A01" unicode="ਁ" d="M278 1770q0 -80 -28 -139t-70 -98t-90.5 -58t-88.5 -19q-27 0 -58 8.5t-62 25.5t-59.5 43t-50.5 61t-35 79t-13 97l51 2q0 -60 24.5 -102t59.5 -68t74 -37.5t68 -11.5q28 0 67 11.5t74.5 37.5t60.5 67.5t25 102.5zM101 1754q0 -42 -29.5 -71.5t-71.5 -29.5t-71.5 29.5 t-29.5 71.5t29.5 71.5t71.5 29.5t71.5 -29.5t29.5 -71.5z"/>
<glyph glyph-name="uni0A03" unicode="ਃ" horiz-adv-x="750" d="M628 254q0 -50 -19.5 -96t-54 -81t-80.5 -56t-98 -21q-51 0 -97.5 20.5t-81 55t-55 81t-20.5 97.5q0 53 20.5 99t55 80.5t81 54.5t97.5 20q52 0 98 -20t80.5 -54.5t54 -81t19.5 -98.5zM532 258q0 30 -12.5 58t-34 49.5t-50 34.5t-59.5 13q-32 0 -60.5 -13t-50.5 -34.5 t-34.5 -49.5t-12.5 -58q0 -32 12.5 -60.5t34.5 -50.5t50.5 -34.5t60.5 -12.5q31 0 59.5 12.5t50 34.5t34 50.5t12.5 60.5zM628 1078q0 -50 -19.5 -96.5t-54 -81.5t-80.5 -56t-98 -21q-51 0 -97.5 20t-81 55t-55 81t-20.5 99q0 52 20.5 98t55 80.5t81 54.5t97.5 20 q52 0 98 -20.5t80.5 -55t54 -80.5t19.5 -97zM532 1079q0 30 -12.5 58.5t-34 50.5t-50 35t-59.5 13q-32 0 -60.5 -13t-50.5 -35t-34.5 -50.5t-12.5 -58.5q0 -32 12.5 -60t34.5 -50t50.5 -34.5t60.5 -12.5q31 0 59.5 12.5t50 34.5t34 50t12.5 60z"/>
<glyph glyph-name="glyph268" d="M-634 -310h-207q-13 0 -24 -2t-19 -9t-12.5 -20.5t-4.5 -35.5q0 -31 25.5 -63.5t61 -59t72.5 -43.5t61 -17q27 0 37 15.5t10 38.5v196zM-160 0v-695h-160v545h-154v-360q0 -97 -55 -146t-152 -49q-49 0 -111 26t-135 86q-27 22 -49.5 50.5t-38.5 58.5t-25 58.5t-9 50.5 q0 35 8.5 73t30 69.5t57.5 52t91 20.5h228v160h474z"/>
<glyph glyph-name="glyph269" d="M-320 -310h-325v-137q0 -25 14.5 -44t37.5 -32.5t51.5 -20.5t55.5 -7q78 0 122 29t44 87v125zM-160 0v-433q0 -63 -21.5 -113.5t-63 -86t-102 -54t-139.5 -18.5q-61 0 -118.5 18.5t-102 53t-71.5 83.5t-27 110v125q-101 12 -101 91q0 22 15.5 46.5t38 44t48 32.5t45.5 13 q32 0 54.5 -17t36.5 -55h348v160h160z"/>
<glyph glyph-name="glyph270" d="M-160 0v-267h-92q-55 0 -113.5 -5t-114 -20t-103.5 -42.5t-82 -72.5q28 -45 62.5 -72.5t69 -42.5t64.5 -20.5t48 -5.5h60t70 4.5t77.5 15.5t83.5 33v-38q0 -31 -26 -61.5t-68 -55t-94 -40t-103 -15.5q-74 0 -139.5 24.5t-119.5 66t-94.5 96.5t-63.5 117q25 60 73.5 110 t116 88t151 61t178.5 29v113h159z"/>
<glyph glyph-name="glyph271" d="M-440 -392q0 22 -17 45.5t-48.5 46t-75 43.5t-95.5 39q-70 -21 -116 -45t-73 -48.5t-37.5 -49t-10.5 -46.5q0 -45 26 -74t63 -45.5t77.5 -22.5t69.5 -6q54 0 97.5 9.5t74.5 29.5t48 51t17 73zM-596 0v-95q68 -26 124 -57.5t96.5 -70t63 -84.5t22.5 -100q0 -55 -16.5 -98 t-45 -76.5t-67 -57t-81 -38t-88 -21.5t-88.5 -7q-40 0 -84.5 6t-87.5 19.5t-82 35.5t-68.5 55t-47 78t-17.5 104q0 58 23 104t63.5 83.5t97 67.5t123.5 57v95h160z"/>
<glyph glyph-name="glyph272" d="M-203 0q-7 -57 -22.5 -105t-50.5 -79q14 -11 34 -30t38 -47.5t31 -67t13 -87.5q0 -83 -32 -138t-88 -89t-131.5 -48t-163.5 -14q-77 0 -147 20t-123 53t-85 74.5t-32 84.5q0 11 3 21t3 12q73 -50 164 -80t217 -30q132 0 191 33t59 107q0 28 -8.5 50t-22 39.5t-31.5 31 t-36 25.5q-18 -5 -42 -8t-49.5 -5.5t-50.5 -3.5t-45 -1q-90 0 -130.5 22.5t-40.5 73.5q0 57 46.5 82.5t123.5 25.5q22 0 48 -2.5t53 -6.5t52 -9.5t45 -10.5q26 14 33.5 44t10.5 63h166z"/>
<glyph glyph-name="glyph273" d="M-320 -319h-369q-2 -10 -8.5 -32.5t-15 -48.5t-18.5 -49.5t-18 -34.5q25 -14 69 -28.5t103 -14.5q64 0 128 13t129 42v153zM-718 0q16 -38 24 -77.5t10 -91.5h364v169h160v-740h-160v114q-22 -13 -52.5 -23.5t-65 -18.5t-71.5 -12.5t-71 -4.5q-60 0 -117 14t-107 37.5 t-92 54t-71 63.5q66 58 96 136.5t30 167.5q0 59 -18.5 113.5t-54.5 98.5h196z"/>
<glyph glyph-name="glyph274" d="M-160 0v-310h-559q7 -71 30 -117t59 -72t83.5 -36t102.5 -10q57 0 115 9.5t109 24t90.5 31.5t60.5 31q5 -5 6.5 -10.5t1.5 -10.5q0 -39 -18.5 -71.5t-50 -58.5t-72 -46t-84.5 -33t-88.5 -19.5t-83.5 -6.5q-83 0 -154 20.5t-125 66t-89 117.5t-45 175q-33 10 -53.5 20 t-32 22t-15.5 27t-4 34q0 27 13.5 53.5t35 47t48.5 33t55 12.5q66 0 101 -83h403v160h160z"/>
<glyph glyph-name="glyph275" d="M-818 -688q-47 12 -91.5 33.5t-78.5 55t-54.5 81t-20.5 111.5q0 58 23 104t63.5 83.5t97 67.5t123.5 57v95h160v-95q68 -26 124 -57.5t96.5 -70t63 -84.5t22.5 -100q0 -59 -19.5 -105t-52 -80t-75.5 -57t-91 -36l-45 141q63 15 98 52.5t35 99.5q0 22 -17 45.5t-48.5 46 t-75 43.5t-95.5 39q-70 -21 -116 -45t-73 -48.5t-37.5 -49t-10.5 -46.5q0 -30 12 -52.5t31.5 -39t44 -27.5t50.5 -17z"/>
<glyph glyph-name="glyph276" unicode="ੵ" d="M-666 0v-95q3 -87 11 -170t30.5 -147.5t64 -103.5t111.5 -39q55 0 98.5 22t76.5 53t56.5 65t38.5 59q10 -3 16 -17.5t6 -22.5q0 -59 -19 -114.5t-58 -98.5t-97.5 -69.5t-137.5 -26.5q-102 0 -169 44t-107.5 124t-59 192.5t-21.5 249.5v95h160z"/>
<glyph glyph-name="glyph277" d="M-160 0v-705h-160v341h-154v-231q-33 -16 -64 -25t-58.5 -13.5t-50.5 -6t-38 -1.5q-50 0 -103 12.5t-102 38.5t-91 67t-69 97q20 25 36 56t27 61.5t17 59.5t6 50q0 88 -67 199h170q23 -57 35 -107.5t12 -91.5q0 -20 -3 -47.5t-9.5 -58.5t-16.5 -63t-25 -60 q9 -15 29.5 -27t45 -21t50 -13.5t45.5 -4.5q5 0 14 0.5t18.5 1.5t18 2t13.5 2v274h314v214h160z"/>
<glyph glyph-name="glyph278" unicode="ੑ" d="M-823 -18q54 -81 109.5 -145t108.5 -113.5t101.5 -85t89 -60t70.5 -39.5l45 -23q30 -15 49 -27t29.5 -26t14.5 -34t4 -51q0 -43 -9 -61.5t-34 -18.5q-24 0 -48.5 8.5t-48.5 22.5t-47.5 33l-47.5 39t-57 52l-70.5 71.5l-77 84l-76.5 89t-69 87.5t-53 78q-5 7 -12 18.5 l-14 23.5t-11.5 22.5t-4.5 13.5q0 14 17 25t42 16z"/>
<glyph glyph-name="glyph279" horiz-adv-x="1024" d="M128 0v1320h768v-1320h-768zM256 128h512v1064h-512v-1064z"/>
<glyph glyph-name="glyph280" horiz-adv-x="1024" d="M128 0v1320h768v-1320h-768zM256 128h512v1064h-512v-1064z"/>
<glyph glyph-name="glyph281" horiz-adv-x="1024" d="M128 0v1320h768v-1320h-768zM256 128h512v1064h-512v-1064z"/>
<glyph glyph-name="glyph282" horiz-adv-x="1024" d="M128 0v1320h768v-1320h-768zM256 128h512v1064h-512v-1064z"/>
<glyph glyph-name="glyph282" horiz-adv-x="1024" d="M128 0v1320h768v-1320h-768zM256 128h512v1064h-512v-1064z"/>
<glyph glyph-name="dollar" unicode="$" horiz-adv-x="1025" d="M559 752q225 -47 303 -134q80 -88 80 -238q0 -158 -102 -275q-100 -115 -281 -126v-139h-96v137q-368 40 -393 396h175q19 -224 218 -259v503q-365 74 -365 356q0 158 98 256q100 98 267 113v138h96v-138q321 -24 352 -327h-176q-13 167 -176 190v-453zM463 772v435 q-190 -33 -190 -221q0 -100 52 -146q51 -45 138 -68zM559 114q208 25 208 255q0 95 -43 144q-43 50 -165 83v-482z"/>
<glyph glyph-name="A" unicode="A" horiz-adv-x="1231" d="M831 541l-233 611l-221 -611h454zM1233 0h-198l-153 401h-553l-146 -401h-184l506 1320h190z"/>
<glyph glyph-name="B" unicode="B" horiz-adv-x="1231" d="M1136 384q0 -187 -125 -285.5t-368 -98.5h-496v1320h470q103 0 187 -23.5t143 -67t91 -106t32 -140.5q0 -97 -47 -166t-143 -115q64 -15 112 -46.5t80 -73.5t48 -92.5t16 -105.5zM322 767h294q145 0 213.5 46t68.5 155q0 49 -15.5 85.5t-51 61t-92.5 36.5t-140 12h-277 v-396zM322 157h320q312 0 312 227q0 59 -16 102t-55 71t-104 41.5t-162 13.5h-295v-455z"/>
<glyph glyph-name="C" unicode="C" horiz-adv-x="1332" d="M1237 920h-179q-4 63 -33 113.5t-76 86t-110 54.5t-136 19q-100 0 -180.5 -35t-137 -102.5t-87 -166.5t-30.5 -228q0 -128 30.5 -227.5t86.5 -167.5t136 -103.5t178 -35.5q77 0 140.5 19t110 56.5t74.5 91.5t34 125h179q-9 -105 -52.5 -187t-114 -139t-164.5 -86.5 t-204 -29.5q-141 0 -255 48t-194 137.5t-123 216t-43 282.5t43.5 282.5t123.5 215.5t194 137.5t254 48.5q105 0 198 -30.5t165 -86t117.5 -134t54.5 -174.5z"/>
<glyph glyph-name="D" unicode="D" horiz-adv-x="1332" d="M1239 667q0 -667 -673 -667h-419v1320h419q673 0 673 -653zM1059 667q0 116 -23 208t-79.5 156t-152 98t-240.5 34h-242v-1006h242q144 0 239.5 34.5t152.5 100.5t80 160.5t23 214.5z"/>
<glyph glyph-name="E" unicode="E" horiz-adv-x="1231" d="M1133 0h-986v1320h956v-157h-781v-401h730v-157h-730v-448h811v-157z"/>
<glyph glyph-name="F" unicode="F" horiz-adv-x="1127" d="M1039 1163h-717v-408h623v-157h-623v-598h-175v1320h892v-157z"/>
<glyph glyph-name="G" unicode="G" horiz-adv-x="1436" d="M725 -23q-143 0 -260.5 49t-201.5 139t-130 216t-46 280q0 156 46 282t129.5 215t200 137t256.5 48q118 0 219 -30t177 -85.5t123 -133.5t56 -175h-182q-5 64 -34.5 115t-80 86t-120.5 53.5t-155 18.5q-101 0 -184.5 -35t-143.5 -103t-93 -167t-33 -226q0 -126 33 -225 t93 -167.5t144 -105t185 -36.5q145 0 250 46.5t175 140.5v202h-348v158h519v-674h-126l-45 139q-135 -162 -423 -162z"/>
<glyph glyph-name="H" unicode="H" horiz-adv-x="1332" d="M1185 0h-176v622h-687v-622h-175v1320h175v-541h687v541h176v-1320z"/>
<glyph glyph-name="I" unicode="I" horiz-adv-x="513" d="M345 0h-174v1320h174v-1320z"/>
<glyph glyph-name="J" unicode="J" horiz-adv-x="923" d="M775 423q0 -121 -23 -206t-69.5 -138t-116 -77.5t-161.5 -24.5q-81 0 -146.5 25.5t-111.5 73t-71 115t-25 150.5v36h174q0 -243 180 -243q46 0 82 11t61 41.5t38 85t13 142.5v906h176v-897z"/>
<glyph glyph-name="K" unicode="K" horiz-adv-x="1231" d="M1227 0h-229l-470 659l-206 -200v-459h-175v1320h175v-654l646 654h235l-553 -541z"/>
<glyph glyph-name="L" unicode="L" horiz-adv-x="1026" d="M965 0h-818v1320h175v-1163h643v-157z"/>
<glyph glyph-name="M" unicode="M" horiz-adv-x="1538" d="M1390 0h-167v1122l-377 -1122h-157l-376 1122v-1122h-166v1320h264l356 -1100l360 1100h263v-1320z"/>
<glyph glyph-name="N" unicode="N" horiz-adv-x="1332" d="M1185 0h-179l-693 1041v-1041h-166v1320h181l690 -1043v1043h167v-1320z"/>
<glyph glyph-name="O" unicode="O" horiz-adv-x="1436" d="M719 1343q137 0 253 -49t200 -138.5t131 -215.5t47 -279q0 -152 -46.5 -277.5t-130 -216t-199.5 -140.5t-255 -50t-255 49.5t-200 139.5t-130.5 216t-46.5 279q0 154 47.5 280t131.5 215.5t200 138t253 48.5zM718 127q99 0 182 36.5t143 105t93.5 167.5t33.5 225t-34 225 t-94 167t-142 103.5t-178 35.5q-99 0 -182 -36t-143.5 -104.5t-94.5 -167t-34 -223.5q0 -126 33.5 -225t93.5 -167.5t142.5 -105t180.5 -36.5z"/>
<glyph glyph-name="P" unicode="P" horiz-adv-x="1231" d="M147 1320h495q100 0 191.5 -17t161.5 -60.5t112 -118t42 -189.5q0 -201 -126 -304t-369 -103h-332v-528h-175v1320zM322 685h336q84 0 143 16t96.5 47t54.5 77t17 106q0 73 -25.5 118.5t-69 70.5t-101 34t-121.5 9h-330v-478z"/>
<glyph glyph-name="Q" unicode="Q" horiz-adv-x="1436" d="M1373 18l-104 -123l-217 172q-75 -45 -157.5 -67.5t-175.5 -22.5q-139 0 -255 49.5t-200 139.5t-130.5 216t-46.5 279q0 154 47.5 280t131.5 215.5t200 138t253 48.5t253 -49t200 -138.5t131 -215.5t47 -279q0 -149 -42.5 -271.5t-128.5 -218.5zM1048 273 q122 143 122 388q0 126 -34 225t-94 167t-142 103.5t-178 35.5q-99 0 -182 -36t-143.5 -104.5t-94.5 -167t-34 -223.5q0 -126 33.5 -225t93.5 -167.5t142.5 -105t180.5 -36.5q53 0 102 11.5t97 33.5l-132 104l104 123z"/>
<glyph glyph-name="R" unicode="R" horiz-adv-x="1332" d="M1249 0h-190l-124 354q-17 46 -45 84.5t-65 66.5t-82.5 43.5t-96.5 15.5h-324v-564h-175v1320h585q53 0 101 -2.5t91.5 -11t82.5 -25.5t74 -47q60 -53 91 -128t31 -155q0 -69 -20.5 -127t-59 -103t-93.5 -76t-124 -44v-3q138 -43 212 -239zM322 722h392q81 0 139.5 12 t96 39t55 71t17.5 107q0 114 -70 168.5t-212 54.5h-418v-452z"/>
<glyph glyph-name="S" unicode="S" horiz-adv-x="1231" d="M646 -23q-140 0 -244.5 33t-174 92.5t-105.5 141.5t-39 181h168q7 -75 40 -130t84.5 -91t118.5 -53t143 -17q74 0 134.5 15.5t103.5 45t66.5 71t23.5 93.5q0 54 -21.5 92t-70 66t-127 50.5t-193.5 46.5q-111 25 -191.5 57.5t-132 76t-76.5 99.5t-25 130q0 79 34 146.5 t96 116t148.5 76t191.5 27.5q111 0 202.5 -27t158 -78.5t104 -125t40.5 -166.5h-169q-27 239 -328 239q-147 0 -226.5 -54.5t-79.5 -147.5q0 -42 14.5 -71.5t50 -52t93.5 -41t145 -36.5l121.5 -26t122 -34.5t112 -49.5t92 -70t62.5 -97t23 -131q0 -87 -36.5 -160 t-102 -125.5t-155.5 -82t-196 -29.5z"/>
<glyph glyph-name="T" unicode="T" horiz-adv-x="1127" d="M1087 1163h-437v-1163h-175v1163h-434v157h1046v-157z"/>
<glyph glyph-name="U" unicode="U" horiz-adv-x="1332" d="M666 -23q-122 0 -208 24.5t-144 67t-91 99.5t-50 121.5t-21.5 133t-4.5 134.5v763h175v-760q0 -133 23 -216t66.5 -129.5t107.5 -63.5t147 -17q84 0 148 17t107.5 64t65.5 130t22 215v760h176v-763q0 -137 -23.5 -244.5t-82 -182t-159 -114t-254.5 -39.5z"/>
<glyph glyph-name="V" unicode="V" horiz-adv-x="1231" d="M1219 1320l-515 -1320h-180l-514 1320h188l416 -1132l418 1132h187z"/>
<glyph glyph-name="W" unicode="W" horiz-adv-x="1742" d="M1724 1320l-367 -1320h-167l-318 1148l-316 -1148h-168l-365 1320h184l263 -1076l297 1076h212l296 -1076l265 1076h184z"/>
<glyph glyph-name="X" unicode="X" horiz-adv-x="1231" d="M1222 0h-215l-391 560l-392 -560h-216l508 696l-457 624h214l341 -487l343 487h214l-457 -624z"/>
<glyph glyph-name="Y" unicode="Y" horiz-adv-x="1231" d="M1222 1320l-519 -760v-560h-175v560l-520 760h213l395 -606l393 606h213z"/>
<glyph glyph-name="Z" unicode="Z" horiz-adv-x="1127" d="M1078 0h-1044v164l819 999h-744v157h945v-165l-819 -998h843v-157z"/>
<glyph glyph-name="grave" unicode="`" horiz-adv-x="676" d="M505 1092h-135l-199 254h213z"/>
<glyph glyph-name="a" unicode="a" horiz-adv-x="1026" d="M732 251v212h-118q-370 0 -370 -201q0 -73 55 -112t146 -39q42 0 83.5 9.5t79 27.5t69.5 44t55 59zM732 97q-134 -120 -336 -120q-69 0 -128 20t-103 56t-69 87t-25 113q0 335 577 335h84q0 62 -4 110t-25.5 80.5t-68.5 49.5t-132 17q-226 0 -234 -163h-171 q18 297 415 297q90 0 162 -16t122.5 -56.5t77.5 -111t27 -178.5v-617h-169v97z"/>
<glyph glyph-name="b" unicode="b" horiz-adv-x="1026" d="M295 842q113 137 273 137q94 0 167.5 -35.5t124 -100t76.5 -155.5t26 -202q0 -116 -31 -210t-85 -160.5t-128 -102.5t-161 -36q-78 0 -143 23.5t-119 73.5v-74h-169v1320h169v-478zM295 227q111 -116 252 -116q109 0 173.5 94.5t64.5 280.5q0 176 -61 267.5t-170 91.5 q-142 0 -259 -164v-454z"/>
<glyph glyph-name="c" unicode="c" horiz-adv-x="923" d="M513 -23q-100 0 -182.5 33.5t-142 97t-92 157t-32.5 213.5q0 118 32 211.5t91 157.5t142 98t184 34q77 0 143 -20t116.5 -59.5t83 -97.5t42.5 -133h-175q-2 43 -19 76t-45 55t-65.5 33.5t-80.5 11.5q-61 0 -111 -23t-86 -69t-56 -115t-20 -160t20 -160t56 -115t86 -69 t111 -23q40 0 77.5 11t66 32.5t46.5 54t20 76.5h175q-10 -76 -43 -133.5t-83.5 -96.5t-116.5 -58.5t-142 -19.5z"/>
<glyph glyph-name="d" unicode="d" horiz-adv-x="1026" d="M732 276v453q-114 116 -253 116q-109 0 -174 -93.5t-65 -281.5q0 -177 61.5 -268t170.5 -91q71 0 136 40.5t124 124.5zM732 113q-116 -136 -273 -136q-96 0 -169.5 35.5t-124 100t-76 155.5t-25.5 202q0 118 31 212.5t85.5 160.5t128 101t159.5 35q78 0 143.5 -24.5 t120.5 -72.5v438h169v-1320h-169v113z"/>
<glyph glyph-name="e" unicode="e" horiz-adv-x="1026" d="M531 -23q-104 0 -190 33.5t-147.5 98t-95.5 157.5t-34 212q0 117 33 209.5t92 157.5t142 99.5t182 34.5q103 0 186 -34t141.5 -98.5t90 -157.5t31.5 -211v-41h-720q6 -83 29.5 -144t62 -101.5t88.5 -60.5t109 -20q42 0 84 11.5t75.5 33.5t54.5 54.5t22 74.5h178 q-11 -74 -46.5 -131.5t-90 -96.5t-125.5 -59.5t-152 -20.5zM782 571q-20 136 -92.5 205t-176.5 69q-51 0 -96 -17t-80 -51t-59 -85.5t-34 -120.5h538z"/>
<glyph glyph-name="f" unicode="f" horiz-adv-x="513" d="M325 823v-823h-169v823h-141v132h141v86q0 304 267 304q42 0 73 -3.5t53 -9.5v-147q-26 4 -50.5 6t-50.5 2q-65 0 -94 -34.5t-29 -119.5v-84h180v-132h-180z"/>
<glyph glyph-name="g" unicode="g" horiz-adv-x="1026" d="M901 74q0 -462 -416 -462q-90 0 -162 20t-122.5 57.5t-77.5 91.5t-27 122h176q0 -158 208 -158q61 0 108 14.5t79 51.5t48.5 99t16.5 157v46q-116 -136 -273 -136q-96 0 -169.5 35.5t-124 100t-76 155.5t-25.5 202q0 118 31 212.5t85.5 160.5t128 101t159.5 35 q78 0 143.5 -24.5t120.5 -72.5v73h169v-881zM732 276v453q-114 116 -253 116q-109 0 -174 -93.5t-65 -281.5q0 -177 61.5 -268t170.5 -91q71 0 136 40.5t124 124.5z"/>
<glyph glyph-name="h" unicode="h" horiz-adv-x="1026" d="M295 834q63 73 135 109t150 36q324 0 324 -354v-625h-171v617q0 59 -10 101t-31.5 68.5t-55 38.5t-80.5 12q-130 0 -261 -152v-685h-169v1320h169v-486z"/>
<glyph glyph-name="i" unicode="i" horiz-adv-x="420" d="M295 0h-169v955h169v-955zM295 1136h-169v184h169v-184z"/>
<glyph glyph-name="j" unicode="j" horiz-adv-x="420" d="M295 -52q0 -104 -17 -169t-48.5 -101.5t-77 -49.5t-101.5 -13q-35 0 -63.5 2t-51.5 6v145q23 -8 46.5 -10t46.5 -2q29 0 47.5 8.5t29.5 31t15.5 60.5t4.5 98v1001h169v-1007zM295 1136h-169v184h169v-184z"/>
<glyph glyph-name="k" unicode="k" horiz-adv-x="923" d="M916 0h-202l-313 486l-106 -107v-379h-169v1320h169v-748l370 383h214l-363 -356z"/>
<glyph glyph-name="l" unicode="l" horiz-adv-x="420" d="M295 0h-169v1320h169v-1320z"/>
<glyph glyph-name="m" unicode="m" horiz-adv-x="1538" d="M1418 0h-172v617q0 60 -8 102t-25.5 68.5t-45.5 38t-68 11.5q-125 0 -245 -152v-685h-167v617q0 60 -8.5 102t-26.5 68.5t-46 38t-68 11.5q-123 0 -243 -152v-685h-169v955h169v-121q123 145 269 145q208 0 267 -174q49 57 88.5 91.5t73.5 53t65.5 24t64.5 5.5 q295 0 295 -354v-625z"/>
<glyph glyph-name="n" unicode="n" horiz-adv-x="1026" d="M295 834q63 73 135 109t150 36q324 0 324 -354v-625h-171v617q0 59 -10 101t-31.5 68.5t-55 38.5t-80.5 12q-130 0 -261 -152v-685h-169v955h169v-121z"/>
<glyph glyph-name="o" unicode="o" horiz-adv-x="1026" d="M513 979q103 0 186 -34t141.5 -98.5t90 -157.5t31.5 -211q0 -119 -32 -212t-91 -157.5t-141.5 -98t-184.5 -33.5q-100 0 -182.5 33.5t-142 97t-92 157t-32.5 213.5q0 118 32 211.5t91 157.5t142 98t184 34zM513 111q60 0 110 23t86 69t56 115t20 160t-20 160t-56 115 t-86 69t-110 23q-61 0 -111 -23t-86 -69t-56 -115t-20 -160t20 -160t56 -115t86 -69t111 -23z"/>
<glyph glyph-name="p" unicode="p" horiz-adv-x="1026" d="M295 842q113 137 273 137q94 0 167.5 -35.5t124 -100t76.5 -155.5t26 -202q0 -116 -31 -210t-85 -160.5t-128 -102.5t-161 -36q-78 0 -143 23.5t-119 73.5v-441h-169v1322h169v-113zM295 227q111 -116 252 -116q109 0 173.5 94.5t64.5 280.5q0 176 -61 267.5t-170 91.5 q-142 0 -259 -164v-454z"/>
<glyph glyph-name="q" unicode="q" horiz-adv-x="1026" d="M901 -367h-169v480q-116 -136 -273 -136q-96 0 -169.5 35.5t-124 100t-76 155.5t-25.5 202q0 118 31 212.5t85.5 160.5t128 101t159.5 35q78 0 143.5 -24.5t120.5 -72.5v73h169v-1322zM732 276v453q-114 116 -253 116q-109 0 -174 -93.5t-65 -281.5q0 -177 61.5 -268 t170.5 -91q71 0 136 40.5t124 124.5z"/>
<glyph glyph-name="r" unicode="r" horiz-adv-x="614" d="M622 800q-36 12 -103 12q-66 0 -121 -34t-103 -102v-676h-169v955h169v-132q108 156 250 156q34 0 77 -8v-171z"/>
<glyph glyph-name="s" unicode="s" horiz-adv-x="923" d="M467 -23q-390 0 -411 308h171q1 -174 238 -174q53 0 93.5 11.5t67.5 32t41 48t14 60.5q0 34 -10.5 55t-41 37t-84.5 31.5t-141 38.5q-85 21 -146.5 42t-101 51t-58.5 74t-19 111q0 59 25 109.5t71.5 87.5t112.5 58t147 21q377 0 383 -268h-168q-9 134 -202 134 q-43 0 -79.5 -8.5t-63.5 -24.5t-42 -39.5t-15 -54.5q0 -28 7 -46t33.5 -33.5t78.5 -30.5t142 -37q87 -21 151 -43.5t106.5 -54.5t63 -78t20.5 -115q0 -65 -27 -120t-76.5 -96t-120.5 -64t-159 -23z"/>
<glyph glyph-name="t" unicode="t" horiz-adv-x="513" d="M497 -1q-28 -7 -58.5 -10t-63.5 -3q-76 0 -120.5 18.5t-68 55.5t-30.5 92t-7 128v543h-118v132h118v238h170v-238h156v-132h-156v-551q0 -50 6.5 -80t18.5 -46t29 -21t39 -5q23 0 44 2t41 5v-128z"/>
<glyph glyph-name="u" unicode="u" horiz-adv-x="1026" d="M732 121q-128 -144 -287 -144q-324 0 -324 353v625h172v-616q0 -60 10 -101.5t31.5 -68t55 -38.5t80.5 -12q143 0 262 153v683h169v-955h-169v121z"/>
<glyph glyph-name="v" unicode="v" horiz-adv-x="923" d="M898 955l-360 -955h-153l-360 955h184l252 -746l254 746h183z"/>
<glyph glyph-name="w" unicode="w" horiz-adv-x="1332" d="M1321 955l-286 -955h-163l-206 703l-206 -703h-164l-288 955h190l176 -728l214 728h156l216 -728l176 728h185z"/>
<glyph glyph-name="x" unicode="x" horiz-adv-x="923" d="M910 0h-211l-238 374l-237 -374h-210l352 497l-325 458h210l210 -333l209 333h212l-325 -458z"/>
<glyph glyph-name="y" unicode="y" horiz-adv-x="923" d="M179 -231q126 0 206 231l-360 955h184l252 -746l254 746h183l-360 -955q-32 -86 -62.5 -157t-67 -122.5t-84.5 -80t-115 -28.5q-32 0 -60.5 3t-51.5 10v157q20 -8 41 -10.5t41 -2.5z"/>
<glyph glyph-name="z" unicode="z" horiz-adv-x="923" d="M883 0h-846v145l595 667h-560v143h781v-143l-594 -667h624v-145z"/>
<glyph glyph-name="Euro" unicode="€" horiz-adv-x="1025" d="M927 420q-41 -443 -415 -443q-365 0 -420 495h-92v96h85q-2 27 -2 90q0 61 2 86h-85v97h92q52 501 420 501q176 0 283 -109t132 -310h-175q-12 134 -75.5 210t-164.5 76q-206 0 -245 -368h274l-27 -97h-254q-2 -25 -2 -86q0 -63 2 -90h200l-27 -96h-166q39 -361 245 -361 q211 0 240 309h175z"/>
<glyph glyph-name="quotesinglbase" unicode="‚" horiz-adv-x="554" d="M377 0q0 -64 -13 -116t-38 -88.5t-62.5 -56.5t-86.5 -20v93q97 0 97 188h-97v199h200v-199z"/>
<glyph glyph-name="florin" unicode="ƒ" horiz-adv-x="1025" d="M948 1154q-71 20 -137 20q-42 0 -69 -22.5t-45 -121.5l-18 -94h183l-21 -125h-185l-171 -964q-22 -124 -79 -179t-163 -55q-91 0 -184 18v144q97 -20 151 -20q62 0 81.5 33t32.5 105l161 918h-181l20 125h183l20 122q26 161 91.5 214.5t164.5 53.5q92 0 165 -14v-158z "/>
<glyph glyph-name="quotedblbase" unicode="„" horiz-adv-x="781" d="M640 0q0 -64 -12.5 -116t-37.5 -88.5t-62.5 -56.5t-86.5 -20v93q98 0 98 188h-98v199h199v-199zM340 0q0 -64 -13 -116t-38 -88.5t-62.5 -56.5t-85.5 -20v93q97 0 97 188h-97v199h199v-199z"/>
<glyph glyph-name="dagger" unicode="†" horiz-adv-x="1025" d="M953 779h-355v-1166h-171v1166h-355v144h355v396h171v-396h355v-144z"/>
<glyph glyph-name="daggerdbl" unicode="‡" horiz-adv-x="1025" d="M953 9h-355v-396h-171v396h-355v144h355v626h-355v144h355v396h171v-396h353v-144h-353v-626h355v-144z"/>
<glyph glyph-name="circumflex" unicode="ˆ" horiz-adv-x="696" d="M633 1092h-184l-102 152l-101 -152h-183l199 253h172z"/>
<glyph glyph-name="perthousand" unicode="‰" horiz-adv-x="1843" d="M299 1342q128 0 203 -92t75 -258q0 -167 -75 -258.5t-203 -91.5q-129 0 -203 91.5t-74 258.5q0 166 74 258t203 92zM299 752q134 0 134 240q0 239 -134 239q-133 0 -133 -239q0 -240 133 -240zM1021 1319l-702 -1319h-131l702 1319h131zM1543 679q128 0 203 -92.5 t75 -258.5t-75 -258.5t-203 -92.5t-202.5 92t-74.5 259t74.5 259t202.5 92zM1543 88q135 0 135 240t-135 240q-133 0 -133 -240t133 -240zM911 679q128 0 203 -92.5t75 -258.5t-75 -258.5t-203 -92.5q-129 0 -203 92t-74 259t74 259t203 92zM911 88q134 0 134 240t-134 240 q-133 0 -133 -240t133 -240z"/>
<glyph glyph-name="Scaron" unicode="Š" horiz-adv-x="1224" d="M646 -23q-140 0 -244.5 33t-174 92.5t-105.5 141.5t-39 181h168q7 -75 40 -130t84.5 -91t118.5 -53t143 -17q74 0 134.5 15.5t103.5 45t66.5 71t23.5 93.5q0 54 -21.5 92t-70 66t-127 50.5t-193.5 46.5q-111 25 -191.5 57.5t-132 76t-76.5 99.5t-25 130q0 79 34 146.5 t96 116t148.5 76t191.5 27.5q111 0 202.5 -27t158 -78.5t104 -125t40.5 -166.5h-169q-27 239 -328 239q-147 0 -226.5 -54.5t-79.5 -147.5q0 -42 14.5 -71.5t50 -52t93.5 -41t145 -36.5q89 -18 159 -38t121 -40q50 -18 96 -47t81 -69.5t55.5 -93.5t20.5 -120 q0 -87 -36.5 -160t-102 -125.5t-155.5 -82t-196 -29.5zM882 1658l-200 -252h-171l-200 252h183l103 -152l101 152h184z"/>
<glyph glyph-name="guilsinglleft" unicode="‹" horiz-adv-x="665" d="M542 70h-145l-310 445l310 445h145l-254 -445z"/>
<glyph glyph-name="OE" unicode="Œ" horiz-adv-x="1844" d="M1747 0h-740v175q-30 -45 -71 -81.5t-89.5 -62.5t-102 -40t-107.5 -14q-127 0 -228.5 46.5t-173 134.5t-110 215t-38.5 288q0 160 38.5 286.5t109.5 214.5t173 134.5t229 46.5q53 0 106.5 -14t102 -40t90 -62t71.5 -80v173h710v-157h-534v-401h484v-157h-484v-448h564 v-157zM636 127q371 0 371 534q0 531 -365 531q-88 0 -157.5 -34.5t-117.5 -102t-73.5 -166.5t-25.5 -228t25 -228.5t72.5 -167.5t115.5 -103t155 -35z"/>
<glyph glyph-name="Zcaron" unicode="Ž" horiz-adv-x="1127" d="M1078 0h-1044v164l819 999h-744v157h945v-165l-819 -998h843v-157zM862 1658l-200 -252h-171l-200 252h183l103 -152l101 152h184z"/>
<glyph glyph-name="quotedblleft" unicode="“" horiz-adv-x="614" d="M538 897h-184v185q0 118 46.5 189t137.5 71v-87q-90 0 -90 -173h90v-185zM260 897h-184v185q0 118 46.5 189t137.5 71v-87q-91 0 -91 -173h91v-185z"/>
<glyph glyph-name="quotedblright" unicode="”" horiz-adv-x="614" d="M538 1136q0 -119 -46.5 -189.5t-137.5 -70.5v86q91 0 91 174h-91v183h184v-183zM260 1136q0 -119 -47 -189.5t-137 -70.5v86q90 0 90 174h-90v183h184v-183z"/>
<glyph glyph-name="bullet" unicode="•" horiz-adv-x="799" d="M667 781q0 -56 -22 -105t-59 -86.5t-85.5 -59t-101.5 -21.5q-56 0 -104.5 21.5t-85.5 59t-58 86.5t-21 105q0 55 21 104t58 86t85.5 58.5t104.5 21.5q55 0 104 -21.5t85.5 -58.5t57.5 -86t21 -104z"/>
<glyph glyph-name="tilde" unicode="˜" horiz-adv-x="730" d="M667 1328q0 -49 -13.5 -87t-38 -64.5t-58 -40.5t-72.5 -14q-20 0 -56.5 11.5t-74 26l-68.5 26t-40 11.5q-57 0 -64 -78h-119q0 48 14 86.5t38.5 65.5t58 41.5t72.5 14.5q19 0 54.5 -12t73 -27l69 -27t42.5 -12q55 0 64 79h118z"/>
<glyph glyph-name="trademark" unicode="™" horiz-adv-x="1260" d="M1166 676h-111v525l-121 -525h-111l-121 525v-525h-112v643h177l111 -496l112 496h176v-643zM516 1211h-175v-535h-121v535h-175v108h471v-108z"/>
<glyph glyph-name="scaron" unicode="š" horiz-adv-x="923" d="M467 -23q-390 0 -411 308h171q1 -174 238 -174q53 0 93.5 11.5t67.5 32t41 48t14 60.5q0 34 -10.5 55t-41 37t-84.5 31.5t-141 38.5q-85 21 -146.5 42t-101 51t-58.5 74t-19 111q0 59 25 109.5t71.5 87.5t112.5 58t147 21q377 0 383 -268h-168q-9 134 -202 134 q-43 0 -79.5 -8.5t-63.5 -24.5t-42 -39.5t-15 -54.5q0 -28 7 -46t33.5 -33.5t78.5 -30.5t142 -37q87 -21 151 -43.5t106.5 -54.5t63 -78t20.5 -115q0 -65 -27 -120t-76.5 -96t-120.5 -64t-159 -23zM711 1345l-199 -256h-173l-200 256h183l103 -155l102 155h184z"/>
<glyph glyph-name="guilsinglright" unicode="›" horiz-adv-x="665" d="M576 515l-310 -445h-143l254 445l-254 445h143z"/>
<glyph glyph-name="oe" unicode="œ" horiz-adv-x="1742" d="M1678 437h-721q5 -84 29.5 -145t63 -101.5t89 -60t107.5 -19.5q44 0 86 11.5t75 34t54 55t24 73.5h173q-9 -74 -44 -131t-90 -96.5t-126 -60t-152 -20.5q-242 0 -374 173q-119 -173 -359 -173q-100 0 -182.5 33.5t-142 97t-92 157t-32.5 213.5q0 118 32 211.5t91 157.5 t142 98t184 34q235 0 359 -172q125 172 356 172q103 0 186.5 -34t142 -98.5t90 -157.5t31.5 -211v-41zM1497 571q-10 68 -33.5 119t-59 85.5t-80 52t-96.5 17.5q-51 0 -95 -17t-79 -51t-59 -85.5t-33 -120.5h535zM513 111q60 0 110 23t86 69t56 115t20 160t-20 160t-56 115 t-86 69t-110 23q-61 0 -111 -23t-86 -69t-56 -115t-20 -160t20 -160t56 -115t86 -69t111 -23z"/>
<glyph glyph-name="zcaron" unicode="ž" horiz-adv-x="923" d="M883 0h-846v145l595 667h-560v143h781v-143l-594 -667h624v-145zM721 1345l-199 -256h-173l-200 256h183l103 -155l102 155h184z"/>
<glyph glyph-name="Ydieresis" unicode="Ÿ" horiz-adv-x="1231" d="M1222 1320l-519 -760v-560h-175v560l-520 760h213l395 -606l393 606h213zM873 1429h-165v186h165v-186zM526 1429h-168v186h168v-186z"/>
<glyph glyph-name="exclamdown" unicode="¡" horiz-adv-x="512" d="M348 770h-184v185h184v-185zM348 -365h-184v286l35 705h114l35 -705v-286z"/>
<glyph glyph-name="cent" unicode="¢" horiz-adv-x="1025" d="M934 285q-19 -149 -123.5 -228.5t-261.5 -79.5q-47 0 -99 10l-59 -212l-94 26l58 213q-253 115 -253 463q0 238 121.5 368.5t325.5 130.5q38 0 74 -5l57 209l94 -26l-57 -205q194 -74 217 -280h-174q-3 94 -81 142l-192 -693q30 -7 62 -7q85 0 146 45t65 129h174z M586 842q-10 2 -37 2q-122 0 -197.5 -92t-75.5 -275q0 -230 120 -317z"/>
<glyph glyph-name="sterling" unicode="£" horiz-adv-x="1025" d="M951 18q-88 -41 -191 -41q-68 0 -199.5 41t-197.5 41q-145 0 -319 -82v163q93 49 141.5 127t48.5 216q0 57 -14 113h-176v132h139q-46 155 -46 238q0 176 113.5 276t294.5 100q170 0 278.5 -88.5t120.5 -252.5h-175q-18 208 -227 208q-104 0 -167.5 -67.5t-63.5 -160.5 q0 -102 50 -253h282v-132h-252q15 -42 15 -80q0 -116 -37 -192t-126 -145q64 20 131 20q78 0 202 -29.5t176 -29.5q103 0 199 50v-172z"/>
<glyph glyph-name="currency" unicode="¤" horiz-adv-x="1110" d="M1035 344l-114 -115l-135 135q-107 -71 -232 -71q-127 0 -229 73l-137 -137l-114 115l135 135q-68 107 -68 227q0 119 68 226q3 0 -135 138l114 113q137 -131 137 -135q99 71 229 71t232 -71l135 135l114 -113l-134 -138q67 -106 67 -226q0 -123 -70 -227zM554 453 q52 0 98 20t80.5 54.5t55 80.5t20.5 98t-20.5 98.5t-55 81t-81 54.5t-97.5 20t-97 -20t-81 -54.5t-55.5 -81t-20.5 -98.5t20.5 -98t55 -80.5t80.5 -54.5t98 -20z"/>
<glyph glyph-name="yen" unicode="¥" horiz-adv-x="1026" d="M1026 1320l-345 -602h287v-126h-370v-163h370v-125h-370v-304h-165v304h-374v125h374v163h-374v126h288l-346 602h193l319 -584l321 584h192z"/>
<glyph glyph-name="brokenbar" unicode="¦" horiz-adv-x="519" d="M336 -419h-152v747h152v-747zM336 682h-152v746h152v-746z"/>
<glyph glyph-name="section" unicode="§" horiz-adv-x="1025" d="M693 1030q-16 179 -192 179q-81 0 -126 -40t-45 -103q0 -61 56 -113t256.5 -172.5t252 -198t51.5 -164.5q0 -162 -205 -260q142 -90 142 -250q0 -127 -100 -211t-257 -84q-164 0 -268.5 83t-125.5 241h176q19 -188 218 -188q90 0 139 46.5t49 110.5q0 63 -67 118 t-271 179.5t-251.5 203.5t-47.5 172q0 163 203 256q-120 103 -120 223q0 110 89 197t243 87q167 0 263.5 -83t112.5 -229h-175zM661 221q122 62 122 166q0 61 -49 117.5t-179 135t-196 132.5q-120 -57 -120 -174q0 -66 44.5 -118.5t184 -137t193.5 -121.5z"/>
<glyph glyph-name="dieresis" unicode="¨" horiz-adv-x="667" d="M591 1133h-165v186h165v-186zM244 1133h-168v186h168v-186z"/>
<glyph glyph-name="copyright" unicode="©" horiz-adv-x="1358" d="M681 1345q92 0 177.5 -24.5t161 -69.5t137.5 -107.5t107 -138t69.5 -162t24.5 -178.5q0 -93 -24 -179.5t-68.5 -162.5t-106 -138t-137 -107t-162 -69.5t-179.5 -24.5t-179.5 24.5t-162 68.5t-138 106t-107.5 138t-69.5 163t-24.5 181q0 93 24.5 180t69.5 162.5 t107.5 137.5t138 106.5t162 69t179.5 24.5zM680 96q77 0 148.5 20.5t134.5 57.5t115 89t89.5 115.5t58 136t20.5 150.5q0 76 -20.5 148t-57.5 135t-88.5 115t-114.5 89.5t-135 58t-150 20.5t-150 -20.5t-135.5 -58t-115.5 -89t-89 -114.5t-57.5 -135t-20.5 -149 q0 -117 45 -221t122.5 -181t180.5 -122t220 -45zM1005 521q-62 -248 -323 -248q-81 0 -146.5 27.5t-112.5 78.5t-72.5 123t-25.5 160q0 89 25.5 160t72.5 120.5t114 75.5t151 26q61 0 113 -15.5t92.5 -44.5t67.5 -71.5t37 -96.5h-127q-27 130 -186 130q-56 0 -100 -20 t-74 -57.5t-46 -90.5t-16 -119q0 -62 16.5 -113.5t47 -88.5t73 -57.5t95.5 -20.5q165 0 198 142h126z"/>
<glyph glyph-name="ordfeminine" unicode="ª" horiz-adv-x="738" d="M526 946v119h-88q-250 0 -250 -133q0 -88 129 -88q25 0 55 8t59.5 22t54.5 32.5t40 39.5zM526 744v71q-95 -86 -246 -86q-52 0 -95.5 14t-75.5 40.5t-50 63t-18 81.5q0 243 420 243h65q0 57 -12 90t-33.5 49.5t-51 21t-65.5 4.5q-154 0 -158 -97h-142q18 215 306 215 q72 0 127 -14t92.5 -45.5t56.5 -81t19 -121.5v-448h-139zM654 505h-576v115h576v-115z"/>
<glyph glyph-name="guillemotleft" unicode="«" horiz-adv-x="1110" d="M971 70h-144l-308 445l308 445h144l-253 -445zM591 70h-143l-310 445l310 445h143l-254 -445z"/>
<glyph glyph-name="logicalnot" unicode="¬" horiz-adv-x="1256" d="M1088 654v-400h-133v266h-764v134h897z"/>
<glyph glyph-name="sfthyphen" unicode="­" horiz-adv-x="1249" d="M1035 557h-821v132h821v-132z"/>
<glyph glyph-name="registered" unicode="®" horiz-adv-x="1358" d="M681 1345q92 0 177.5 -24.5t161 -69.5t137.5 -107.5t107 -138t69.5 -162t24.5 -178.5q0 -93 -24 -179.5t-68.5 -162.5t-106 -138t-137 -107t-162 -69.5t-179.5 -24.5t-179.5 24.5t-162 68.5t-138 106t-107.5 138t-69.5 163t-24.5 181q0 93 24.5 180t69.5 162.5 t107.5 137.5t138 106.5t162 69t179.5 24.5zM680 96q77 0 148.5 20.5t134.5 57.5t115 89t89.5 115.5t58 136t20.5 150.5q0 76 -20.5 148t-57.5 135t-88.5 115t-114.5 89.5t-135 58t-150 20.5t-150 -20.5t-135.5 -58t-115.5 -89t-89 -114.5t-57.5 -135t-20.5 -149 q0 -117 45 -221t122.5 -181t180.5 -122t220 -45zM984 288h-134l-57 160q-26 72 -72.5 107.5t-121.5 35.5h-93v-303h-116v730h275q289 0 289 -202q0 -194 -190 -207q98 -29 145 -139zM506 692h148q175 0 175 115q0 112 -179 112h-144v-227z"/>
<glyph glyph-name="macron" unicode="¯" horiz-adv-x="998" d="M1009 1578h-1020v98h1020v-98z"/>
<glyph glyph-name="degree" unicode="°" horiz-adv-x="799" d="M399 1447q55 0 104 -22t85.5 -59.5t57.5 -86t21 -102.5q0 -56 -21.5 -105.5t-58 -86.5t-85 -58.5t-103.5 -21.5t-104 21.5t-85.5 58t-58 86t-21.5 106.5q0 55 21.5 104t58 86t85.5 58.5t104 21.5zM399 1011q34 0 64.5 13.5t52.5 36t35 53t13 63.5q0 34 -13 63.5 t-35.5 51.5t-52.5 35t-64 13t-64 -12.5t-52 -34.5t-34.5 -52t-12.5 -64q0 -33 12.5 -63.5t34.5 -53t51.5 -36t64.5 -13.5z"/>
<glyph glyph-name="plusminus" unicode="±" horiz-adv-x="1166" d="M1055 665h-390v-392h-164v392h-390v162h390v392h164v-392h390v-162zM1055 0h-944v162h944v-162z"/>
<glyph glyph-name="twosuperior" unicode="²" horiz-adv-x="665" d="M631 714h-606q22 162 251 299q64 39 102.5 67t59 51t27.5 44.5t7 47.5q0 108 -133 108q-125 0 -148 -97h-147q40 213 296 213q67 0 120.5 -16t90.5 -44.5t56.5 -68.5t19.5 -87q0 -42 -10.5 -76t-34.5 -65t-63 -61t-97 -65q-57 -35 -100 -67.5t-72 -63.5h381v-119z"/>
<glyph glyph-name="threesuperior" unicode="³" horiz-adv-x="665" d="M461 1097q167 -32 167 -176q0 -48 -20.5 -89t-58.5 -71t-92.5 -47.5t-122.5 -17.5q-273 0 -303 209h153q10 -96 144 -96q148 0 148 131q0 100 -151 100h-56v108q175 0 175 102q0 82 -118 82q-110 0 -127 -80h-151q39 195 280 195q63 0 112 -14t83.5 -38.5t52.5 -57.5 t18 -72q0 -132 -133 -168z"/>
<glyph glyph-name="acute" unicode="´" horiz-adv-x="676" d="M505 1346l-199 -254h-135l121 254h213z"/>
<glyph glyph-name="mu" unicode="µ" horiz-adv-x="1026" d="M1006 -10h-89q-156 0 -185 131q-128 -144 -283 -144q-80 0 -154 43v-387h-169v1322h169v-649q0 -187 190 -187q36 0 65.5 6.5t57.5 24t58 47t66 75.5v683h169v-741q0 -59 23 -82.5t82 -23.5v-118z"/>
<glyph glyph-name="mu" unicode="μ" horiz-adv-x="1026" d="M1006 -10h-89q-156 0 -185 131q-128 -144 -283 -144q-80 0 -154 43v-387h-169v1322h169v-649q0 -187 190 -187q36 0 65.5 6.5t57.5 24t58 47t66 75.5v683h169v-741q0 -59 23 -82.5t82 -23.5v-118z"/>
<glyph glyph-name="paragraph" unicode="¶" horiz-adv-x="991" d="M994 1189h-127v-1556h-152v1556h-202v-1556h-151v942q-89 4 -157 34t-114 79.5t-69 114t-23 137.5q0 91 30 162t85.5 119.5t134 74t176.5 25.5h569v-132z"/>
<glyph glyph-name="periodcentered" unicode="·" horiz-adv-x="583" d="M116 799q0 35 13.5 66t37 54t54 36t64.5 13q35 0 66 -13.5t54 -36.5t36.5 -54t13.5 -65q0 -35 -13.5 -66t-36.5 -54t-54 -37t-66 -14q-34 0 -64.5 13.5t-54 37t-37 54.5t-13.5 66z"/>
<glyph glyph-name="cedilla" unicode="¸" horiz-adv-x="665" d="M360 -67q42 -5 69.5 -15.5t44.5 -27t24 -41t7 -58.5q0 -48 -15.5 -82.5t-48.5 -57.5t-85.5 -34t-126.5 -11q-21 0 -46 1t-53 3v114q28 -3 54 -5t52 -2q124 0 124 77q0 74 -135 74v132h135v-67z"/>
<glyph glyph-name="onesuperior" unicode="¹" horiz-adv-x="665" d="M463 714h-142v478q-68 -48 -217 -48v121q254 0 254 182h105v-733z"/>
<glyph glyph-name="ordmasculine" unicode="º" horiz-adv-x="729" d="M366 1454q70 0 129 -25.5t102 -73.5t66.5 -115.5t23.5 -151.5q0 -87 -23.5 -155t-66.5 -115t-102 -72t-129 -25q-73 0 -132.5 24.5t-101.5 71.5t-65 115t-23 156q0 85 23.5 152.5t66 115t102 73t130.5 25.5zM366 849q176 0 176 239q0 235 -176 235t-176 -235 q0 -239 176 -239zM654 505h-576v115h576v-115z"/>
<glyph glyph-name="guillemotright" unicode="»" horiz-adv-x="1110" d="M971 515l-308 -445h-144l254 445l-254 445h144zM591 515l-310 -445h-143l254 445l-254 445h143z"/>
<glyph glyph-name="onequarter" unicode="¼" horiz-adv-x="1540" d="M448 661h-133v442q-62 -45 -202 -45v112q236 0 236 168h99v-677zM1324 1321l-936 -1321h-144l938 1321h142zM1456 139h-94v-139h-129v139h-346v109l365 428h110v-421h94v-116zM1233 255v257l-217 -257h217z"/>
<glyph glyph-name="onehalf" unicode="½" horiz-adv-x="1540" d="M448 661h-133v442q-62 -45 -202 -45v112q236 0 236 168h99v-677zM1291 1321l-937 -1321h-144l939 1321h142zM1486 0h-559q18 148 231 277q62 37 98.5 63t55 46.5t23.5 39.5t5 44q0 101 -122 101q-116 0 -137 -91h-136q36 198 274 198q62 0 111.5 -15t83.5 -41t52 -63 t18 -80q0 -39 -9 -70.5t-31 -60t-58.5 -57t-91.5 -62.5q-106 -64 -158 -120h350v-109z"/>
<glyph glyph-name="threequarters" unicode="¾" horiz-adv-x="1540" d="M445 1016q154 -32 154 -164q0 -44 -19 -81.5t-54 -66t-85 -44.5t-113 -16q-255 0 -282 193h142q9 -88 133 -88q138 0 138 121q0 92 -141 92h-50v100q161 0 161 94q0 77 -110 77q-102 0 -117 -75h-141q38 180 260 180q58 0 103.5 -13t77 -35.5t48 -53t16.5 -66.5 q0 -124 -121 -154zM1340 1321l-937 -1321h-142l939 1321h140zM1456 139h-94v-139h-129v139h-346v109l365 428h110v-421h94v-116zM1233 255v257l-217 -257h217z"/>
<glyph glyph-name="questiondown" unicode="¿" horiz-adv-x="1026" d="M940 -7q-8 -88 -42.5 -158.5t-90.5 -120t-131 -76t-163 -26.5q-94 0 -172 27t-134 75t-87 114.5t-31 144.5q0 46 9.5 86t31.5 79t59 79t91 86q56 47 88.5 80t48.5 67t20 75.5t4 105.5h158q0 -169 -38 -245q-20 -39 -55.5 -80.5t-87.5 -85.5q-53 -46 -84 -78.5t-47 -58.5 t-20 -49t-4 -50q0 -53 18.5 -97t51.5 -75.5t79 -49t100 -17.5q216 0 254 248h174zM607 771h-184v184h184v-184z"/>
<glyph glyph-name="Agrave" unicode="À" horiz-adv-x="1231" d="M831 541l-233 611l-221 -611h454zM1233 0h-198l-153 401h-553l-146 -401h-184l506 1320h190zM782 1388h-135l-199 254h213z"/>
<glyph glyph-name="Aacute" unicode="Á" horiz-adv-x="1231" d="M831 541l-233 611l-221 -611h454zM1233 0h-198l-153 401h-553l-146 -401h-184l506 1320h190zM782 1642l-199 -254h-135l121 254h213z"/>
<glyph glyph-name="Acircumflex" unicode="Â" horiz-adv-x="1231" d="M831 541l-233 611l-221 -611h454zM1233 0h-198l-153 401h-553l-146 -401h-184l506 1320h190zM900 1388h-184l-102 152l-101 -152h-183l199 253h172z"/>
<glyph glyph-name="Atilde" unicode="Ã" horiz-adv-x="1231" d="M831 541l-233 611l-221 -611h454zM1233 0h-198l-153 401h-553l-146 -401h-184l506 1320h190zM917 1624q0 -49 -13.5 -87t-38 -64.5t-58 -40.5t-72.5 -14q-20 0 -56.5 11.5t-74 26l-68.5 26t-40 11.5q-57 0 -64 -78h-119q0 48 14 86.5t38.5 65.5t58 41.5t72.5 14.5 q19 0 54.5 -12t73 -27l69 -27t42.5 -12q55 0 64 79h118z"/>
<glyph glyph-name="Adieresis" unicode="Ä" horiz-adv-x="1231" d="M831 541l-233 611l-221 -611h454zM1233 0h-198l-153 401h-553l-146 -401h-184l506 1320h190zM873 1429h-165v186h165v-186zM526 1429h-168v186h168v-186z"/>
<glyph glyph-name="Aring" unicode="Å" horiz-adv-x="1231" d="M831 541l-233 611l-221 -611h454zM1233 0h-198l-153 401h-553l-146 -401h-184l506 1320h190zM601 1648q34 0 63.5 -13.5t51.5 -36t35 -52.5t13 -62q0 -33 -12.5 -63t-34.5 -52.5t-52 -34.5t-64 -12q-35 0 -64.5 11.5t-51.5 34t-34.5 52t-12.5 64.5q0 33 13 62.5t35 52 t51.5 36t63.5 13.5zM601 1385q41 0 69 28.5t28 70.5q0 19 -7.5 37t-20.5 31t-31 21t-38 8t-37 -8t-30.5 -21t-21 -31t-7.5 -37q0 -21 7.5 -39t21 -31.5t30.5 -21t37 -7.5z"/>
<glyph glyph-name="AE" unicode="Æ" horiz-adv-x="1844" d="M1743 0h-863v382h-466l-212 -382h-202l762 1320h951v-157h-659v-401h607v-157h-607v-448h689v-157zM880 538v625h-38l-345 -625h383z"/>
<glyph glyph-name="Ccedilla" unicode="Ç" horiz-adv-x="1332" d="M1237 920h-179q-4 63 -33 113.5t-76 86t-110 54.5t-136 19q-100 0 -180.5 -35t-137 -102.5t-87 -166.5t-30.5 -228q0 -128 30.5 -227.5t86.5 -167.5t136 -103.5t178 -35.5q77 0 140.5 19t110 56.5t74.5 91.5t34 125h179q-9 -105 -52.5 -187t-114 -139t-164.5 -86.5 t-204 -29.5q-141 0 -255 48t-194 137.5t-123 216t-43 282.5t43.5 282.5t123.5 215.5t194 137.5t254 48.5q105 0 198 -30.5t165 -86t117.5 -134t54.5 -174.5zM708 -67q42 -5 69.5 -15.5t44.5 -27t24 -41t7 -58.5q0 -48 -15.5 -82.5t-48.5 -57.5t-85.5 -34t-126.5 -11 q-21 0 -46 1t-53 3v114q28 -3 54 -5t52 -2q124 0 124 77q0 74 -135 74v132h135v-67z"/>
<glyph glyph-name="Egrave" unicode="È" horiz-adv-x="1231" d="M1133 0h-986v1320h956v-157h-781v-401h730v-157h-730v-448h811v-157zM782 1388h-135l-199 254h213z"/>
<glyph glyph-name="Eacute" unicode="É" horiz-adv-x="1231" d="M1133 0h-986v1320h956v-157h-781v-401h730v-157h-730v-448h811v-157zM782 1642l-199 -254h-135l121 254h213z"/>
<glyph glyph-name="Ecircumflex" unicode="Ê" horiz-adv-x="1231" d="M1133 0h-986v1320h956v-157h-781v-401h730v-157h-730v-448h811v-157zM900 1388h-184l-102 152l-101 -152h-183l199 253h172z"/>
<glyph glyph-name="Edieresis" unicode="Ë" horiz-adv-x="1231" d="M1133 0h-986v1320h956v-157h-781v-401h730v-157h-730v-448h811v-157zM873 1429h-165v186h165v-186zM526 1429h-168v186h168v-186z"/>
<glyph glyph-name="Igrave" unicode="Ì" horiz-adv-x="513" d="M345 0h-174v1320h174v-1320zM424 1388h-135l-199 254h213z"/>
<glyph glyph-name="Iacute" unicode="Í" horiz-adv-x="513" d="M345 0h-174v1320h174v-1320zM424 1642l-199 -254h-135l121 254h213z"/>
<glyph glyph-name="Icircumflex" unicode="Î" horiz-adv-x="513" d="M345 0h-174v1320h174v-1320zM542 1388h-184l-102 152l-101 -152h-183l199 253h172z"/>
<glyph glyph-name="Idieresis" unicode="Ï" horiz-adv-x="513" d="M345 0h-174v1320h174v-1320zM514 1429h-165v186h165v-186zM167 1429h-168v186h168v-186z"/>
<glyph glyph-name="Eth" unicode="Ð" horiz-adv-x="1332" d="M1239 667q0 -667 -673 -667h-419v583h-146v157h146v580h419q673 0 673 -653zM1059 667q0 116 -23 208t-79.5 156t-152 98t-240.5 34h-242v-423h360v-157h-360v-426h242q144 0 239.5 34.5t152.5 100.5t80 160.5t23 214.5z"/>
<glyph glyph-name="Ntilde" unicode="Ñ" horiz-adv-x="1332" d="M1185 0h-179l-693 1041v-1041h-166v1320h181l690 -1043v1043h167v-1320zM968 1624q0 -49 -13.5 -87t-38 -64.5t-58 -40.5t-72.5 -14q-20 0 -56.5 11.5t-74 26l-68.5 26t-40 11.5q-57 0 -64 -78h-119q0 48 14 86.5t38.5 65.5t58 41.5t72.5 14.5q19 0 54.5 -12t73 -27 l69 -27t42.5 -12q55 0 64 79h118z"/>
<glyph glyph-name="Ograve" unicode="Ò" horiz-adv-x="1436" d="M719 1343q137 0 253 -49t200 -138.5t131 -215.5t47 -279q0 -152 -46.5 -277.5t-130 -216t-199.5 -140.5t-255 -50t-255 49.5t-200 139.5t-130.5 216t-46.5 279q0 154 47.5 280t131.5 215.5t200 138t253 48.5zM718 127q99 0 182 36.5t143 105t93.5 167.5t33.5 225t-34 225 t-94 167t-142 103.5t-178 35.5q-99 0 -182 -36t-143.5 -104.5t-94.5 -167t-34 -223.5q0 -126 33.5 -225t93.5 -167.5t142.5 -105t180.5 -36.5zM885 1388h-135l-199 254h213z"/>
<glyph glyph-name="Oacute" unicode="Ó" horiz-adv-x="1436" d="M719 1343q137 0 253 -49t200 -138.5t131 -215.5t47 -279q0 -152 -46.5 -277.5t-130 -216t-199.5 -140.5t-255 -50t-255 49.5t-200 139.5t-130.5 216t-46.5 279q0 154 47.5 280t131.5 215.5t200 138t253 48.5zM718 127q99 0 182 36.5t143 105t93.5 167.5t33.5 225t-34 225 t-94 167t-142 103.5t-178 35.5q-99 0 -182 -36t-143.5 -104.5t-94.5 -167t-34 -223.5q0 -126 33.5 -225t93.5 -167.5t142.5 -105t180.5 -36.5zM885 1642l-199 -254h-135l121 254h213z"/>
<glyph glyph-name="Ocircumflex" unicode="Ô" horiz-adv-x="1436" d="M719 1343q137 0 253 -49t200 -138.5t131 -215.5t47 -279q0 -152 -46.5 -277.5t-130 -216t-199.5 -140.5t-255 -50t-255 49.5t-200 139.5t-130.5 216t-46.5 279q0 154 47.5 280t131.5 215.5t200 138t253 48.5zM718 127q99 0 182 36.5t143 105t93.5 167.5t33.5 225t-34 225 t-94 167t-142 103.5t-178 35.5q-99 0 -182 -36t-143.5 -104.5t-94.5 -167t-34 -223.5q0 -126 33.5 -225t93.5 -167.5t142.5 -105t180.5 -36.5zM1003 1388h-184l-102 152l-101 -152h-183l199 253h172z"/>
<glyph glyph-name="Otilde" unicode="Õ" horiz-adv-x="1436" d="M719 1343q137 0 253 -49t200 -138.5t131 -215.5t47 -279q0 -152 -46.5 -277.5t-130 -216t-199.5 -140.5t-255 -50t-255 49.5t-200 139.5t-130.5 216t-46.5 279q0 154 47.5 280t131.5 215.5t200 138t253 48.5zM718 127q99 0 182 36.5t143 105t93.5 167.5t33.5 225t-34 225 t-94 167t-142 103.5t-178 35.5q-99 0 -182 -36t-143.5 -104.5t-94.5 -167t-34 -223.5q0 -126 33.5 -225t93.5 -167.5t142.5 -105t180.5 -36.5zM1020 1624q0 -49 -13.5 -87t-38 -64.5t-58 -40.5t-72.5 -14q-20 0 -56.5 11.5t-74 26l-68.5 26t-40 11.5q-57 0 -64 -78h-119 q0 48 14 86.5t38.5 65.5t58 41.5t72.5 14.5q19 0 54.5 -12t73 -27l69 -27t42.5 -12q55 0 64 79h118z"/>
<glyph glyph-name="Odieresis" unicode="Ö" horiz-adv-x="1436" d="M719 1343q137 0 253 -49t200 -138.5t131 -215.5t47 -279q0 -152 -46.5 -277.5t-130 -216t-199.5 -140.5t-255 -50t-255 49.5t-200 139.5t-130.5 216t-46.5 279q0 154 47.5 280t131.5 215.5t200 138t253 48.5zM718 127q99 0 182 36.5t143 105t93.5 167.5t33.5 225t-34 225 t-94 167t-142 103.5t-178 35.5q-99 0 -182 -36t-143.5 -104.5t-94.5 -167t-34 -223.5q0 -126 33.5 -225t93.5 -167.5t142.5 -105t180.5 -36.5zM971 1429h-165v186h165v-186zM624 1429h-168v186h168v-186z"/>
<glyph glyph-name="Oslash" unicode="Ø" horiz-adv-x="1436" d="M1366 1294l-159 -176q143 -185 143 -457q0 -152 -46.5 -277.5t-130 -216t-199.5 -140.5t-255 -50q-231 0 -406 142l-151 -170l-90 77l159 176q-72 95 -108 208.5t-36 250.5q0 154 47.5 280t131.5 215.5t200 138t253 48.5q120 0 219.5 -35.5t184.5 -106.5l152 169z M1016 1080q-61 55 -134 83.5t-160 28.5q-99 0 -182 -36t-143.5 -104.5t-94.5 -167t-34 -223.5q0 -99 20 -180t59 -149zM423 240q119 -113 295 -113q99 0 182 36.5t143 105t93.5 167.5t33.5 225q0 197 -81 327z"/>
<glyph glyph-name="Ugrave" unicode="Ù" horiz-adv-x="1332" d="M666 -23q-122 0 -208 24.5t-144 67t-91 99.5t-50 121.5t-21.5 133t-4.5 134.5v763h175v-760q0 -133 23 -216t66.5 -129.5t107.5 -63.5t147 -17q84 0 148 17t107.5 64t65.5 130t22 215v760h176v-763q0 -137 -23.5 -244.5t-82 -182t-159 -114t-254.5 -39.5zM833 1388h-135 l-199 254h213z"/>
<glyph glyph-name="Uacute" unicode="Ú" horiz-adv-x="1332" d="M666 -23q-122 0 -208 24.5t-144 67t-91 99.5t-50 121.5t-21.5 133t-4.5 134.5v763h175v-760q0 -133 23 -216t66.5 -129.5t107.5 -63.5t147 -17q84 0 148 17t107.5 64t65.5 130t22 215v760h176v-763q0 -137 -23.5 -244.5t-82 -182t-159 -114t-254.5 -39.5zM833 1642 l-199 -254h-135l121 254h213z"/>
<glyph glyph-name="Ucircumflex" unicode="Û" horiz-adv-x="1332" d="M666 -23q-122 0 -208 24.5t-144 67t-91 99.5t-50 121.5t-21.5 133t-4.5 134.5v763h175v-760q0 -133 23 -216t66.5 -129.5t107.5 -63.5t147 -17q84 0 148 17t107.5 64t65.5 130t22 215v760h176v-763q0 -137 -23.5 -244.5t-82 -182t-159 -114t-254.5 -39.5zM951 1388h-184 l-102 152l-101 -152h-183l199 253h172z"/>
<glyph glyph-name="Udieresis" unicode="Ü" horiz-adv-x="1332" d="M666 -23q-122 0 -208 24.5t-144 67t-91 99.5t-50 121.5t-21.5 133t-4.5 134.5v763h175v-760q0 -133 23 -216t66.5 -129.5t107.5 -63.5t147 -17q84 0 148 17t107.5 64t65.5 130t22 215v760h176v-763q0 -137 -23.5 -244.5t-82 -182t-159 -114t-254.5 -39.5zM923 1429h-165 v186h165v-186zM576 1429h-168v186h168v-186z"/>
<glyph glyph-name="Yacute" unicode="Ý" horiz-adv-x="1231" d="M1222 1320l-519 -760v-560h-175v560l-520 760h213l395 -606l393 606h213zM782 1642l-199 -254h-135l121 254h213z"/>
<glyph glyph-name="Thorn" unicode="Þ" horiz-adv-x="1231" d="M322 1062h320q79 0 146.5 -6t123 -23.5t99 -49t74.5 -82.5q64 -104 64 -225q0 -202 -126 -305t-369 -103h-332v-268h-175v1320h175v-258zM322 425h336q84 0 143 16t96.5 47t54.5 76.5t17 104.5q0 40 -11 75.5t-29.5 64.5t-44 49t-55.5 29q-31 10 -74.5 13.5t-102.5 3.5 h-330v-479z"/>
<glyph glyph-name="germandbls" unicode="ß" horiz-adv-x="1127" d="M126 0v901q0 442 390 442q77 0 139 -20.5t106 -55.5t68 -82t24 -101q0 -45 -22.5 -108.5t-68.5 -144.5q-44 -73 -44 -113q0 -21 5.5 -36.5t23 -33.5t50.5 -41.5t88 -59.5q54 -36 89 -67.5t55.5 -63t28.5 -64.5t8 -72q0 -62 -24 -117t-67.5 -96t-104.5 -65.5t-134 -24.5 q-67 0 -124.5 17.5t-100 49.5t-68 78t-28.5 102h162q15 -113 155 -113q37 0 67 11.5t51.5 32.5t33 49.5t11.5 63.5q0 31 -6 52.5t-23 40.5t-47 40t-79 52q-95 59 -144 113.5t-49 125.5q0 31 17.5 76t49.5 104q40 72 60.5 120.5t20.5 74.5q0 31 -13.5 56.5t-38 44.5t-58 29.5 t-72.5 10.5q-50 0 -90 -14t-68.5 -49t-44 -96t-15.5 -155v-894h-169z"/>
<glyph glyph-name="agrave" unicode="à" horiz-adv-x="1026" d="M732 251v212h-118q-370 0 -370 -201q0 -73 55 -112t146 -39q42 0 83.5 9.5t79 27.5t69.5 44t55 59zM732 97q-134 -120 -336 -120q-69 0 -128 20t-103 56t-69 87t-25 113q0 335 577 335h84q0 62 -4 110t-25.5 80.5t-68.5 49.5t-132 17q-226 0 -234 -163h-171 q18 297 415 297q90 0 162 -16t122.5 -56.5t77.5 -111t27 -178.5v-617h-169v97zM680 1092h-135l-199 254h213z"/>
<glyph glyph-name="aacute" unicode="á" horiz-adv-x="1026" d="M732 251v212h-118q-370 0 -370 -201q0 -73 55 -112t146 -39q42 0 83.5 9.5t79 27.5t69.5 44t55 59zM732 97q-134 -120 -336 -120q-69 0 -128 20t-103 56t-69 87t-25 113q0 335 577 335h84q0 62 -4 110t-25.5 80.5t-68.5 49.5t-132 17q-226 0 -234 -163h-171 q18 297 415 297q90 0 162 -16t122.5 -56.5t77.5 -111t27 -178.5v-617h-169v97zM680 1346l-199 -254h-135l121 254h213z"/>
<glyph glyph-name="acircumflex" unicode="â" horiz-adv-x="1026" d="M732 251v212h-118q-370 0 -370 -201q0 -73 55 -112t146 -39q42 0 83.5 9.5t79 27.5t69.5 44t55 59zM732 97q-134 -120 -336 -120q-69 0 -128 20t-103 56t-69 87t-25 113q0 335 577 335h84q0 62 -4 110t-25.5 80.5t-68.5 49.5t-132 17q-226 0 -234 -163h-171 q18 297 415 297q90 0 162 -16t122.5 -56.5t77.5 -111t27 -178.5v-617h-169v97zM798 1092h-184l-102 152l-101 -152h-183l199 253h172z"/>
<glyph glyph-name="atilde" unicode="ã" horiz-adv-x="1026" d="M732 251v212h-118q-370 0 -370 -201q0 -73 55 -112t146 -39q42 0 83.5 9.5t79 27.5t69.5 44t55 59zM732 97q-134 -120 -336 -120q-69 0 -128 20t-103 56t-69 87t-25 113q0 335 577 335h84q0 62 -4 110t-25.5 80.5t-68.5 49.5t-132 17q-226 0 -234 -163h-171 q18 297 415 297q90 0 162 -16t122.5 -56.5t77.5 -111t27 -178.5v-617h-169v97zM815 1328q0 -49 -13.5 -87t-38 -64.5t-58 -40.5t-72.5 -14q-20 0 -56.5 11.5t-74 26l-68.5 26t-40 11.5q-57 0 -64 -78h-119q0 48 14 86.5t38.5 65.5t58 41.5t72.5 14.5q19 0 54.5 -12t73 -27 l69 -27t42.5 -12q55 0 64 79h118z"/>
<glyph glyph-name="adieresis" unicode="ä" horiz-adv-x="1026" d="M732 251v212h-118q-370 0 -370 -201q0 -73 55 -112t146 -39q42 0 83.5 9.5t79 27.5t69.5 44t55 59zM732 97q-134 -120 -336 -120q-69 0 -128 20t-103 56t-69 87t-25 113q0 335 577 335h84q0 62 -4 110t-25.5 80.5t-68.5 49.5t-132 17q-226 0 -234 -163h-171 q18 297 415 297q90 0 162 -16t122.5 -56.5t77.5 -111t27 -178.5v-617h-169v97zM770 1133h-165v186h165v-186zM423 1133h-168v186h168v-186z"/>
<glyph glyph-name="aring" unicode="å" horiz-adv-x="1026" d="M732 251v212h-118q-370 0 -370 -201q0 -73 55 -112t146 -39q42 0 83.5 9.5t79 27.5t69.5 44t55 59zM732 97q-134 -120 -336 -120q-69 0 -128 20t-103 56t-69 87t-25 113q0 335 577 335h84q0 62 -4 110t-25.5 80.5t-68.5 49.5t-132 17q-226 0 -234 -163h-171 q18 297 415 297q90 0 162 -16t122.5 -56.5t77.5 -111t27 -178.5v-617h-169v97zM513 1388q34 0 63.5 -13.5t52 -36t35.5 -52.5t13 -62q0 -33 -12.5 -62.5t-35 -52t-52.5 -35.5t-64 -13t-63.5 12.5t-51.5 34.5t-34.5 52t-12.5 64q0 33 12.5 63t34.5 52.5t51.5 35.5t63.5 13z M513 1126q42 0 69.5 28.5t27.5 69.5q0 19 -7.5 37t-20.5 31t-30.5 21t-38.5 8q-20 0 -37 -8t-30 -21t-20.5 -31t-7.5 -37q0 -20 7.5 -38t20.5 -31.5t30 -21t37 -7.5z"/>
<glyph glyph-name="ae" unicode="æ" horiz-adv-x="1641" d="M714 394v69h-116q-354 0 -354 -201q0 -151 191 -151q63 0 114.5 18t88 54t56.5 89t20 122zM785 162q-25 -40 -56.5 -74t-77.5 -58.5t-110 -38.5t-153 -14q-71 0 -129.5 20t-100 56.5t-64.5 87.5t-23 112q0 335 558 335h85q0 58 -6 105.5t-28.5 81t-66 52t-119.5 18.5 q-212 0 -226 -163h-171q22 297 405 297q244 0 329 -125q119 125 306 125q102 0 183.5 -34t138 -98.5t86.5 -157.5t30 -211v-41h-693q6 -83 28 -144t57.5 -101.5t83 -60.5t104.5 -20q42 0 82 11.5t71.5 33.5t52 54.5t22.5 74.5h174q-10 -74 -43.5 -131t-86 -96.5t-122 -60 t-150.5 -20.5q-246 0 -370 185zM1396 571q-41 274 -259 274q-215 0 -251 -274h510z"/>
<glyph glyph-name="ccedilla" unicode="ç" horiz-adv-x="923" d="M513 -23q-100 0 -182.5 33.5t-142 97t-92 157t-32.5 213.5q0 118 32 211.5t91 157.5t142 98t184 34q77 0 143 -20t116.5 -59.5t83 -97.5t42.5 -133h-175q-2 43 -19 76t-45 55t-65.5 33.5t-80.5 11.5q-61 0 -111 -23t-86 -69t-56 -115t-20 -160t20 -160t56 -115t86 -69 t111 -23q40 0 77.5 11t66 32.5t46.5 54t20 76.5h175q-10 -76 -43 -133.5t-83.5 -96.5t-116.5 -58.5t-142 -19.5zM504 -67q42 -5 69.5 -15.5t44.5 -27t24 -41t7 -58.5q0 -48 -15.5 -82.5t-48.5 -57.5t-85.5 -34t-126.5 -11q-21 0 -46 1t-53 3v114q28 -3 54 -5t52 -2 q124 0 124 77q0 74 -135 74v132h135v-67z"/>
<glyph glyph-name="egrave" unicode="è" horiz-adv-x="1026" d="M531 -23q-104 0 -190 33.5t-147.5 98t-95.5 157.5t-34 212q0 117 33 209.5t92 157.5t142 99.5t182 34.5q103 0 186 -34t141.5 -98.5t90 -157.5t31.5 -211v-41h-720q6 -83 29.5 -144t62 -101.5t88.5 -60.5t109 -20q42 0 84 11.5t75.5 33.5t54.5 54.5t22 74.5h178 q-11 -74 -46.5 -131.5t-90 -96.5t-125.5 -59.5t-152 -20.5zM782 571q-20 136 -92.5 205t-176.5 69q-51 0 -96 -17t-80 -51t-59 -85.5t-34 -120.5h538zM680 1092h-135l-199 254h213z"/>
<glyph glyph-name="eacute" unicode="é" horiz-adv-x="1026" d="M531 -23q-104 0 -190 33.5t-147.5 98t-95.5 157.5t-34 212q0 117 33 209.5t92 157.5t142 99.5t182 34.5q103 0 186 -34t141.5 -98.5t90 -157.5t31.5 -211v-41h-720q6 -83 29.5 -144t62 -101.5t88.5 -60.5t109 -20q42 0 84 11.5t75.5 33.5t54.5 54.5t22 74.5h178 q-11 -74 -46.5 -131.5t-90 -96.5t-125.5 -59.5t-152 -20.5zM782 571q-20 136 -92.5 205t-176.5 69q-51 0 -96 -17t-80 -51t-59 -85.5t-34 -120.5h538zM680 1346l-199 -254h-135l121 254h213z"/>
<glyph glyph-name="ecircumflex" unicode="ê" horiz-adv-x="1026" d="M531 -23q-104 0 -190 33.5t-147.5 98t-95.5 157.5t-34 212q0 117 33 209.5t92 157.5t142 99.5t182 34.5q103 0 186 -34t141.5 -98.5t90 -157.5t31.5 -211v-41h-720q6 -83 29.5 -144t62 -101.5t88.5 -60.5t109 -20q42 0 84 11.5t75.5 33.5t54.5 54.5t22 74.5h178 q-11 -74 -46.5 -131.5t-90 -96.5t-125.5 -59.5t-152 -20.5zM782 571q-20 136 -92.5 205t-176.5 69q-51 0 -96 -17t-80 -51t-59 -85.5t-34 -120.5h538zM798 1092h-184l-102 152l-101 -152h-183l199 253h172z"/>
<glyph glyph-name="edieresis" unicode="ë" horiz-adv-x="1026" d="M531 -23q-104 0 -190 33.5t-147.5 98t-95.5 157.5t-34 212q0 117 33 209.5t92 157.5t142 99.5t182 34.5q103 0 186 -34t141.5 -98.5t90 -157.5t31.5 -211v-41h-720q6 -83 29.5 -144t62 -101.5t88.5 -60.5t109 -20q42 0 84 11.5t75.5 33.5t54.5 54.5t22 74.5h178 q-11 -74 -46.5 -131.5t-90 -96.5t-125.5 -59.5t-152 -20.5zM782 571q-20 136 -92.5 205t-176.5 69q-51 0 -96 -17t-80 -51t-59 -85.5t-34 -120.5h538zM770 1133h-165v186h165v-186zM423 1133h-168v186h168v-186z"/>
<glyph glyph-name="igrave" unicode="ì" horiz-adv-x="420" d="M295 0h-169v955h169v-955zM198 1346l121 -254h-135l-199 254h213z"/>
<glyph glyph-name="iacute" unicode="í" horiz-adv-x="420" d="M295 0h-169v955h169v-955zM442 1346l-199 -254h-135l121 254h213z"/>
<glyph glyph-name="icircumflex" unicode="î" horiz-adv-x="420" d="M295 0h-169v955h169v-955zM497 1092h-184l-103 152l-101 -152h-183l200 253h172z"/>
<glyph glyph-name="idieresis" unicode="ï" horiz-adv-x="420" d="M295 0h-169v955h169v-955zM461 1133h-165v186h165v-186zM115 1133h-168v186h168v-186z"/>
<glyph glyph-name="eth" unicode="ð" horiz-adv-x="1026" d="M666 1156q79 -91 136 -176t91 -165q69 -162 69 -348q0 -115 -32 -206t-90.5 -154t-141.5 -96.5t-185 -33.5q-100 0 -182.5 33t-142 96t-92 154t-32.5 207q0 115 32 206t91 153.5t142 95.5t184 33q81 0 145 -32q-46 96 -119 179l-220 -103l-46 86l194 89q-37 36 -82 72 t-102 74h196l69 -53.5t40 -35.5l194 90l47 -86zM513 111q60 0 110 22t86 66.5t56 111.5t20 156q0 88 -20 155t-56 111.5t-86 67t-110 22.5q-61 0 -111 -22.5t-86 -67t-56 -111.5t-20 -155q0 -89 20 -156t56 -111.5t86 -66.5t111 -22z"/>
<glyph glyph-name="ntilde" unicode="ñ" horiz-adv-x="1026" d="M295 834q63 73 135 109t150 36q324 0 324 -354v-625h-171v617q0 59 -10 101t-31.5 68.5t-55 38.5t-80.5 12q-130 0 -261 -152v-685h-169v955h169v-121zM815 1328q0 -49 -13.5 -87t-38 -64.5t-58 -40.5t-72.5 -14q-20 0 -56.5 11.5t-74 26l-68.5 26t-40 11.5 q-57 0 -64 -78h-119q0 48 14 86.5t38.5 65.5t58 41.5t72.5 14.5q19 0 54.5 -12t73 -27l69 -27t42.5 -12q55 0 64 79h118z"/>
<glyph glyph-name="ograve" unicode="ò" horiz-adv-x="1026" d="M513 979q103 0 186 -34t141.5 -98.5t90 -157.5t31.5 -211q0 -119 -32 -212t-91 -157.5t-141.5 -98t-184.5 -33.5q-100 0 -182.5 33.5t-142 97t-92 157t-32.5 213.5q0 118 32 211.5t91 157.5t142 98t184 34zM513 111q60 0 110 23t86 69t56 115t20 160t-20 160t-56 115 t-86 69t-110 23q-61 0 -111 -23t-86 -69t-56 -115t-20 -160t20 -160t56 -115t86 -69t111 -23zM680 1092h-135l-199 254h213z"/>
<glyph glyph-name="oacute" unicode="ó" horiz-adv-x="1026" d="M513 979q103 0 186 -34t141.5 -98.5t90 -157.5t31.5 -211q0 -119 -32 -212t-91 -157.5t-141.5 -98t-184.5 -33.5q-100 0 -182.5 33.5t-142 97t-92 157t-32.5 213.5q0 118 32 211.5t91 157.5t142 98t184 34zM513 111q60 0 110 23t86 69t56 115t20 160t-20 160t-56 115 t-86 69t-110 23q-61 0 -111 -23t-86 -69t-56 -115t-20 -160t20 -160t56 -115t86 -69t111 -23zM680 1346l-199 -254h-135l121 254h213z"/>
<glyph glyph-name="ocircumflex" unicode="ô" horiz-adv-x="1026" d="M513 979q103 0 186 -34t141.5 -98.5t90 -157.5t31.5 -211q0 -119 -32 -212t-91 -157.5t-141.5 -98t-184.5 -33.5q-100 0 -182.5 33.5t-142 97t-92 157t-32.5 213.5q0 118 32 211.5t91 157.5t142 98t184 34zM513 111q60 0 110 23t86 69t56 115t20 160t-20 160t-56 115 t-86 69t-110 23q-61 0 -111 -23t-86 -69t-56 -115t-20 -160t20 -160t56 -115t86 -69t111 -23zM808 1092h-184l-102 152l-101 -152h-183l199 253h172z"/>
<glyph glyph-name="otilde" unicode="õ" horiz-adv-x="1026" d="M513 979q103 0 186 -34t141.5 -98.5t90 -157.5t31.5 -211q0 -119 -32 -212t-91 -157.5t-141.5 -98t-184.5 -33.5q-100 0 -182.5 33.5t-142 97t-92 157t-32.5 213.5q0 118 32 211.5t91 157.5t142 98t184 34zM513 111q60 0 110 23t86 69t56 115t20 160t-20 160t-56 115 t-86 69t-110 23q-61 0 -111 -23t-86 -69t-56 -115t-20 -160t20 -160t56 -115t86 -69t111 -23zM815 1328q0 -49 -13.5 -87t-38 -64.5t-58 -40.5t-72.5 -14q-20 0 -56.5 11.5t-74 26l-68.5 26t-40 11.5q-57 0 -64 -78h-119q0 48 14 86.5t38.5 65.5t58 41.5t72.5 14.5 q19 0 54.5 -12t73 -27l69 -27t42.5 -12q55 0 64 79h118z"/>
<glyph glyph-name="odieresis" unicode="ö" horiz-adv-x="1026" d="M513 979q103 0 186 -34t141.5 -98.5t90 -157.5t31.5 -211q0 -119 -32 -212t-91 -157.5t-141.5 -98t-184.5 -33.5q-100 0 -182.5 33.5t-142 97t-92 157t-32.5 213.5q0 118 32 211.5t91 157.5t142 98t184 34zM513 111q60 0 110 23t86 69t56 115t20 160t-20 160t-56 115 t-86 69t-110 23q-61 0 -111 -23t-86 -69t-56 -115t-20 -160t20 -160t56 -115t86 -69t111 -23zM770 1133h-165v186h165v-186zM423 1133h-168v186h168v-186z"/>
<glyph glyph-name="oslash" unicode="ø" horiz-adv-x="1026" d="M852 833q110 -134 110 -355q0 -119 -32 -212t-91 -157.5t-141.5 -98t-184.5 -33.5q-76 0 -139.5 19t-120.5 56l-91 -116l-86 64q100 124 96 124q-108 133 -108 354q0 118 32 211.5t91 157.5t142 98t184 34q75 0 139.5 -19t120.5 -56l90 118l86 -65zM681 784 q-73 61 -168 61q-61 0 -111 -23t-86 -69t-56 -115t-20 -160q0 -128 37 -216zM343 172q70 -61 170 -61q60 0 110 23t86 69t56 115t20 160q0 131 -40 217q-397 -523 -402 -523z"/>
<glyph glyph-name="ugrave" unicode="ù" horiz-adv-x="1026" d="M732 121q-128 -144 -287 -144q-324 0 -324 353v625h172v-616q0 -60 10 -101.5t31.5 -68t55 -38.5t80.5 -12q143 0 262 153v683h169v-955h-169v121zM680 1092h-135l-199 254h213z"/>
<glyph glyph-name="uacute" unicode="ú" horiz-adv-x="1026" d="M732 121q-128 -144 -287 -144q-324 0 -324 353v625h172v-616q0 -60 10 -101.5t31.5 -68t55 -38.5t80.5 -12q143 0 262 153v683h169v-955h-169v121zM680 1346l-199 -254h-135l121 254h213z"/>
<glyph glyph-name="ucircumflex" unicode="û" horiz-adv-x="1026" d="M732 121q-128 -144 -287 -144q-324 0 -324 353v625h172v-616q0 -60 10 -101.5t31.5 -68t55 -38.5t80.5 -12q143 0 262 153v683h169v-955h-169v121zM798 1092h-184l-102 152l-101 -152h-183l199 253h172z"/>
<glyph glyph-name="udieresis" unicode="ü" horiz-adv-x="1026" d="M732 121q-128 -144 -287 -144q-324 0 -324 353v625h172v-616q0 -60 10 -101.5t31.5 -68t55 -38.5t80.5 -12q143 0 262 153v683h169v-955h-169v121zM770 1133h-165v186h165v-186zM423 1133h-168v186h168v-186z"/>
<glyph glyph-name="yacute" unicode="ý" horiz-adv-x="923" d="M179 -231q126 0 206 231l-360 955h184l252 -746l254 746h183l-360 -955q-32 -86 -62.5 -157t-67 -122.5t-84.5 -80t-115 -28.5q-32 0 -60.5 3t-51.5 10v157q20 -8 41 -10.5t41 -2.5zM628 1346l-199 -254h-135l121 254h213z"/>
<glyph glyph-name="thorn" unicode="þ" horiz-adv-x="1026" d="M295 842q113 137 273 137q94 0 167.5 -35.5t124 -100t76.5 -155.5t26 -202q0 -116 -31 -210t-85 -160.5t-128 -102.5t-161 -36q-78 0 -143 23.5t-119 73.5v-441h-169v1687h169v-478zM295 227q111 -116 252 -116q109 0 173.5 94.5t64.5 280.5q0 176 -61 267.5t-170 91.5 q-142 0 -259 -164v-454z"/>
<glyph glyph-name="ydieresis" unicode="ÿ" horiz-adv-x="923" d="M179 -231q126 0 206 231l-360 955h184l252 -746l254 746h183l-360 -955q-32 -86 -62.5 -157t-67 -122.5t-84.5 -80t-115 -28.5q-32 0 -60.5 3t-51.5 10v157q20 -8 41 -10.5t41 -2.5zM719 1133h-165v186h165v-186zM372 1133h-168v186h168v-186z"/>
<glyph glyph-name="bulletoperator" unicode="∙" horiz-adv-x="799" d="M667 781q0 -56 -22 -105t-59 -86.5t-85.5 -59t-101.5 -21.5q-56 0 -104.5 21.5t-85.5 59t-58 86.5t-21 105q0 55 21 104t58 86t85.5 58.5t104.5 21.5q55 0 104 -21.5t85.5 -58.5t57.5 -86t21 -104z"/>
<glyph glyph-name="uni0951" unicode="॑" d="M-290 1480h-96v688h96v-688zM-338 1247z"/>
<glyph glyph-name="uni0952" unicode="॒" d="M-482 86zM10 -448h-960v88h960v-88zM-482 505z"/>
<glyph glyph-name="uni20A8" unicode="₨" horiz-adv-x="2203" d="M1249 0h-190l-124 354q-17 46 -45 84.5t-65 66.5t-82.5 43.5t-96.5 15.5h-324v-564h-175v1320h585q53 0 101 -2.5t91.5 -11t82.5 -25.5t74 -47q60 -53 91 -128t31 -155q0 -69 -20.5 -127t-59 -103t-93.5 -76t-124 -44v-3q138 -43 212 -239zM322 722h392q81 0 139.5 12 t96 39t55 71t17.5 107q0 114 -70 168.5t-212 54.5h-418v-452zM1717 -23q-390 0 -411 308h171q1 -174 238 -174q53 0 93.5 11.5t67.5 32t41 48t14 60.5q0 34 -10.5 55t-41 37t-84.5 31.5t-141 38.5q-85 21 -146.5 42t-101 51t-58.5 74t-19 111q0 59 25 109.5t71.5 87.5 t112.5 58t147 21q377 0 383 -268h-168q-9 134 -202 134q-43 0 -79.5 -8.5t-63.5 -24.5t-42 -39.5t-15 -54.5q0 -28 7 -46t33.5 -33.5t78.5 -30.5t142 -37q87 -21 151 -43.5t106.5 -54.5t63 -78t20.5 -115q0 -65 -27 -120t-76.5 -96t-120.5 -64t-159 -23z"/>
<glyph glyph-name="uni0A210A3C" horiz-adv-x="1376" d="M1446 1176h-230q-7 -350 -225 -481q107 -78 147 -157q34 -67 34 -170q0 -192 -204 -294q-161 -80 -370 -80q-189 0 -321 56q-179 77 -179 237q0 103 104 154q80 40 191 40q134 0 255.5 -81t175.5 -211q69 23 123 70q66 58 66 122q0 141 -193 246q-160 -48 -346 -38 q-189 10 -183 117q6 125 251 125q174 0 297 -40q214 111 218 385h-1057v144h1446v-144zM668 159q-49 101 -125 142q-64 34 -169 34q-116 0 -116 -48q0 -133 340 -133q33 0 70 5zM349 -232q0 -43 -30.5 -73.5t-73.5 -30.5t-73.5 30.5t-30.5 73.5t30.5 73.5t73.5 30.5 t73.5 -30.5t30.5 -73.5z"/>
<glyph glyph-name="uni0A5C0A3C" horiz-adv-x="1376" d="M1446 1176h-230q-3 -143 -54 -228t-181 -163q141 -114 141 -267q0 -169 -123 -290l124 -145l-111 -101l-143 168q-99 -46 -242 -46q-25 0 -73 3t-71 3l71 -69l-111 -101l-336 356l111 101q79 -83 183 -113q73 -20 197 -20q166 0 265.5 71t99.5 196q0 60 -52 121 q-40 47 -91 75q-133 -39 -285 -39q-244 0 -244 113q0 130 251 130q156 0 297 -40q114 52 160 109q51 63 58 176h-1057v144h1446v-144zM360 -232q0 -43 -30.5 -73.5t-73.5 -30.5t-73.5 30.5t-30.5 73.5t30.5 73.5t73.5 30.5t73.5 -30.5t30.5 -73.5z"/>
<glyph glyph-name="uni0A71.alt" unicode="ੱ" d="M354 1796q0 -142 -96 -239q-92 -93 -216 -93t-216 93q-96 97 -96 239h160q2 -173 152 -173t152 173h160z"/>
</font>
</defs>
</svg>
